SplineFontDB: 3.0
FontName: UnifrakturMaguntia
FullName: UnifrakturMaguntia
FamilyName: UnifrakturMaguntia
Weight: Book
Copyright: Copyright (c) 2010 j. 'mach' wust with Reserved Font Name UnifrakturMaguntia.\nCopyright (c) 2009 Peter Wiegel.\n\nThis Font Software is licensed under the SIL Open Font License, Version 1.1.

StartChar: .notdef
Encoding: 1114112 -1 0
Width: 1524
Flags: W
HStem: -92 12<-28.9647 20> -41 29<-17.8096 -8.00195> 29 14<-7.87549 10> 70 14<735.812 749.844> 84 33<776.75 778 778.002 792.938 909 917.999 948.063 966.536> 90 12<887 891> 98 2<43 44.9995> 134 26<539.781 663.593> 156 24<76.0625 80 1010 1108.96> 233 19<176 266.953> 250 14<73.6407 129> 260 16<801.497 848.976> 268 27<588.696 601.938 625 629> 299 20<625 631> 322 16<1030 1036> 381 16<471.576 515.197 1100.12 1179.36> 457 12<510.001 521.039 1100.12 1107.94> 522 15<1171 1175.75> 524 2<449 453> 532 13<375 384.969> 547 16<328 331.938 1244.66 1314.76> 1085 23<771.972 843.469> 1120 21G<489.5 503> 1149 22<700.839 808.728 872.002 955.459 1030.6 1043.66> 1151 2<1192.09 1194> 1157 31<842.25 872> 1174 75<824.995 834> 1180 37<698 736.651 1006.12 1019.88 1075.25 1111.11> 1188 12<764 765.623 1174 1243> 1200 4<1132.01 1151> 1200 2<1169 1170.82> 1208 9<1030.7 1074.5> 1231 14<639.063 712.633> 1233 4<563 575 586 598> 1272 12<731.922 758.031 932 944> 1346 14<952.944 994.9> 1382 17<723 725.194> 1483 22<847.5 937.021> 1497 25<676.415 860.699> 1653 14<596.126 602> 1675 13<1024.59 1040.36>
VStem: -100 14<-40.8156 1.82251> -88 14<18.0548 61.0684> -76 15<-120.688 -80.0645 -31 -12.2388> -68 9<38.459 49> -49 8<-92 -89.939> -8 14<-11.9634 8.0918> 0 6<49.0886 50.9998 51 54.9407> 31 12<-70 -47.1738 184.938 203> 43 2<98.0005 100> 53 19<178.135 184 189.285 216.974> 74 2<182 184> 115 12<148.958 188.097> 160 16<252.062 257.822> 233 31<328.611 484.204> 371 14<532.031 539> 440 19<487 492 492 499.875> 449 20<504 512> 467 18<477 485> 475 33<496.922 512> 500 8<469.198 471> 504 35<1236.56 1342.04> 528 39<1325.7 1434.42> 582 24<379 419.749> 629 18<441.045 474.865 1449.06 1537.1> 645 27<1059.33 1125.96> 664 28<162.252 270.583> 664 14<118.003 131.562> 711 16<106.282 151.904> 717 22<1292.16 1324.81> 719 12<1292 1303.76> 726 5<1407 1449.62> 731 6<1438 1450> 764 29<166.252 258 279.052 311.844> 772 6<118.42 123> 791 34<316.25 630.764> 797 76.5<125.165 153.657> 827 15<1188.74 1208> 829 5<1247.88 1248.99> 850 37<173.85 258.281> 868 19<348.287 465.718 468.468 509.094 510.565 638.5 1253 1257> 885 16<637.67 687.459> 885 16<1270.56 1284 1296 1298> 907 27<129.255 165.875> 922 2<1399 1448> 930 6<1382 1388.89> 950 2<1395 1444> 952 38<184.782 286.218> 987 14<1478.22 1580.09> 995 10<137 144.624> 999 15<1058.69 1132.77 1465.12 1481.57> 999 2<1612 1613.69> 1040 36<686.492 944.188> 1067 27<379 382.938 400.098 456.875> 1079 49<1200.12 1205.94 1349.03 1469.92> 1104 31<1435.35 1530.94> 1135 26<1247.73 1318.43> 1171 3<1198.23 1199.91> 1235 10<535 536.936> 1286 31<1453.7 1538.61> 1341 35<1139.09 1323.52> 1393 39<349.031 446.149> 1470 39<1149.71 1430.67>
LayerCount: 2
Fore
SplineSet
1032 1688 m 1,0,-1
 1038 1688 l 1,1,2
 1044 1673 1044 1673 1060.5 1645.5 c 128,-1,3
 1077 1618 1077 1618 1093.5 1586 c 128,-1,4
 1110 1554 1110 1554 1122.5 1524.5 c 128,-1,5
 1135 1495 1135 1495 1135 1475 c 0,6,7
 1135 1458 1135 1458 1131.5 1444 c 128,-1,8
 1128 1430 1128 1430 1128 1413 c 0,9,10
 1128 1378 1128 1378 1144.5 1343.5 c 128,-1,11
 1161 1309 1161 1309 1161 1278 c 0,12,13
 1161 1237 1161 1237 1130 1210 c 1,14,15
 1130 1204 1130 1204 1140.5 1204 c 128,-1,16
 1151 1204 1151 1204 1151 1200 c 1,17,-1
 1122 1200 l 1,18,19
 1112 1196 1112 1196 1104 1188 c 1,20,-1
 1192 1155 l 1,21,22
 1192 1153 1192 1153 1193 1153 c 128,-1,23
 1194 1153 1194 1153 1194 1151 c 1,24,-1
 1190 1151 l 2,25,26
 1186 1151 1186 1151 1182 1155 c 1,27,28
 1182 1155 1182 1155 1178 1151 c 1,29,30
 1176 1151 1176 1151 1175 1155 c 128,-1,31
 1174 1159 1174 1159 1169 1159 c 0,32,33
 1167 1159 1167 1159 1165 1157 c 1,34,-1
 1149 1163 l 1,35,36
 1137 1163 1137 1163 1122.5 1171.5 c 128,-1,37
 1108 1180 1108 1180 1096 1180 c 0,38,39
 1083 1180 1083 1180 1075 1174 c 1,40,-1
 1071 1169 l 2,41,42
 1069 1167 1069 1167 1069 1165 c 256,43,44
 1069 1163 1069 1163 1071 1163 c 2,45,-1
 1100 1147 l 1,46,-1
 1085 1151 l 1,47,48
 1079 1155 1079 1155 1074 1156 c 128,-1,49
 1069 1157 1069 1157 1065 1161 c 1,50,51
 1061 1159 1061 1159 1051.5 1157 c 128,-1,52
 1042 1155 1042 1155 1034 1150 c 128,-1,53
 1026 1145 1026 1145 1020 1133.5 c 128,-1,54
 1014 1122 1014 1122 1014 1102 c 0,55,56
 1014 1055 1014 1055 1036.5 1004.5 c 128,-1,57
 1059 954 1059 954 1067 903 c 1,58,59
 1081 846 1081 846 1076 789.5 c 128,-1,60
 1071 733 1071 733 1085 680 c 1,61,62
 1087 680 1087 680 1104.5 709.5 c 128,-1,63
 1122 739 1122 739 1143.5 775 c 128,-1,64
 1165 811 1165 811 1184.5 842.5 c 128,-1,65
 1204 874 1204 874 1210 881 c 1,66,67
 1231 920 1231 920 1254.5 956.5 c 128,-1,68
 1278 993 1278 993 1294 1036 c 1,69,-1
 1300 1049 l 1,70,71
 1305 1085 1305 1085 1323 1124 c 128,-1,72
 1341 1163 1341 1163 1341 1225 c 0,73,74
 1341 1260 1341 1260 1333 1291.5 c 128,-1,75
 1325 1323 1325 1323 1314 1353.5 c 128,-1,76
 1303 1384 1303 1384 1294.5 1415 c 128,-1,77
 1286 1446 1286 1446 1286 1477 c 0,78,79
 1286 1505 1286 1505 1295.5 1527.5 c 128,-1,80
 1305 1550 1305 1550 1337 1579 c 1,81,-1
 1341 1579 l 1,82,83
 1358 1583 l 1,84,-1
 1409 1571 l 1,85,86
 1434 1554 1434 1554 1453.5 1520.5 c 128,-1,87
 1473 1487 1473 1487 1485 1447 c 128,-1,88
 1497 1407 1497 1407 1503 1365 c 128,-1,89
 1509 1323 1509 1323 1509 1288 c 0,90,91
 1509 1092 1509 1092 1352 866 c 1,92,93
 1352 864 1352 864 1346 862 c 1,94,95
 1303 795 1303 795 1269 747.5 c 128,-1,96
 1235 700 1235 700 1211.5 664.5 c 128,-1,97
 1188 629 1188 629 1175.5 599 c 128,-1,98
 1163 569 1163 569 1163 539 c 1,99,100
 1165 537 1165 537 1169 537 c 0,101,102
 1192 537 1192 537 1229 550 c 128,-1,103
 1266 563 1266 563 1292 563 c 0,104,105
 1333 563 1333 563 1356 541 c 1,106,-1
 1389 500 l 1,107,108
 1405 469 1405 469 1418.5 431 c 128,-1,109
 1432 393 1432 393 1432 356 c 0,110,111
 1432 307 1432 307 1393 273.5 c 128,-1,112
 1354 240 1354 240 1303.5 218.5 c 128,-1,113
 1253 197 1253 197 1206 185.5 c 128,-1,114
 1159 174 1159 174 1145 170 c 1,115,116
 1110 168 1110 168 1071 159 c 128,-1,117
 1032 150 1032 150 1010 145 c 1,118,119
 1004 133 1004 133 1005 117.5 c 128,-1,120
 1006 102 1006 102 983 98 c 1,121,-1
 973 100 l 1,122,123
 956 84 956 84 918 84 c 0,124,125
 907 84 907 84 902 87 c 128,-1,126
 897 90 897 90 893 90 c 0,127,128
 891 90 891 90 890 89 c 128,-1,129
 889 88 889 88 887 88 c 2,130,-1
 856 104 l 1,131,-1
 846 125 l 1,132,-1
 811 125 l 1,133,-1
 797 88 l 1,134,135
 784 84 784 84 782 84 c 0,136,137
 778 84 778 84 758 88 c 1,138,-1
 754 74 l 1,139,140
 750 70 750 70 745.5 70 c 128,-1,141
 741 70 741 70 739 68 c 2,142,-1
 735 66 l 1,143,-1
 707 86 l 1,144,145
 705 82 l 1,146,-1
 702 86 l 1,147,148
 698 84 698 84 694 80 c 0,149,150
 692 78 692 78 692 74 c 1,151,-1
 688 74 l 1,152,153
 664 88 664 88 664 129 c 1,154,155
 651 135 651 135 634.5 134 c 128,-1,156
 618 133 618 133 604 137 c 1,157,-1
 559 143 l 1,158,159
 547 143 547 143 525.5 146.5 c 128,-1,160
 504 150 504 150 484.5 155 c 128,-1,161
 465 160 465 160 448.5 165 c 128,-1,162
 432 170 432 170 428 174 c 1,163,164
 336 197 336 197 291 215 c 128,-1,165
 246 233 246 233 217 233 c 2,166,-1
 170 233 l 1,167,-1
 156 238 l 1,168,-1
 96 227 l 1,169,170
 123 199 123 199 127 166 c 1,171,172
 127 154 127 154 119 139 c 1,173,-1
 78 121 l 1,174,-1
 72 111 l 1,175,-1
 53 92 l 1,176,-1
 29 88 l 1,177,-1
 23 94 l 1,178,-1
 -16 111 l 1,179,180
 -23 111 -23 111 -23 98 c 2,181,-1
 -23 94 l 2,182,183
 -23 92 -23 92 -20 92 c 1,184,-1
 27 70 l 1,185,186
 31 57 31 57 31 57 c 2,187,188
 31 55 31 55 27 43 c 1,189,-1
 16 33 l 1,190,191
 18 33 18 33 2 29 c 1,192,-1
 -8 29 l 1,193,-1
 -27 37 l 1,194,-1
 -47 59 l 1,195,-1
 -59 49 l 1,196,197
 -59 39 -59 39 -49 35 c 128,-1,198
 -39 31 -39 31 -26.5 25.5 c 128,-1,199
 -14 20 -14 20 -4 14 c 128,-1,200
 6 8 6 8 6 -6 c 0,201,202
 6 -8 6 -8 2 -20 c 1,203,-1
 2 -25 l 1,204,205
 14 -33 14 -33 28.5 -35 c 128,-1,206
 43 -37 43 -37 43 -57 c 0,207,208
 43 -80 43 -80 33 -86 c 128,-1,209
 23 -92 23 -92 8 -92 c 0,210,211
 -2 -92 -2 -92 -13.5 -90 c 128,-1,212
 -25 -88 -25 -88 -35 -88 c 1,213,214
 -39 -92 -39 -92 -40 -90 c 128,-1,215
 -41 -88 -41 -88 -41 -92 c 1,216,-1
 0 -170 l 1,217,-1
 -4 -178 l 1,218,219
 -8 -178 -8 -178 -16.5 -167 c 128,-1,220
 -25 -156 -25 -156 -32 -141.5 c 128,-1,221
 -39 -127 -39 -127 -44 -113.5 c 128,-1,222
 -49 -100 -49 -100 -49 -96 c 0,223,224
 -49 -86 -49 -86 -47 -84 c 1,225,226
 -47 -82 -47 -82 -49 -80 c 1,227,-1
 -59 -80 l 1,228,229
 -61 -82 -61 -82 -61 -92 c 0,230,231
 -61 -96 -61 -96 -61 -103.5 c 128,-1,232
 -61 -111 -61 -111 -59 -121 c 1,233,-1
 -31 -166 l 1,234,-1
 -35 -174 l 1,235,-1
 -41 -174 l 1,236,237
 -49 -154 -49 -154 -62.5 -134.5 c 128,-1,238
 -76 -115 -76 -115 -76 -88 c 1,239,240
 -70 -82 -70 -82 -70 -76 c 0,241,242
 -70 -74 -70 -74 -85 -55.5 c 128,-1,243
 -100 -37 -100 -37 -100 -18 c 0,244,245
 -100 -4 -100 -4 -92 6 c 1,246,-1
 -84 18 l 1,247,248
 -88 35 -88 35 -88 37 c 0,249,250
 -88 49 -88 49 -75.5 72.5 c 128,-1,251
 -63 96 -63 96 -48 120.5 c 128,-1,252
 -33 145 -33 145 -17.5 165.5 c 128,-1,253
 -2 186 -2 186 2 190 c 1,254,-1
 8 207 l 1,255,-1
 23 217 l 1,256,-1
 29 217 l 1,257,-1
 51 250 l 1,258,-1
 96 264 l 1,259,-1
 129 264 l 1,260,-1
 170 281 l 1,261,-1
 254 299 l 1,262,263
 256 301 256 301 256 303 c 0,264,265
 233 375 233 375 233 422 c 256,266,267
 233 469 233 469 248.5 491.5 c 128,-1,268
 264 514 264 514 291 541 c 1,269,-1
 324 563 l 1,270,271
 326 563 326 563 328 564 c 128,-1,272
 330 565 330 565 332 565 c 2,273,-1
 348 571 l 1,274,-1
 346 571 l 1,275,-1
 348 571 l 2,276,277
 352 571 352 571 354 573 c 1,278,279
 381 569 381 569 417 556 c 128,-1,280
 453 543 453 543 481 524 c 1,281,282
 483 524 483 524 489.5 539.5 c 128,-1,283
 496 555 496 555 504 575.5 c 128,-1,284
 512 596 512 596 520 615.5 c 128,-1,285
 528 635 528 635 532 643 c 0,286,287
 553 680 553 680 560 720 c 128,-1,288
 567 760 567 760 571 803 c 128,-1,289
 575 846 575 846 581.5 889 c 128,-1,290
 588 932 588 932 606 973 c 1,291,292
 610 1012 610 1012 627.5 1049.5 c 128,-1,293
 645 1087 645 1087 645 1124 c 0,294,295
 645 1128 645 1128 644 1133.5 c 128,-1,296
 643 1139 643 1139 643 1143 c 1,297,-1
 612 1161 l 1,298,-1
 578 1151 l 1,299,-1
 567 1153 l 1,300,301
 545 1147 545 1147 529.5 1133.5 c 128,-1,302
 514 1120 514 1120 492 1120 c 0,303,304
 487 1120 487 1120 485 1121 c 128,-1,305
 483 1122 483 1122 481 1122 c 2,306,-1
 588 1169 l 1,307,-1
 557 1194 l 1,308,309
 555 1194 555 1194 537.5 1186 c 128,-1,310
 520 1178 520 1178 518 1178 c 1,311,312
 522 1182 522 1182 530.5 1186 c 128,-1,313
 539 1190 539 1190 553 1198 c 1,314,315
 535 1217 535 1217 519.5 1236 c 128,-1,316
 504 1255 504 1255 504 1284 c 256,317,318
 504 1313 504 1313 516 1337.5 c 128,-1,319
 528 1362 528 1362 528 1389 c 0,320,321
 528 1411 528 1411 524 1434.5 c 128,-1,322
 520 1458 520 1458 514 1487 c 1,323,324
 514 1507 514 1507 526.5 1538 c 128,-1,325
 539 1569 539 1569 554 1597.5 c 128,-1,326
 569 1626 569 1626 582.5 1646.5 c 128,-1,327
 596 1667 596 1667 598 1667 c 2,328,-1
 608 1667 l 2,329,330
 612 1667 612 1667 620.5 1648.5 c 128,-1,331
 629 1630 629 1630 638 1606.5 c 128,-1,332
 647 1583 647 1583 656.5 1561.5 c 128,-1,333
 666 1540 666 1540 676 1534 c 1,334,335
 686 1526 686 1526 697.5 1524 c 128,-1,336
 709 1522 709 1522 719 1522 c 0,337,338
 735 1522 735 1522 750.5 1524 c 128,-1,339
 766 1526 766 1526 782 1526 c 0,340,341
 813 1526 813 1526 841.5 1515.5 c 128,-1,342
 870 1505 870 1505 897 1505 c 0,343,344
 911 1505 911 1505 921.5 1507 c 128,-1,345
 932 1509 932 1509 941 1520.5 c 128,-1,346
 950 1532 950 1532 960.5 1556.5 c 128,-1,347
 971 1581 971 1581 983 1624 c 1,348,349
 997 1681 997 1681 1032 1688 c 1,0,-1
1055 1620 m 0,350,351
 1055 1622 1055 1622 1053 1630 c 128,-1,352
 1051 1638 1051 1638 1047.5 1648.5 c 128,-1,353
 1044 1659 1044 1659 1041 1667 c 128,-1,354
 1038 1675 1038 1675 1036 1675 c 0,355,356
 1028 1675 1028 1675 1022 1665 c 128,-1,357
 1016 1655 1016 1655 1011 1643.5 c 128,-1,358
 1006 1632 1006 1632 1002.5 1622 c 0,359,-1
 999 1612 l 1,360,-1
 999 1614 l 1,361,362
 1001 1604 1001 1604 1001 1591.5 c 128,-1,363
 1001 1579 1001 1579 1001 1569 c 2,364,-1
 1001 1534 l 2,365,366
 1001 1495 1001 1495 1010 1470 c 1,367,368
 1008 1468 1008 1468 1007 1466 c 128,-1,369
 1006 1464 1006 1464 1004 1462 c 1,370,371
 985 1485 985 1485 987 1518.5 c 128,-1,372
 989 1552 989 1552 985 1581 c 1,373,374
 975 1548 975 1548 960.5 1515.5 c 128,-1,375
 946 1483 946 1483 903 1483 c 0,376,377
 879 1483 879 1483 850 1493 c 128,-1,378
 821 1503 821 1503 793 1503 c 0,379,380
 776 1503 776 1503 758.5 1500 c 128,-1,381
 741 1497 741 1497 729 1497 c 0,382,383
 666 1497 666 1497 639 1548 c 1,384,385
 637 1548 637 1548 637 1544 c 256,386,387
 637 1540 637 1540 642 1521.5 c 128,-1,388
 647 1503 647 1503 647 1466 c 1,389,390
 639 1448 639 1448 635 1446 c 0,391,392
 633 1446 633 1446 629 1450 c 1,393,-1
 629 1489 l 2,394,395
 629 1530 629 1530 619.5 1553.5 c 128,-1,396
 610 1577 610 1577 610 1610 c 1,397,398
 614 1610 614 1610 616 1612 c 1,399,-1
 612 1647 l 2,400,401
 612 1649 612 1649 606 1655 c 1,402,403
 602 1653 602 1653 602 1653 c 2,404,405
 600 1653 600 1653 600 1651 c 1,406,-1
 602 1653 l 1,407,408
 598 1653 598 1653 586.5 1626 c 128,-1,409
 575 1599 575 1599 563 1567 c 0,410,411
 549 1530 549 1530 532 1479 c 1,412,413
 532 1452 532 1452 549.5 1432.5 c 128,-1,414
 567 1413 567 1413 567 1391 c 0,415,416
 567 1372 567 1372 563 1359 c 128,-1,417
 559 1346 559 1346 553 1335.5 c 128,-1,418
 547 1325 547 1325 543 1317 c 128,-1,419
 539 1309 539 1309 539 1296 c 0,420,421
 539 1284 539 1284 545 1259.5 c 128,-1,422
 551 1235 551 1235 561 1235 c 1,423,-1
 575 1237 l 1,424,-1
 575 1233 l 1,425,-1
 563 1231 l 1,426,-1
 571 1210 l 1,427,-1
 582 1206 l 1,428,-1
 713 1233 l 1,429,-1
 606 1231 l 1,430,431
 606 1233 606 1233 608 1235 c 1,432,-1
 604 1239 l 1,433,-1
 639 1243 l 1,434,435
 641 1245 641 1245 647 1245 c 2,436,-1
 707 1245 l 2,437,438
 723 1245 723 1245 743.5 1243 c 128,-1,439
 764 1241 764 1241 764 1233 c 0,440,441
 764 1231 764 1231 760 1231 c 2,442,-1
 766 1231 l 2,443,444
 776 1231 776 1231 782 1229 c 1,445,446
 782 1219 782 1219 778 1214 c 1,447,-1
 770 1214 l 1,448,449
 764 1202 764 1202 764 1200 c 1,450,-1
 766 1200 l 1,451,452
 754 1188 754 1188 733.5 1188 c 128,-1,453
 713 1188 713 1188 698 1182 c 1,454,455
 698 1178 698 1178 715.5 1174.5 c 128,-1,456
 733 1171 733 1171 750 1171 c 0,457,458
 778 1171 778 1171 802.5 1179.5 c 128,-1,459
 827 1188 827 1188 827 1204 c 0,460,461
 827 1214 827 1214 806.5 1230.5 c 128,-1,462
 786 1247 786 1247 782 1260 c 0,463,464
 782 1262 782 1262 783 1263 c 128,-1,465
 784 1264 784 1264 784 1266 c 256,466,467
 784 1268 784 1268 786 1268 c 1,468,-1
 786 1272 l 1,469,470
 807 1278 807 1278 850 1278 c 1,471,472
 885 1268 885 1268 887 1257 c 1,473,-1
 887 1253 l 1,474,-1
 842 1208 l 1,475,-1
 842 1196 l 1,476,477
 844 1188 844 1188 850 1188 c 1,478,-1
 872 1182 l 2,479,480
 883 1178 883 1178 892 1174.5 c 128,-1,481
 901 1171 901 1171 918 1171 c 0,482,483
 952 1171 952 1171 973 1186 c 1,484,-1
 874 1202 l 1,485,-1
 862 1214 l 1,486,487
 864 1227 864 1227 872 1229 c 1,488,489
 874 1227 874 1227 885 1227 c 0,490,491
 889 1227 889 1227 895 1227 c 128,-1,492
 901 1227 901 1227 911 1229 c 1,493,494
 958 1229 958 1229 1004.5 1224 c 128,-1,495
 1051 1219 1051 1219 1098 1217 c 1,496,497
 1108 1233 1108 1233 1121.5 1246.5 c 128,-1,498
 1135 1260 1135 1260 1135 1280 c 0,499,500
 1135 1294 1135 1294 1126.5 1310.5 c 128,-1,501
 1118 1327 1118 1327 1107 1343.5 c 128,-1,502
 1096 1360 1096 1360 1087.5 1376.5 c 128,-1,503
 1079 1393 1079 1393 1079 1405 c 0,504,505
 1079 1423 1079 1423 1091.5 1439.5 c 128,-1,506
 1104 1456 1104 1456 1104 1479 c 0,507,508
 1104 1516 1104 1516 1084.5 1550.5 c 128,-1,509
 1065 1585 1065 1585 1055 1620 c 0,350,351
-55 -12 m 1,510,-1
 -59 -12 l 2,511,512
 -57 -12 -57 -12 -57 -31 c 1,513,-1
 -49 -37 l 1,514,515
 -41 -33 -41 -33 -35 -27 c 1,516,-1
 -55 -12 l 1,510,-1
-76 2 m 1,517,-1
 -82 2 l 1,518,519
 -86 -2 -86 -2 -86 -16 c 0,520,521
 -86 -45 -86 -45 -55.5 -62.5 c 128,-1,522
 -25 -80 -25 -80 10 -80 c 2,523,-1
 20 -80 l 1,524,-1
 31 -70 l 1,525,526
 31 -51 31 -51 25 -47 c 1,527,-1
 6 -41 l 1,528,529
 -12 -41 -12 -41 -18 -39 c 1,530,-1
 -39 -45 l 1,531,532
 -39 -47 -39 -47 -40 -47 c 128,-1,533
 -41 -47 -41 -47 -41 -49 c 256,534,535
 -41 -51 -41 -51 -35 -51 c 2,536,-1
 -10 -47 l 1,537,-1
 6 -49 l 1,538,539
 10 -59 10 -59 10 -59 c 257,540,541
 10 -59 10 -59 12 -59 c 1,542,543
 6 -66 6 -66 -8 -70 c 1,544,545
 -37 -66 -37 -66 -55.5 -53.5 c 128,-1,546
 -74 -41 -74 -41 -74 -18 c 0,547,548
 -74 -8 -74 -8 -70 0 c 1,549,-1
 -72 2 l 1,550,-1
 -76 2 l 1,517,-1
-55 76 m 1,551,-1
 -57 78 l 1,552,553
 -59 78 -59 78 -66.5 67.5 c 128,-1,554
 -74 57 -74 57 -74 47 c 0,555,556
 -74 14 -74 14 -49.5 1 c 128,-1,557
 -25 -12 -25 -12 -16 -12 c 0,558,559
 -8 -12 -8 -12 -8 -6 c 0,560,561
 -8 -2 -8 -2 -16.5 10.5 c 128,-1,562
 -25 23 -25 23 -35 23 c 0,563,564
 -39 23 -39 23 -39 18 c 1,565,-1
 -29 12 l 1,566,-1
 -23 0 l 2,567,568
 -23 -2 -23 -2 -29 -2 c 1,569,570
 -39 2 -39 2 -53.5 14.5 c 128,-1,571
 -68 27 -68 27 -68 45 c 0,572,573
 -68 55 -68 55 -60.5 61.5 c 128,-1,574
 -53 68 -53 68 -53 72 c 0,575,576
 -53 74 -53 74 -54 74 c 128,-1,577
 -55 74 -55 74 -55 76 c 1,551,-1
-27 125 m 1,578,-1
 -35 121 l 1,579,-1
 -43 88 l 1,580,581
 -39 76 -39 76 -39 78 c 1,582,-1
 -29 63 l 1,583,584
 -25 55 -25 55 -23 49 c 1,585,-1
 -8 47 l 1,586,587
 -4 43 -4 43 -2 43 c 0,588,589
 2 43 2 43 4 44 c 128,-1,590
 6 45 6 45 10 45 c 1,591,592
 14 43 l 1,593,-1
 18 55 l 1,594,-1
 4 70 l 1,595,-1
 -18 76 l 1,596,-1
 6 55 l 1,597,-1
 6 51 l 1,598,599
 4 51 4 51 4 50 c 128,-1,600
 4 49 4 49 2 49 c 256,601,602
 0 49 0 49 0 52 c 128,-1,603
 0 55 0 55 -4 55 c 2,604,-1
 -10 55 l 1,605,606
 -23 57 -23 57 -35 98 c 1,607,-1
 -27 125 l 1,578,-1
-8 143 m 1,608,-1
 -10 143 l 1,609,610
 -10 141 -10 141 -11 141 c 128,-1,611
 -12 141 -12 141 -12 139 c 0,612,613
 -12 129 -12 129 6.5 114.5 c 128,-1,614
 25 100 25 100 45 100 c 1,615,616
 45 98 45 98 43 98 c 1,617,-1
 43 106 l 1,618,-1
 10 123 l 1,619,-1
 -8 143 l 1,608,-1
2 168 m 1,620,621
 0 166 0 166 0 162 c 1,622,623
 8 143 8 143 22.5 132 c 128,-1,624
 37 121 37 121 47 121 c 0,625,626
 53 121 53 121 55 123 c 1,627,-1
 14 147 l 1,628,-1
 2 168 l 1,620,621
76 184 m 1,629,-1
 76 178 l 1,630,631
 78 180 78 180 80 180 c 1,632,633
 74 182 74 182 74 184 c 1,634,-1
 76 184 l 1,629,-1
29 203 m 1,635,-1
 27 205 l 1,636,-1
 18 201 l 1,637,638
 16 197 16 197 16 186 c 0,639,640
 16 170 16 170 23.5 162 c 128,-1,641
 31 154 31 154 66 137 c 1,642,643
 72 139 72 139 80 139 c 1,644,-1
 51 154 l 1,645,646
 31 174 31 174 31 203 c 1,647,-1
 29 203 l 1,635,-1
154 258 m 1,648,649
 137 250 137 250 117.5 250 c 128,-1,650
 98 250 98 250 83 248 c 128,-1,651
 68 246 68 246 57.5 235.5 c 128,-1,652
 47 225 47 225 47 197 c 0,653,654
 47 186 47 186 54 173 c 128,-1,655
 61 160 61 160 72 154 c 1,656,-1
 96 145 l 1,657,-1
 106 147 l 1,658,659
 113 150 113 150 115 156 c 1,660,661
 115 184 115 184 102.5 198.5 c 128,-1,662
 90 213 90 213 78 217 c 1,663,664
 72 217 72 217 72 211 c 0,665,666
 72 207 72 207 82 200 c 128,-1,667
 92 193 92 193 102 176 c 1,668,669
 102 174 102 174 100 168 c 128,-1,670
 98 162 98 162 90 156 c 1,671,672
 84 156 84 156 76 164 c 2,673,-1
 66 174 l 1,674,-1
 61 174 l 2,675,676
 59 174 59 174 59 176 c 1,677,-1
 57 174 l 1,678,-1
 59 174 l 1,679,680
 53 182 53 182 53 197 c 0,681,682
 53 217 53 217 63.5 227.5 c 128,-1,683
 74 238 74 238 89 242 c 128,-1,684
 104 246 104 246 119.5 247 c 128,-1,685
 135 248 135 248 147 252 c 1,686,-1
 154 252 l 2,687,688
 160 252 160 252 160 256 c 2,689,-1
 160 258 l 1,690,-1
 154 258 l 1,648,649
844 260 m 2,691,-1
 799 258 l 1,692,693
 799 240 799 240 796 223.5 c 128,-1,694
 793 207 793 207 793 190 c 0,695,696
 793 166 793 166 805 154 c 1,697,-1
 838 158 l 1,698,699
 850 213 850 213 850 250 c 0,700,701
 850 260 850 260 844 260 c 2,691,-1
248 276 m 1,702,-1
 186 270 l 1,703,704
 176 266 176 266 176 256 c 0,705,706
 176 254 176 254 178 252 c 1,707,-1
 270 250 l 1,708,-1
 256 276 l 1,709,-1
 248 276 l 1,702,-1
629 299 m 1,710,-1
 627 299 l 1,711,712
 625 297 625 297 625 295 c 1,713,714
 627 295 627 295 627 294 c 128,-1,715
 627 293 627 293 629 293 c 1,716,-1
 629 295 l 1,717,718
 631 297 631 297 631 299 c 1,719,-1
 629 299 l 1,710,-1
596 309 m 2,720,-1
 592 311 l 1,721,-1
 588 303 l 1,722,-1
 588 305 l 2,723,724
 588 301 588 301 592 300 c 128,-1,725
 596 299 596 299 598 299 c 256,726,727
 600 299 600 299 602 301 c 1,728,729
 600 303 600 303 599 305 c 128,-1,730
 598 307 598 307 596 309 c 2,720,-1
1030 324 m 1,731,732
 1016 322 1016 322 1016 311 c 1,733,-1
 1020 311 l 2,734,735
 1026 311 1026 311 1036 322 c 1,736,737
 1030 322 1030 322 1030 324 c 1,731,732
535 467 m 1,738,-1
 528 459 l 2,739,740
 526 457 526 457 522 457 c 2,741,-1
 514 457 l 2,742,743
 510 457 510 457 510 455 c 1,744,-1
 561 440 l 1,745,-1
 535 467 l 1,738,-1
1382 469 m 1,746,-1
 1380 440 l 1,747,748
 1343 428 1343 428 1307.5 419 c 128,-1,749
 1272 410 1272 410 1241 402.5 c 128,-1,750
 1210 395 1210 395 1189.5 391 c 128,-1,751
 1169 387 1169 387 1165 385 c 1,752,753
 1153 383 1153 383 1144 382 c 128,-1,754
 1135 381 1135 381 1124 381 c 0,755,756
 1106 381 1106 381 1102 383 c 1,757,758
 1100 381 1100 381 1100 379 c 2,759,-1
 1128 319 l 1,760,761
 1124 315 1124 315 1122 315 c 256,762,763
 1120 315 1120 315 1116 319 c 1,764,-1
 1110 330 l 2,765,766
 1108 332 1108 332 1106 332 c 1,767,768
 1085 317 1085 317 1055.5 303 c 128,-1,769
 1026 289 1026 289 1004 287 c 1,770,771
 991 262 991 262 990 235.5 c 128,-1,772
 989 209 989 209 987 184 c 1,773,774
 991 172 991 172 1001 170 c 1,775,776
 1120 193 1120 193 1183.5 209 c 128,-1,777
 1247 225 1247 225 1281 242.5 c 128,-1,778
 1315 260 1315 260 1333.5 284.5 c 128,-1,779
 1352 309 1352 309 1380 348 c 1,780,781
 1393 381 1393 381 1393 414 c 0,782,783
 1393 438 1393 438 1382 469 c 1,746,-1
516 481 m 2,784,-1
 514 483 l 1,785,786
 508 471 508 471 508 469 c 1,787,-1
 512 469 l 1,788,789
 520 471 520 471 522 477 c 1,790,791
 520 477 520 477 516 481 c 2,784,-1
279 485 m 1,792,-1
 276 485 l 1,793,794
 264 444 264 444 264 412 c 0,795,796
 264 399 264 399 267 370.5 c 128,-1,797
 270 342 270 342 275.5 312.5 c 128,-1,798
 281 283 281 283 287 261.5 c 128,-1,799
 293 240 293 240 299 240 c 1,800,801
 403 205 403 205 495.5 182.5 c 128,-1,802
 588 160 588 160 649 160 c 0,803,804
 672 160 672 160 678 162 c 1,805,806
 678 170 678 170 677 186.5 c 128,-1,807
 676 203 676 203 674 219.5 c 128,-1,808
 672 236 672 236 667 251 c 128,-1,809
 662 266 662 266 655 272 c 1,810,811
 643 268 643 268 635 268 c 2,812,-1
 608 268 l 1,813,-1
 594 268 l 2,814,815
 559 268 559 268 551 256 c 128,-1,816
 543 244 543 244 532 233 c 1,817,818
 526 236 526 236 520 236 c 2,819,-1
 518 236 l 1,820,-1
 518 240 l 1,821,-1
 575 358 l 1,822,823
 535 373 535 373 501 381 c 128,-1,824
 467 389 467 389 433 401.5 c 128,-1,825
 399 414 399 414 362.5 432.5 c 128,-1,826
 326 451 326 451 281 485 c 1,827,-1
 279 485 l 1,792,-1
494 500 m 1,828,-1
 483 485 l 1,829,830
 483 481 483 481 484 479 c 128,-1,831
 485 477 485 477 485 475 c 2,832,-1
 485 471 l 1,833,834
 481 461 481 461 479 461 c 1,835,-1
 479 467 l 1,836,837
 489 459 489 459 496 459 c 0,838,839
 500 459 500 459 500 471 c 1,840,-1
 492 483 l 1,841,-1
 500 496 l 1,842,843
 498 498 498 498 497 498 c 128,-1,844
 496 498 496 498 494 500 c 1,828,-1
1221 510 m 1,845,846
 1217 510 1217 510 1215.5 507 c 128,-1,847
 1214 504 1214 504 1210 504 c 256,848,849
 1206 504 1206 504 1206 507 c 128,-1,850
 1206 510 1206 510 1204 510 c 1,851,852
 1198 504 1198 504 1198 500 c 256,853,854
 1198 496 1198 496 1202 496 c 1,855,-1
 1227 506 l 1,856,857
 1223 510 1223 510 1222 508 c 128,-1,858
 1221 506 1221 506 1221 510 c 1,845,846
1171 522 m 1,859,-1
 1151 512 l 1,860,-1
 1100 475 l 1,861,862
 1104 471 1104 471 1108 471 c 0,863,864
 1122 471 1122 471 1149 478 c 128,-1,865
 1176 485 1176 485 1190 496 c 1,866,-1
 1184 502 l 1,867,-1
 1176 498 l 1,868,-1
 1167 508 l 1,869,-1
 1176 522 l 1,870,-1
 1171 522 l 1,859,-1
444 528 m 1,871,-1
 442 522 l 1,872,873
 436 516 436 516 430 514 c 1,874,875
 430 512 430 512 431 509 c 128,-1,876
 432 506 432 506 432 504 c 1,877,-1
 422 494 l 1,878,-1
 471 469 l 1,879,-1
 467 477 l 1,880,881
 467 487 467 487 469 486 c 128,-1,882
 471 485 471 485 475 489 c 1,883,-1
 475 512 l 1,884,-1
 469 512 l 1,885,886
 469 502 469 502 459 502 c 1,887,-1
 459 487 l 1,888,-1
 451 483 l 1,889,890
 440 487 440 487 440 492 c 1,891,892
 442 492 442 492 442 494 c 256,893,894
 442 496 442 496 444 500 c 1,895,-1
 449 504 l 1,896,-1
 449 512 l 2,897,898
 449 526 449 526 451 526 c 256,899,900
 453 526 453 526 453 524 c 1,901,-1
 444 528 l 1,871,-1
1329 532 m 1,902,-1
 1313 522 l 1,903,904
 1303 520 1303 520 1291.5 513 c 128,-1,905
 1280 506 1280 506 1258.5 496.5 c 128,-1,906
 1237 487 1237 487 1201 477 c 128,-1,907
 1165 467 1165 467 1108 455 c 1,908,909
 1106 457 1106 457 1100 457 c 1,910,911
 1094 453 1094 453 1094 451 c 2,912,-1
 1094 422 l 2,913,914
 1094 403 1094 403 1102 400 c 128,-1,915
 1110 397 1110 397 1122 397 c 0,916,917
 1147 397 1147 397 1180.5 403.5 c 128,-1,918
 1214 410 1214 410 1249 421 c 128,-1,919
 1284 432 1284 432 1315 448.5 c 128,-1,920
 1346 465 1346 465 1366 485 c 1,921,-1
 1366 492 l 1,922,923
 1350 518 1350 518 1329 532 c 1,902,-1
420 541 m 1,924,-1
 416 543 l 1,925,-1
 414 532 l 1,926,-1
 403 526 l 1,927,928
 399 512 399 512 397 510 c 1,929,-1
 406 502 l 1,930,931
 406 496 406 496 408 496 c 1,932,933
 408 498 408 498 410 500 c 1,934,-1
 424 539 l 2,935,936
 424 541 424 541 420 541 c 1,924,-1
328 543 m 1,937,-1
 297 520 l 1,938,-1
 291 510 l 1,939,940
 287 506 287 506 287 504 c 1,941,-1
 328 469 l 1,942,943
 344 465 344 465 367.5 451.5 c 128,-1,944
 391 438 391 438 422 424 c 128,-1,945
 453 410 453 410 491.5 396.5 c 128,-1,946
 530 383 530 383 578 379 c 1,947,-1
 582 397 l 2,948,949
 582 399 582 399 584 401 c 1,950,951
 584 412 584 412 575 420 c 1,952,-1
 535 426 l 1,953,-1
 522 434 l 1,954,955
 481 440 481 440 455.5 457.5 c 128,-1,956
 430 475 430 475 410 479 c 1,957,958
 389 492 389 492 368.5 502 c 128,-1,959
 348 512 348 512 334 530 c 1,960,-1
 332 541 l 1,961,962
 330 543 330 543 328 543 c 1,937,-1
377 545 m 1,963,-1
 383 545 l 2,964,965
 385 545 385 545 385 537 c 0,966,967
 385 532 385 532 377 532 c 0,968,969
 371 532 371 532 371 539 c 1,970,-1
 375 545 l 1,971,-1
 377 545 l 1,963,-1
1270 547 m 1,972,-1
 1235 545 l 1,973,974
 1231 532 1231 532 1227 532 c 1,975,-1
 1227 537 l 2,976,977
 1227 532 1227 532 1228 530 c 128,-1,978
 1229 528 1229 528 1229 526 c 256,979,980
 1229 524 1229 524 1227 524 c 1,981,-1
 1235 535 l 1,982,983
 1235 537 1235 537 1237 537 c 2,984,-1
 1243 537 l 1,985,986
 1245 535 1245 535 1245 528 c 0,987,988
 1245 522 1245 522 1240 518 c 128,-1,989
 1235 514 1235 514 1235 510 c 2,990,-1
 1235 512 l 1,991,992
 1237 512 1237 512 1239 511 c 128,-1,993
 1241 510 1241 510 1245 510 c 1,994,995
 1262 518 1262 518 1282.5 526.5 c 128,-1,996
 1303 535 1303 535 1315 547 c 1,997,-1
 1270 547 l 1,972,-1
358 555 m 1,998,999
 348 551 348 551 347 550 c 128,-1,1000
 346 549 346 549 346 545 c 256,1001,1002
 346 541 346 541 350 537 c 2,1003,-1
 373 520 l 1,1004,1005
 377 520 377 520 378 517 c 128,-1,1006
 379 514 379 514 383 514 c 2,1007,-1
 385 514 l 1,1008,1009
 385 516 385 516 384 516 c 128,-1,1010
 383 516 383 516 383 518 c 0,1011,1012
 383 526 383 526 389 537 c 2,1013,-1
 395 549 l 1,1014,1015
 397 549 397 549 399 547 c 1,1016,-1
 358 555 l 1,998,999
1071 643 m 1,1017,-1
 1014 338 l 1,1018,-1
 1047 338 l 1,1019,-1
 1057 344 l 1,1020,-1
 1085 348 l 1,1021,1022
 1085 360 1085 360 1076 369.5 c 128,-1,1023
 1067 379 1067 379 1067 406 c 0,1024,1025
 1067 438 1067 438 1072 456.5 c 128,-1,1026
 1077 475 1077 475 1084.5 485.5 c 128,-1,1027
 1092 496 1092 496 1103 503 c 128,-1,1028
 1114 510 1114 510 1126 520 c 1,1029,-1
 1114 553 l 1,1030,-1
 1071 643 l 1,1017,-1
575 670 m 1,1031,-1
 571 670 l 1,1032,1033
 559 657 559 657 548 636.5 c 128,-1,1034
 537 616 537 616 527.5 594.5 c 128,-1,1035
 518 573 518 573 513 552.5 c 128,-1,1036
 508 532 508 532 508 522 c 0,1037,1038
 508 510 508 510 523.5 496.5 c 128,-1,1039
 539 483 539 483 557 466 c 128,-1,1040
 575 449 575 449 590.5 426 c 128,-1,1041
 606 403 606 403 606 375 c 0,1042,1043
 606 346 606 346 598 328 c 1,1044,1045
 600 319 600 319 608 319 c 2,1046,-1
 653 317 l 1,1047,1048
 637 365 637 365 631 416 c 128,-1,1049
 625 467 625 467 614 492 c 1,1050,1051
 598 524 598 524 590 568 c 128,-1,1052
 582 612 582 612 575 670 c 1,1031,-1
999 1133 m 1,1053,1054
 987 1120 987 1120 939 1106 c 128,-1,1055
 891 1092 891 1092 844 1081 c 1,1056,1057
 827 1085 827 1085 813 1085 c 128,-1,1058
 799 1085 799 1085 782 1092 c 1,1059,1060
 752 1094 752 1094 723 1106 c 128,-1,1061
 694 1118 694 1118 672 1126 c 1,1062,-1
 672 1112 l 2,1063,1064
 672 1090 672 1090 662.5 1066 c 128,-1,1065
 653 1042 653 1042 647 1022 c 1,1066,1067
 625 963 625 963 617.5 906.5 c 128,-1,1068
 610 850 610 850 610 791 c 0,1069,1070
 610 713 610 713 620.5 636 c 128,-1,1071
 631 559 631 559 645 481 c 1,1072,1073
 670 395 670 395 677 315.5 c 128,-1,1074
 684 236 684 236 696 154 c 1,1075,1076
 694 147 694 147 688 143 c 128,-1,1077
 682 139 682 139 680 135 c 1,1078,-1
 678 119 l 2,1079,1080
 678 117 678 117 682 117 c 1,1081,-1
 684 119 l 2,1082,1083
 686 121 686 121 688 121 c 1,1084,1085
 690 119 690 119 691 117 c 128,-1,1086
 692 115 692 115 694 113 c 1,1087,-1
 690 98 l 1,1088,-1
 696 98 l 1,1089,-1
 711 152 l 1,1090,-1
 719 156 l 1,1091,1092
 723 152 723 152 725 153 c 128,-1,1093
 727 154 727 154 727 147 c 0,1094,1095
 727 137 727 137 723 126 c 128,-1,1096
 719 115 719 115 719 106 c 0,1097,1098
 719 92 719 92 723 88 c 1,1099,1100
 723 100 723 100 727 100 c 1,1101,1102
 735 96 735 96 736 90 c 128,-1,1103
 737 84 737 84 739 84 c 0,1104,1105
 745 84 745 84 750 88 c 1,1106,1107
 748 98 748 98 741.5 108.5 c 128,-1,1108
 735 119 735 119 735 129 c 0,1109,1110
 735 131 735 131 736 136 c 128,-1,1111
 737 141 737 141 741 141 c 256,1112,1113
 745 141 745 141 753.5 119.5 c 128,-1,1114
 762 98 762 98 772 94 c 0,1115,1116
 774 94 774 94 775 95 c 128,-1,1117
 776 96 776 96 778 96 c 1,1118,-1
 778 94 l 1,1119,-1
 772 121 l 1,1120,1121
 774 123 774 123 778 123 c 1,1122,1123
 778 121 778 121 788 111 c 1,1124,1125
 791 111 791 111 791 108.5 c 128,-1,1126
 791 106 791 106 793 106 c 1,1127,-1
 791 111 l 2,1128,1129
 791 113 791 113 794 119 c 128,-1,1130
 797 125 797 125 797 135 c 0,1131,1132
 797 143 797 143 786 154 c 1,1133,-1
 784 154 l 2,1134,1135
 782 154 782 154 780 156 c 2,1136,-1
 768 166 l 1,1137,1138
 764 174 764 174 764 190 c 0,1139,1140
 764 248 764 248 777.5 313.5 c 128,-1,1141
 791 379 791 379 791 451 c 0,1142,1143
 791 510 791 510 785.5 567.5 c 128,-1,1144
 780 625 780 625 776 678 c 0,1145,1146
 776 680 776 680 778 684 c 128,-1,1147
 780 688 780 688 784 688 c 0,1148,1149
 793 688 793 688 801 660.5 c 128,-1,1150
 809 633 809 633 814 596 c 128,-1,1151
 819 559 819 559 822 522 c 128,-1,1152
 825 485 825 485 825 469 c 0,1153,1154
 825 422 825 422 818 375 c 128,-1,1155
 811 328 811 328 801 281 c 1,1156,1157
 817 276 817 276 821 276 c 0,1158,1159
 838 276 838 276 854 287 c 1,1160,-1
 856 317 l 2,1161,1162
 858 338 858 338 859 356.5 c 128,-1,1163
 860 375 860 375 860 393 c 0,1164,1165
 860 422 860 422 859 451.5 c 128,-1,1166
 858 481 858 481 858 510 c 0,1167,1168
 858 528 858 528 862 558 c 128,-1,1169
 866 588 866 588 872.5 617.5 c 128,-1,1170
 879 647 879 647 885 668.5 c 128,-1,1171
 891 690 891 690 897 690 c 1,1172,1173
 901 686 901 686 901 678 c 0,1174,1175
 901 666 901 666 895 647 c 1,1176,1177
 889 602 889 602 887 558 c 128,-1,1178
 885 514 885 514 885 467 c 0,1179,1180
 885 426 885 426 886 383 c 128,-1,1181
 887 340 887 340 887 299 c 0,1182,1183
 887 250 887 250 879.5 225.5 c 128,-1,1184
 872 201 872 201 868 170 c 1,1185,1186
 877 150 877 150 873.5 134.5 c 128,-1,1187
 870 119 870 119 887 102 c 1,1188,-1
 891 102 l 1,1189,-1
 893 127 l 1,1190,-1
 901 131 l 1,1191,-1
 909 117 l 1,1192,-1
 913 117 l 1,1193,1194
 918 121 918 121 918 129 c 256,1195,1196
 918 137 918 137 907 164 c 0,1197,1198
 907 166 907 166 911 170 c 1,1199,1200
 922 170 922 170 928 153.5 c 128,-1,1201
 934 137 934 137 934 129 c 0,1202,1203
 934 119 934 119 928 110.5 c 128,-1,1204
 922 102 922 102 922 96 c 1,1205,-1
 938 98 l 1,1206,1207
 942 102 942 102 942 106 c 2,1208,-1
 942 111 l 1,1209,-1
 940 109 l 1,1210,-1
 948 113 l 1,1211,1212
 950 111 950 111 956 111 c 1,1213,1214
 967 121 967 121 967 133 c 0,1215,1216
 967 154 967 154 956.5 156 c 128,-1,1217
 946 158 946 158 946 168 c 0,1218,1219
 946 174 946 174 950 174 c 1,1220,1221
 958 170 958 170 962.5 168 c 128,-1,1222
 967 166 967 166 969 164 c 1,1223,-1
 983 127 l 1,1224,-1
 991 125 l 1,1225,1226
 995 137 995 137 995 137 c 1,1227,1228
 995 147 995 147 985 164 c 1,1229,-1
 958 174 l 1,1230,1231
 952 193 952 193 952 211 c 0,1232,1233
 952 240 952 240 960.5 268.5 c 128,-1,1234
 969 297 969 297 979 326 c 1,1235,1236
 1040 543 1040 543 1040 752 c 0,1237,1238
 1040 829 1040 829 1032 906 c 128,-1,1239
 1024 983 1024 983 1008 1055 c 1,1240,1241
 999 1071 999 1071 999 1133 c 1,1053,1054
831 1174 m 1,1242,1243
 815 1167 815 1167 811 1163 c 1,1244,-1
 842 1167 l 1,1245,-1
 834 1174 l 1,1246,-1
 831 1174 l 1,1242,1243
666 1176 m 1,1247,-1
 637 1174 l 1,1248,1249
 635 1169 635 1169 635 1165 c 256,1250,1251
 635 1161 635 1161 661.5 1151 c 128,-1,1252
 688 1141 688 1141 723 1131.5 c 128,-1,1253
 758 1122 758 1122 792.5 1115 c 128,-1,1254
 827 1108 827 1108 844 1108 c 2,1255,-1
 856 1108 l 2,1256,1257
 897 1108 897 1108 936 1125.5 c 128,-1,1258
 975 1143 975 1143 993 1155 c 1,1259,-1
 1020 1171 l 1,1260,1261
 1016 1174 1016 1174 1013 1172.5 c 128,-1,1262
 1010 1171 1010 1171 1006 1176 c 1,1263,1264
 979 1171 979 1171 955.5 1160 c 128,-1,1265
 932 1149 932 1149 907 1149 c 0,1266,1267
 895 1149 895 1149 886 1153 c 128,-1,1268
 877 1157 877 1157 872 1157 c 0,1269,1270
 862 1157 862 1157 849 1149 c 128,-1,1271
 836 1141 836 1141 819 1141 c 0,1272,1273
 799 1141 799 1141 784 1153 c 1,1274,1275
 772 1149 772 1149 756 1149 c 0,1276,1277
 731 1149 731 1149 708.5 1157 c 128,-1,1278
 686 1165 686 1165 666 1176 c 1,1247,-1
1178 1198 m 2,1279,-1
 1243 1188 l 1,1280,-1
 1174 1194 l 1,1281,1282
 1171 1196 1171 1196 1171 1200 c 0,1283,1284
 1171 1202 1171 1202 1169 1202 c 1,1285,1286
 1169 1200 1169 1200 1171 1200 c 0,1287,1288
 1174 1200 1174 1200 1174 1199 c 128,-1,1289
 1174 1198 1174 1198 1178 1198 c 2,1279,-1
719 1214 m 1,1290,1291
 705 1210 705 1210 683.5 1208 c 128,-1,1292
 662 1206 662 1206 641.5 1204 c 128,-1,1293
 621 1202 621 1202 606.5 1200 c 128,-1,1294
 592 1198 592 1198 590 1192 c 1,1295,-1
 604 1180 l 1,1296,-1
 612 1178 l 1,1297,-1
 737 1212 l 1,1298,-1
 719 1214 l 1,1290,1291
586 1239 m 1,1299,-1
 598 1237 l 1,1300,-1
 598 1233 l 1,1301,-1
 582 1237 l 1,1302,-1
 586 1239 l 1,1299,-1
829 1264 m 1,1303,-1
 799 1257 l 1,1304,1305
 799 1255 799 1255 801 1255 c 2,1306,-1
 827 1247 l 2,1307,1308
 829 1247 829 1247 829 1248 c 128,-1,1309
 829 1249 829 1249 831 1249 c 0,1310,1311
 834 1249 834 1249 834 1248 c 128,-1,1312
 834 1247 834 1247 836 1247 c 1,1313,-1
 844 1229 l 1,1314,1315
 848 1245 848 1245 851 1248 c 128,-1,1316
 854 1251 854 1251 862 1251 c 2,1317,-1
 866 1251 l 1,1318,1319
 866 1253 866 1253 867 1253 c 128,-1,1320
 868 1253 868 1253 868 1255 c 2,1321,-1
 868 1257 l 1,1322,-1
 829 1264 l 1,1303,-1
700 1354 m 2,1323,1324
 727 1356 727 1356 757.5 1336.5 c 128,-1,1325
 788 1317 788 1317 788 1286 c 0,1326,1327
 788 1272 788 1272 782 1272 c 0,1328,1329
 778 1272 778 1272 776 1277 c 128,-1,1330
 774 1282 774 1282 768 1282 c 1,1331,1332
 758 1278 758 1278 751.5 1275 c 128,-1,1333
 745 1272 745 1272 735 1272 c 0,1334,1335
 702 1272 702 1272 676 1298 c 1,1336,-1
 655 1333 l 1,1337,-1
 639 1339 l 2,1338,1339
 637 1339 637 1339 637 1343 c 2,1340,-1
 637 1346 l 2,1341,1342
 637 1348 637 1348 639 1350 c 1,1343,-1
 700 1354 l 2,1323,1324
768 1470 m 1,1344,-1
 741 1380 l 1,1345,-1
 729 1380 l 2,1346,1347
 727 1380 727 1380 727 1382 c 1,1348,-1
 715 1382 l 2,1349,1350
 713 1382 713 1382 711 1384 c 1,1351,-1
 698 1464 l 1,1352,1353
 702 1458 702 1458 706.5 1448 c 128,-1,1354
 711 1438 711 1438 714 1426.5 c 128,-1,1355
 717 1415 717 1415 720 1407 c 128,-1,1356
 723 1399 723 1399 723 1399 c 1,1357,1358
 725 1399 725 1399 726 1418.5 c 128,-1,1359
 727 1438 727 1438 731 1450 c 1,1360,-1
 737 1407 l 1,1361,-1
 766 1470 l 1,1362,-1
 768 1470 l 1,1344,-1
1018 1366 m 1,1363,-1
 1026 1364 l 1,1364,-1
 1026 1356 l 2,1365,1366
 1026 1352 1026 1352 1018 1350 c 1,1367,1368
 983 1276 983 1276 944 1276 c 0,1369,1370
 934 1276 934 1276 924.5 1279 c 128,-1,1371
 915 1282 915 1282 905 1284 c 0,1372,1373
 901 1284 901 1284 901 1277 c 128,-1,1374
 901 1270 901 1270 897 1270 c 0,1375,1376
 885 1270 885 1270 885 1286 c 0,1377,1378
 885 1309 885 1309 907.5 1330.5 c 128,-1,1379
 930 1352 930 1352 963 1362 c 1,1380,1381
 969 1362 969 1362 976 1361 c 128,-1,1382
 983 1360 983 1360 989 1360 c 0,1383,1384
 1001 1360 1001 1360 1018 1366 c 1,1363,-1
989 1436 m 1,1385,-1
 975 1393 l 1,1386,1387
 971 1389 971 1389 969 1391 c 128,-1,1388
 967 1393 967 1393 967 1389 c 1,1389,-1
 987 1436 l 1,1390,-1
 989 1436 l 1,1385,-1
952 1444 m 1,1391,-1
 952 1393 l 1,1392,1393
 948 1389 948 1389 945 1391 c 128,-1,1394
 942 1393 942 1393 942 1389 c 2,1395,-1
 942 1386 l 1,1396,1397
 946 1389 l 1,1398,-1
 946 1386 l 1,1399,1400
 942 1395 l 1,1401,-1
 950 1444 l 1,1402,-1
 952 1444 l 1,1391,-1
924 1448 m 1,1403,-1
 936 1386 l 2,1404,1405
 936 1382 936 1382 930 1382 c 1,1406,1407
 922 1399 922 1399 922 1415.5 c 128,-1,1408
 922 1432 922 1432 922 1448 c 1,1409,-1
 924 1448 l 1,1403,-1
682 1333 m 1,1410,-1
 680 1331 l 1,1411,1412
 680 1319 680 1319 698 1300 c 1,1413,-1
 719 1292 l 1,1414,1415
 719 1296 719 1296 718 1298 c 128,-1,1416
 717 1300 717 1300 717 1305 c 0,1417,1418
 717 1321 717 1321 725 1329 c 1,1419,-1
 682 1333 l 1,1410,-1
1366 1571 m 1,1420,1421
 1337 1561 1337 1561 1327 1545.5 c 128,-1,1422
 1317 1530 1317 1530 1317 1505 c 0,1423,1424
 1317 1491 1317 1491 1323 1473 c 1,1425,1426
 1376 1370 1376 1370 1376 1262 c 0,1427,1428
 1376 1194 1376 1194 1355.5 1128.5 c 128,-1,1429
 1335 1063 1335 1063 1303.5 1002.5 c 128,-1,1430
 1272 942 1272 942 1234 886.5 c 128,-1,1431
 1196 831 1196 831 1163 786 c 1,1432,1433
 1147 754 1147 754 1126.5 724 c 128,-1,1434
 1106 694 1106 694 1098 653 c 1,1435,1436
 1100 647 1100 647 1106 629.5 c 128,-1,1437
 1112 612 1112 612 1120 593.5 c 128,-1,1438
 1128 575 1128 575 1135.5 561 c 128,-1,1439
 1143 547 1143 547 1147 547 c 1,1440,-1
 1149 549 l 1,1441,1442
 1155 592 1155 592 1175.5 624.5 c 128,-1,1443
 1196 657 1196 657 1212 696 c 1,1444,1445
 1237 739 1237 739 1265.5 789.5 c 128,-1,1446
 1294 840 1294 840 1331 895 c 0,1447,1448
 1389 981 1389 981 1429.5 1080.5 c 128,-1,1449
 1470 1180 1470 1180 1470 1315 c 0,1450,1451
 1470 1341 1470 1341 1467 1373 c 128,-1,1452
 1464 1405 1464 1405 1458 1436.5 c 128,-1,1453
 1452 1468 1452 1468 1441 1497 c 128,-1,1454
 1430 1526 1430 1526 1411 1546 c 2,1455,-1
 1403 1554 l 2,1456,1457
 1401 1556 1401 1556 1401 1559 c 1,1458,1459
 1401 1556 1401 1556 1403 1554 c 1,1460,1461
 1386 1571 1386 1571 1370 1571 c 2,1462,-1
 1366 1571 l 1,1420,1421
739 1325 m 1,1463,-1
 737 1325 l 1,1464,1465
 739 1323 739 1323 739 1315 c 256,1466,1467
 739 1307 739 1307 735 1299.5 c 128,-1,1468
 731 1292 731 1292 731 1286 c 1,1469,1470
 735 1286 735 1286 736 1285 c 128,-1,1471
 737 1284 737 1284 741 1284 c 0,1472,1473
 752 1284 752 1284 766 1292 c 1,1474,1475
 764 1296 764 1296 757 1303.5 c 128,-1,1476
 750 1311 750 1311 739 1325 c 1,1463,-1
938 1331 m 1,1477,1478
 922 1323 922 1323 917.5 1310.5 c 128,-1,1479
 913 1298 913 1298 913 1296 c 1,1480,-1
 932 1288 l 1,1481,1482
 936 1288 936 1288 937 1289 c 128,-1,1483
 938 1290 938 1290 940 1290 c 2,1484,-1
 944 1290 l 1,1485,1486
 936 1305 936 1305 936 1319 c 0,1487,1488
 936 1329 936 1329 938 1331 c 1,1477,1478
967 1346 m 1,1489,1490
 963 1341 963 1341 958.5 1341 c 128,-1,1491
 954 1341 954 1341 952 1339 c 2,1492,-1
 948 1337 l 1,1493,1494
 948 1333 948 1333 954 1331 c 1,1495,-1
 958 1292 l 1,1496,1497
 977 1305 977 1305 985 1320 c 128,-1,1498
 993 1335 993 1335 995 1346 c 1,1499,-1
 967 1346 l 1,1489,1490
991 1196 m 1,1500,-1
 1036 1180 l 1,1501,1502
 1049 1182 1049 1182 1049 1188 c 1,1503,-1
 991 1196 l 1,1500,-1
1030 1208 m 1,1504,-1
 1069 1196 l 1,1505,-1
 1071 1198 l 1,1506,1507
 1073 1198 1073 1198 1073 1199 c 128,-1,1508
 1073 1200 1073 1200 1075 1200 c 1,1509,1510
 1075 1204 1075 1204 1073 1206 c 1,1511,-1
 1030 1208 l 1,1504,-1
EndSplineSet
EndChar

StartChar: ring
Encoding: 730 730 4
Width: 943
Flags: W
HStem: 1100 62<424.082 536.099> 1484 67<423.523 536.67>
VStem: 244 164<1202.22 1446.04> 553 164<1202.22 1446.04>
LayerCount: 2
Fore
SplineSet
480 1551 m 256,0,1
 578 1551 578 1551 647.5 1485 c 128,-1,2
 717 1419 717 1419 717 1326 c 0,3,4
 717 1232 717 1232 647.5 1166 c 128,-1,5
 578 1100 578 1100 480 1100 c 256,6,7
 382 1100 382 1100 313 1166 c 128,-1,8
 244 1232 244 1232 244 1326 c 0,9,10
 244 1419 244 1419 313 1485 c 128,-1,11
 382 1551 382 1551 480 1551 c 256,0,1
480 1484 m 256,12,13
 428 1484 428 1484 418 1436.5 c 128,-1,14
 408 1389 408 1389 408 1323 c 0,15,16
 408 1256 408 1256 418 1209 c 128,-1,17
 428 1162 428 1162 480 1162 c 256,18,19
 532 1162 532 1162 542.5 1209 c 128,-1,20
 553 1256 553 1256 553 1323 c 0,21,22
 553 1389 553 1389 542.5 1436.5 c 128,-1,23
 532 1484 532 1484 480 1484 c 256,12,13
EndSplineSet
EndChar

StartChar: exclam
Encoding: 33 33 6
Width: 476
Flags: W
VStem: 222 32<491.391 659.211>
LayerCount: 2
Fore
SplineSet
93 159 m 0,0,1
 171 209 171 209 224 291 c 0,2,3
 240 315 240 315 253 291 c 0,4,5
 300 202 300 202 384 159 c 0,6,7
 412 145 412 145 384 131 c 0,8,9
 296 88 296 88 253 0 c 0,10,11
 238 -29 238 -29 224 0 c 1,12,13
 181 80 181 80 93 131 c 1,14,15
 69 143 69 143 93 159 c 0,0,1
76 1306 m 0,16,17
 163 1361 163 1361 222 1453 c 0,18,19
 239 1479 239 1479 254 1453 c 1,20,21
 306 1353 306 1353 400 1306 c 0,22,23
 431 1290 431 1290 400 1274 c 1,24,25
 302 1083 302 1083 254 507 c 1,26,27
 237 475 237 475 222 507 c 1,28,29
 174 1074 174 1074 76 1274 c 1,30,31
 49 1288 49 1288 76 1306 c 0,16,17
EndSplineSet
EndChar

StartChar: quotedbl
Encoding: 34 34 7
Width: 825
Flags: W
LayerCount: 2
Fore
SplineSet
459 1304 m 0,0,1
 537 1354 537 1354 590 1436 c 0,2,3
 606 1460 606 1460 619 1436 c 0,4,5
 666 1347 666 1347 750 1304 c 0,6,7
 758 1300 758 1300 758 1290 c 0,8,9
 758 1206 758 1206 699 1093 c 128,-1,10
 640 980 640 980 585 907 c 1,11,12
 576 897 576 897 565 902 c 1,13,14
 550 911 550 911 556 921 c 0,15,16
 617 1015 617 1015 605.5 1112.5 c 128,-1,17
 594 1210 594 1210 459 1276 c 1,18,19
 432 1286 432 1286 459 1304 c 0,0,1
76 1304 m 0,20,21
 154 1354 154 1354 207 1436 c 0,22,23
 223 1460 223 1460 236 1436 c 0,24,25
 283 1347 283 1347 367 1304 c 0,26,27
 375 1300 375 1300 375 1290 c 0,28,29
 375 1206 375 1206 316 1093 c 128,-1,30
 257 980 257 980 202 907 c 1,31,32
 193 897 193 897 182 902 c 1,33,34
 167 911 167 911 173 921 c 0,35,36
 234 1015 234 1015 222.5 1112.5 c 128,-1,37
 211 1210 211 1210 76 1276 c 1,38,39
 49 1286 49 1286 76 1304 c 0,20,21
EndSplineSet
EndChar

StartChar: numbersign
Encoding: 35 35 8
Width: 1055
Flags: W
HStem: 457 157<66 255 422 589 753 929> 873 157<125 307 473 641 805 982>
LayerCount: 2
Fore
SplineSet
929 457 m 1,0,-1
 739 457 l 1,1,-1
 693 144 l 1,2,-1
 544 144 l 1,3,-1
 589 457 l 1,4,-1
 406 457 l 1,5,-1
 361 144 l 1,6,-1
 210 144 l 1,7,-1
 255 457 l 1,8,-1
 66 457 l 1,9,-1
 66 614 l 1,10,-1
 270 614 l 1,11,-1
 307 873 l 1,12,-1
 125 873 l 1,13,-1
 125 1030 l 1,14,-1
 322 1030 l 1,15,-1
 355 1311 l 1,16,-1
 506 1311 l 1,17,-1
 473 1030 l 1,18,-1
 656 1030 l 1,19,-1
 688 1311 l 1,20,-1
 837 1311 l 1,21,-1
 805 1030 l 1,22,-1
 982 1030 l 1,23,-1
 982 873 l 1,24,-1
 790 873 l 1,25,-1
 753 614 l 1,26,-1
 929 614 l 1,27,-1
 929 457 l 1,0,-1
459 873 m 1,28,-1
 422 614 l 1,29,-1
 605 614 l 1,30,-1
 641 873 l 1,31,-1
 459 873 l 1,28,-1
EndSplineSet
EndChar

StartChar: dollar
Encoding: 36 36 9
Width: 858
Flags: W
VStem: 72 137<295.751 512.768> 107 151<1000.77 1202.63> 392 75<-93 111.87 1367.04 1559> 604 148<1014.74 1213.78> 611 163<294.056 500.629>
LayerCount: 2
Fore
SplineSet
467 -93 m 1,0,-1
 392 -93 l 1,1,-1
 392 105 l 1,2,3
 312 119 312 119 239.5 166 c 128,-1,4
 167 213 167 213 119.5 291 c 128,-1,5
 72 369 72 369 72 465 c 0,6,7
 72 518 72 518 94 552.5 c 128,-1,8
 116 587 116 587 160 587 c 0,9,10
 187 587 187 587 205 571.5 c 128,-1,11
 223 556 223 556 232.5 529.5 c 128,-1,12
 242 503 242 503 242 475 c 256,13,14
 242 447 242 447 226 396 c 1,15,16
 209 353 209 353 209 331 c 0,17,18
 209 281 209 281 243.5 246 c 128,-1,19
 278 211 278 211 326 191.5 c 128,-1,20
 374 172 374 172 414 172 c 0,21,22
 464 172 464 172 509 196 c 128,-1,23
 554 220 554 220 582.5 264.5 c 128,-1,24
 611 309 611 309 611 370 c 0,25,26
 611 425 611 425 595 459.5 c 128,-1,27
 579 494 579 494 535 530 c 128,-1,28
 491 566 491 566 398 621 c 1,29,30
 327 665 327 665 283 694.5 c 128,-1,31
 239 724 239 724 196.5 769 c 128,-1,32
 154 814 154 814 130.5 873 c 128,-1,33
 107 932 107 932 107 1011 c 0,34,35
 107 1088 107 1088 128 1149 c 128,-1,36
 149 1210 149 1210 188 1257 c 128,-1,37
 227 1304 227 1304 279.5 1334 c 128,-1,38
 332 1364 332 1364 392 1372 c 1,39,-1
 392 1559 l 1,40,-1
 467 1559 l 1,41,-1
 467 1372 l 1,42,43
 519 1369 519 1369 570 1343.5 c 128,-1,44
 621 1318 621 1318 662.5 1274 c 128,-1,45
 704 1230 704 1230 728 1173 c 128,-1,46
 752 1116 752 1116 752 1054 c 0,47,48
 752 1006 752 1006 730.5 974.5 c 128,-1,49
 709 943 709 943 669 943 c 0,50,51
 632 943 632 943 608 978 c 128,-1,52
 584 1013 584 1013 584 1059 c 0,53,54
 584 1081 584 1081 594 1127.5 c 128,-1,55
 604 1174 604 1174 604 1192 c 0,56,57
 604 1253 604 1253 553 1279 c 128,-1,58
 502 1305 502 1305 444 1305 c 0,59,60
 369 1305 369 1305 313.5 1256 c 128,-1,61
 258 1207 258 1207 258 1122 c 256,62,63
 258 1037 258 1037 314 989.5 c 128,-1,64
 370 942 370 942 503 864 c 128,-1,65
 636 786 636 786 705 705.5 c 128,-1,66
 774 625 774 625 774 492 c 0,67,68
 774 388 774 388 734.5 304.5 c 128,-1,69
 695 221 695 221 625.5 169.5 c 128,-1,70
 556 118 556 118 467 105 c 1,71,-1
 467 -93 l 1,0,-1
EndSplineSet
EndChar

StartChar: percent
Encoding: 37 37 10
Width: 1461
Flags: W
HStem: 27 62<1058.64 1169.54> 693 63<287.554 398.009 1051.8 1176.45> 1371 63<287.554 398.009>
VStem: 55 200<864.67 1262.37> 432 199<866.136 1260.91> 826 201<197.799 594.532> 1203 200<199.265 594.532>
LayerCount: 2
Fore
SplineSet
1114 768 m 256,0,1
 994 768 994 768 910 659 c 128,-1,2
 826 550 826 550 826 397 c 0,3,4
 826 243 826 243 910 135 c 128,-1,5
 994 27 994 27 1114 27 c 256,6,7
 1234 27 1234 27 1318.5 135 c 128,-1,8
 1403 243 1403 243 1403 397 c 0,9,10
 1403 550 1403 550 1318.5 659 c 128,-1,11
 1234 768 1234 768 1114 768 c 256,0,1
1114 705 m 256,12,13
 1178 705 1178 705 1190.5 615 c 128,-1,14
 1203 525 1203 525 1203 397 c 256,15,16
 1203 269 1203 269 1190.5 179 c 128,-1,17
 1178 89 1178 89 1114 89 c 256,18,19
 1050 89 1050 89 1038.5 179 c 128,-1,20
 1027 269 1027 269 1027 397 c 256,21,22
 1027 525 1027 525 1038.5 615 c 128,-1,23
 1050 705 1050 705 1114 705 c 256,12,13
1345 1441 m 1,24,-1
 1375 1415 l 1,25,26
 1386 1403 1386 1403 1376 1392 c 2,27,-1
 198 31 l 2,28,29
 187 18 187 18 175 29 c 2,30,-1
 145 55 l 1,31,32
 133 64 133 64 143 78 c 1,33,-1
 1322 1439 l 1,34,35
 1330 1451 1330 1451 1345 1441 c 1,24,-1
343 1434 m 0,36,37
 462 1434 462 1434 546.5 1325.5 c 128,-1,38
 631 1217 631 1217 631 1064 c 0,39,40
 631 910 631 910 546.5 801.5 c 128,-1,41
 462 693 462 693 343 693 c 0,42,43
 223 693 223 693 139 801.5 c 128,-1,44
 55 910 55 910 55 1064 c 0,45,46
 55 1217 55 1217 139 1325.5 c 128,-1,47
 223 1434 223 1434 343 1434 c 0,36,37
343 1371 m 0,48,49
 279 1371 279 1371 267 1281 c 128,-1,50
 255 1191 255 1191 255 1064 c 0,51,52
 255 936 255 936 267 846 c 128,-1,53
 279 756 279 756 343 756 c 0,54,55
 406 756 406 756 419 846 c 128,-1,56
 432 936 432 936 432 1064 c 0,57,58
 432 1191 432 1191 419 1281 c 128,-1,59
 406 1371 406 1371 343 1371 c 0,48,49
EndSplineSet
EndChar

StartChar: ampersand
Encoding: 38 38 11
Width: 1174
Flags: W
HStem: -20 129<842.5 1007.16> -20 90<390.137 616.146> 683 56<777 860.134 1039.49 1107> 1205 55<508.265 637.447>
VStem: 66 199<231.535 487.988> 283 190<866.966 1117.77> 673 133<899.624 1167.11>
LayerCount: 2
Fore
SplineSet
265 438 m 0,0,1
 265 357 265 357 294.5 270 c 128,-1,2
 324 183 324 183 378 126.5 c 128,-1,3
 432 70 432 70 501 70 c 0,4,5
 532 70 532 70 570.5 83 c 128,-1,6
 609 96 609 96 632 118 c 1,7,8
 575 198 575 198 530.5 276.5 c 128,-1,9
 486 355 486 355 446.5 441 c 128,-1,10
 407 527 407 527 365 630 c 1,11,12
 265 581 265 581 265 438 c 0,0,1
777 739 m 1,13,-1
 1107 739 l 1,14,-1
 1107 683 l 1,15,16
 1063 670 1063 670 1041.5 656.5 c 128,-1,17
 1020 643 1020 643 999.5 604.5 c 128,-1,18
 979 566 979 566 956 487 c 0,19,20
 909 322 909 322 830 222 c 1,21,22
 887 109 887 109 967 109 c 0,23,24
 1022 109 1022 109 1093 180 c 1,25,-1
 1119 150 l 1,26,27
 1089 100 1089 100 1050.5 61 c 128,-1,28
 1012 22 1012 22 966.5 1 c 128,-1,29
 921 -20 921 -20 870 -20 c 0,30,31
 815 -20 815 -20 773.5 1 c 128,-1,32
 732 22 732 22 685 67 c 1,33,34
 568 -20 568 -20 413 -20 c 0,35,36
 228 -20 228 -20 147 82 c 128,-1,37
 66 184 66 184 66 307 c 0,38,39
 66 440 66 440 145 539.5 c 128,-1,40
 224 639 224 639 338 699 c 1,41,42
 283 841 283 841 283 945 c 0,43,44
 283 1041 283 1041 324.5 1113 c 128,-1,45
 366 1185 366 1185 434 1222.5 c 128,-1,46
 502 1260 502 1260 576 1260 c 0,47,48
 633 1260 633 1260 686 1233.5 c 128,-1,49
 739 1207 739 1207 772.5 1155.5 c 128,-1,50
 806 1104 806 1104 806 1032 c 0,51,52
 806 965 806 965 770 911 c 128,-1,53
 734 857 734 857 689.5 822 c 128,-1,54
 645 787 645 787 572 739 c 1,55,56
 593 683 593 683 621 620 c 128,-1,57
 649 557 649 557 677 499.5 c 128,-1,58
 705 442 705 442 731.5 392 c 128,-1,59
 758 342 758 342 791 280 c 1,60,61
 841 334 841 334 870 405 c 128,-1,62
 899 476 899 476 899 551 c 0,63,64
 899 618 899 618 865.5 650.5 c 128,-1,65
 832 683 832 683 777 683 c 1,66,-1
 777 739 l 1,13,-1
673 1060 m 0,67,68
 673 1124 673 1124 648 1164.5 c 128,-1,69
 623 1205 623 1205 573 1205 c 0,70,71
 525 1205 525 1205 499 1166 c 128,-1,72
 473 1127 473 1127 473 1065 c 0,73,74
 473 960 473 960 544 802 c 1,75,76
 604 844 604 844 638.5 910 c 128,-1,77
 673 976 673 976 673 1060 c 0,67,68
EndSplineSet
EndChar

StartChar: quotesingle
Encoding: 39 39 12
Width: 411
Flags: W
LayerCount: 2
Fore
SplineSet
60 1304 m 0,0,1
 138 1354 138 1354 191 1436 c 0,2,3
 207 1460 207 1460 220 1436 c 0,4,5
 267 1347 267 1347 351 1304 c 0,6,7
 359 1300 359 1300 359 1290 c 0,8,9
 359 1206 359 1206 300 1093 c 128,-1,10
 241 980 241 980 186 907 c 1,11,12
 177 897 177 897 166 902 c 1,13,14
 151 911 151 911 157 921 c 0,15,16
 218 1015 218 1015 206.5 1112.5 c 128,-1,17
 195 1210 195 1210 60 1276 c 1,18,19
 33 1286 33 1286 60 1304 c 0,0,1
EndSplineSet
EndChar

StartChar: parenleft
Encoding: 40 40 13
Width: 509
Flags: W
HStem: -52 43<384.233 452.844> 1570 42<384.233 452.813>
VStem: 30 228<404.871 1154.26>
LayerCount: 2
Fore
SplineSet
442 -52 m 0,0,1
 269 -42 269 -42 149.5 200 c 128,-1,2
 30 442 30 442 30 780 c 0,3,4
 30 1116 30 1116 149.5 1357.5 c 128,-1,5
 269 1599 269 1599 442 1612 c 0,6,7
 447 1613 447 1613 453 1608 c 0,8,9
 485 1575 485 1575 443 1570 c 0,10,11
 366 1562 366 1562 312 1467 c 128,-1,12
 258 1372 258 1372 258 780 c 128,-1,13
 258 188 258 188 312 94 c 128,-1,14
 366 0 366 0 443 -9 c 0,15,16
 457 -11 457 -11 459 -26 c 128,-1,17
 461 -41 461 -41 453 -49 c 0,18,19
 448 -53 448 -53 442 -52 c 0,0,1
EndSplineSet
EndChar

StartChar: parenright
Encoding: 41 41 14
Width: 509
Flags: W
HStem: -58 42<62.1873 125.48> 1563 43<62.1565 129.767>
VStem: 256 229<399.852 1149.24>
LayerCount: 2
Fore
SplineSet
73 1606 m 0,0,1
 245 1596 245 1596 365 1354 c 128,-1,2
 485 1112 485 1112 485 775 c 256,3,4
 485 438 485 438 365 196.5 c 128,-1,5
 245 -45 245 -45 73 -58 c 0,6,7
 68 -59 68 -59 62 -54 c 0,8,9
 30 -21 30 -21 71 -16 c 0,10,11
 148 -7 148 -7 202 87.5 c 128,-1,12
 256 182 256 182 256 774 c 128,-1,13
 256 1366 256 1366 202 1460.5 c 128,-1,14
 148 1555 148 1555 71 1563 c 1,15,16
 58 1566 58 1566 56 1580.5 c 128,-1,17
 54 1595 54 1595 62 1603 c 0,18,19
 67 1607 67 1607 73 1606 c 0,0,1
EndSplineSet
EndChar

StartChar: asterisk
Encoding: 42 42 15
Width: 720
Flags: W
VStem: 287 112<1102.42 1149.7>
LayerCount: 2
Fore
SplineSet
219 1396 m 0,0,1
 283 1436 283 1436 328 1505 c 1,2,3
 341 1529 341 1529 352 1505 c 1,4,5
 393 1429 393 1429 468 1388 c 0,6,7
 492 1376 492 1376 468 1364 c 1,8,9
 388 1319 388 1319 366 1191 c 0,10,11
 364 1183 364 1183 373 1177 c 1,12,13
 382 1173 382 1173 389 1179 c 0,14,15
 496 1265 496 1265 492 1359 c 1,16,17
 489 1381 489 1381 513 1370 c 1,18,19
 578 1334 578 1334 662 1331 c 1,20,21
 686 1328 686 1328 674 1309 c 0,22,23
 630 1236 630 1236 630 1150 c 0,24,25
 630 1123 630 1123 610 1138 c 1,26,27
 530 1185 530 1185 408 1139 c 1,28,29
 399 1137 399 1137 399 1127 c 256,30,31
 399 1117 399 1117 408 1114 c 0,32,33
 534 1064 534 1064 614 1114 c 0,34,35
 635 1127 635 1127 635 1103 c 0,36,37
 637 1025 637 1025 675 953 c 1,38,39
 684 932 684 932 663 932 c 0,40,41
 576 935 576 935 503 891 c 1,42,43
 482 877 482 877 482 902 c 0,44,45
 484 992 484 992 389 1073 c 1,46,47
 381 1077 381 1077 374 1075 c 1,48,49
 364 1067 364 1067 367 1060 c 1,50,51
 387 932 387 932 468 893 c 0,52,53
 489 882 489 882 468 869 c 1,54,55
 392 827 392 827 352 751 c 0,56,57
 342 731 342 731 328 751 c 0,58,59
 281 820 281 820 219 861 c 1,60,61
 195 874 195 874 219 885 c 0,62,63
 303 924 303 924 323 1066 c 0,64,65
 324 1074 324 1074 316 1080 c 1,66,67
 309 1084 309 1084 302 1079 c 0,68,69
 196 995 196 995 202 903 c 0,70,71
 204 877 204 877 181 891 c 0,72,73
 107 934 107 934 22 932 c 0,74,75
 0 932 0 932 9 954 c 1,76,77
 47 1027 47 1027 50 1103 c 1,78,79
 50 1129 50 1129 70 1115 c 0,80,81
 146 1061 146 1061 278 1114 c 0,82,83
 287 1117 287 1117 287 1127 c 256,84,85
 287 1137 287 1137 278 1139 c 1,86,87
 152 1188 152 1188 75 1138 c 0,88,89
 54 1124 54 1124 54 1150 c 0,90,91
 55 1234 55 1234 10 1309 c 0,92,93
 -3 1330 -3 1330 22 1330 c 1,94,95
 106 1334 106 1334 171 1370 c 1,96,97
 194 1380 194 1380 192 1358 c 0,98,99
 184 1261 184 1261 302 1173 c 0,100,101
 310 1167 310 1167 316 1172 c 1,102,103
 324 1177 324 1177 323 1186 c 0,104,105
 304 1327 304 1327 219 1372 c 1,106,107
 195 1382 195 1382 219 1396 c 0,0,1
EndSplineSet
EndChar

StartChar: plus
Encoding: 43 43 16
Width: 810
Flags: W
HStem: 639 92<77 372 462 751>
VStem: 372 90<313 639 731 1037>
LayerCount: 2
Fore
SplineSet
751 731 m 1,0,-1
 751 639 l 1,1,-1
 462 639 l 1,2,-1
 462 313 l 1,3,-1
 372 313 l 1,4,-1
 372 639 l 1,5,-1
 77 639 l 1,6,-1
 77 731 l 1,7,-1
 372 731 l 1,8,-1
 372 1037 l 1,9,-1
 462 1037 l 1,10,-1
 462 731 l 1,11,-1
 751 731 l 1,0,-1
EndSplineSet
EndChar

StartChar: comma
Encoding: 44 44 17
Width: 376
Flags: W
LayerCount: 2
Fore
SplineSet
36 159 m 0,0,1
 114 209 114 209 167 291 c 0,2,3
 183 315 183 315 196 291 c 0,4,5
 243 202 243 202 327 159 c 0,6,7
 335 155 335 155 335 145 c 0,8,9
 335 61 335 61 276 -52 c 128,-1,10
 217 -165 217 -165 162 -238 c 1,11,12
 153 -248 153 -248 142 -243 c 1,13,14
 127 -234 127 -234 133 -224 c 0,15,16
 194 -130 194 -130 182.5 -32.5 c 128,-1,17
 171 65 171 65 36 131 c 1,18,19
 9 141 9 141 36 159 c 0,0,1
EndSplineSet
EndChar

StartChar: hyphen
Encoding: 45 45 18
Width: 610
Flags: W
VStem: 59 558
LayerCount: 2
Fore
SplineSet
214 767 m 1,0,-1
 605 805 l 2,1,2
 613 806 613 806 617 799 c 0,3,4
 620 793 620 793 617 787 c 2,5,-1
 561 675 l 1,6,7
 555 666 555 666 549 666 c 2,8,-1
 156 628 l 2,9,10
 147 628 147 628 145 633 c 1,11,12
 140 639 140 639 145 647 c 2,13,-1
 201 758 l 2,14,15
 205 765 205 765 214 767 c 1,0,-1
127 546 m 2,16,-1
 519 584 l 2,17,18
 526 585 526 585 531 579 c 1,19,20
 534 572 534 572 531 566 c 2,21,-1
 474 454 l 2,22,23
 470 446 470 446 462 446 c 2,24,-1
 70 407 l 2,25,26
 62 407 62 407 59 413 c 1,27,28
 54 418 54 418 59 426 c 2,29,-1
 115 538 l 2,30,31
 119 546 119 546 127 546 c 2,16,-1
EndSplineSet
EndChar

StartChar: period
Encoding: 46 46 19
Width: 411
Flags: W
LayerCount: 2
Fore
SplineSet
53 159 m 0,0,1
 131 209 131 209 184 291 c 0,2,3
 200 315 200 315 213 291 c 0,4,5
 260 202 260 202 344 159 c 0,6,7
 372 145 372 145 344 131 c 0,8,9
 256 88 256 88 213 0 c 0,10,11
 198 -29 198 -29 184 0 c 1,12,13
 141 80 141 80 53 131 c 1,14,15
 29 143 29 143 53 159 c 0,0,1
EndSplineSet
EndChar

StartChar: slash
Encoding: 47 47 20
Width: 1069
Flags: W
LayerCount: 2
Fore
SplineSet
993 1525 m 1,0,-1
 1027 1505 l 1,1,2
 1040 1495 1040 1495 1032 1482 c 2,3,-1
 125 -72 l 2,4,5
 117 -87 117 -87 103 -79 c 2,6,-1
 69 -59 l 1,7,8
 55 -52 55 -52 63 -36 c 1,9,-1
 970 1519 l 1,10,11
 976 1532 976 1532 993 1525 c 1,0,-1
EndSplineSet
EndChar

StartChar: zero
Encoding: 48 48 21
Width: 966
Flags: W
HStem: -19 67<398.365 561.992> 1369 63<408.011 556.04>
VStem: 34 287<387.443 1022.55> 655 277<388.615 1025.26>
LayerCount: 2
Fore
SplineSet
483 1432 m 0,0,1
 669 1432 669 1432 800.5 1219 c 128,-1,2
 932 1006 932 1006 932 706 c 0,3,4
 932 405 932 405 800.5 193 c 128,-1,5
 669 -19 669 -19 483 -19 c 0,6,7
 296 -19 296 -19 165 193 c 128,-1,8
 34 405 34 405 34 706 c 0,9,10
 34 1006 34 1006 165 1219 c 128,-1,11
 296 1432 296 1432 483 1432 c 0,0,1
481 48 m 256,12,13
 604 48 604 48 629.5 256 c 128,-1,14
 655 464 655 464 655 708 c 128,-1,15
 655 952 655 952 626 1160.5 c 128,-1,16
 597 1369 597 1369 481 1369 c 0,17,18
 364 1369 364 1369 342.5 1162 c 128,-1,19
 321 955 321 955 321 703 c 128,-1,20
 321 451 321 451 339.5 249.5 c 128,-1,21
 358 48 358 48 481 48 c 256,12,13
EndSplineSet
EndChar

StartChar: one
Encoding: 49 49 22
Width: 657
Flags: W
HStem: 1 53<69.0056 167.992 526.363 626.797>
VStem: 237 210<121 1055.62>
LayerCount: 2
Fore
SplineSet
70 1018 m 1,0,1
 41 989 41 989 31 1007.5 c 128,-1,2
 21 1026 21 1026 39 1042 c 0,3,4
 240 1209 240 1209 374 1394 c 0,5,6
 379 1401 379 1401 387 1401 c 2,7,-1
 432 1401 l 2,8,9
 449 1401 449 1401 449 1385 c 2,10,-1
 447 328 l 1,11,12
 448 54 448 54 614 52 c 1,13,14
 633 50 633 50 632 25.5 c 128,-1,15
 631 1 631 1 611 1 c 2,16,-1
 92 1 l 2,17,18
 69 1 69 1 69 27.5 c 128,-1,19
 69 54 69 54 91 54 c 0,20,21
 237 48 237 48 237 334 c 2,22,-1
 239 925 l 2,23,24
 239 1137 239 1137 70 1018 c 1,0,1
EndSplineSet
EndChar

StartChar: two
Encoding: 50 50 23
Width: 920
Flags: W
HStem: -3 213<288.158 814.188> 1222 176<275.777 523.134>
VStem: 54 58<957.11 1059.44>
LayerCount: 2
Fore
SplineSet
54 1000 m 1,0,1
 71 1163 71 1163 176.5 1278 c 128,-1,2
 282 1393 282 1393 463 1398 c 1,3,4
 831 1398 831 1398 865 1060 c 1,5,6
 881 889 881 889 806.5 776 c 128,-1,7
 732 663 732 663 638 572 c 2,8,-1
 293 238 l 2,9,10
 283 229 283 229 288 219.5 c 128,-1,11
 293 210 293 210 305 210 c 2,12,-1
 795 210 l 2,13,14
 809 210 809 210 811 225 c 2,15,-1
 828 374 l 2,16,17
 831 401 831 401 856.5 400 c 128,-1,18
 882 399 882 399 881 363 c 1,19,-1
 848 11 l 2,20,21
 846 -3 846 -3 832 -3 c 2,22,-1
 50 -3 l 2,23,24
 39 -3 39 -3 34.5 4.5 c 128,-1,25
 30 12 30 12 37 22 c 2,26,-1
 439 539 l 2,27,28
 642 800 642 800 613.5 1007.5 c 128,-1,29
 585 1215 585 1215 387 1222 c 1,30,31
 263 1217 263 1217 194.5 1138.5 c 128,-1,32
 126 1060 126 1060 112 987 c 0,33,34
 106 955 106 955 75.5 957 c 128,-1,35
 45 959 45 959 54 1000 c 1,0,1
EndSplineSet
EndChar

StartChar: three
Encoding: 51 51 24
Width: 955
Flags: W
HStem: -13 51<346.066 566.503> 692 54<286.586 387.312> 1304 118<277.669 520.969>
VStem: 689 230<273.469 552.391>
LayerCount: 2
Fore
SplineSet
91 1196 m 0,0,1
 137 1287 137 1287 239.5 1355.5 c 128,-1,2
 342 1424 342 1424 489 1422 c 1,3,4
 618 1422 618 1422 729 1361.5 c 128,-1,5
 840 1301 840 1301 862 1155 c 1,6,7
 872 1003 872 1003 804.5 940 c 128,-1,8
 737 877 737 877 649 850 c 1,9,10
 915 774 915 774 919 483 c 0,11,12
 922 281 922 281 779.5 135 c 128,-1,13
 637 -11 637 -11 469 -13 c 0,14,15
 301 -14 301 -14 187.5 39.5 c 128,-1,16
 74 93 74 93 44 234 c 1,17,18
 31 287 31 287 59 332 c 128,-1,19
 87 377 87 377 150 379 c 0,20,21
 224 382 224 382 254 322.5 c 128,-1,22
 284 263 284 263 282 184 c 1,23,24
 287 120 287 120 328 76 c 128,-1,25
 369 32 369 32 467 38 c 1,26,27
 594 44 594 44 648 137.5 c 128,-1,28
 702 231 702 231 689 365 c 1,29,30
 670 593 670 593 563 646.5 c 128,-1,31
 456 700 456 700 322 692 c 1,32,33
 289 689 289 689 286.5 713.5 c 128,-1,34
 284 738 284 738 313 746 c 0,35,36
 429 778 429 778 512.5 846 c 128,-1,37
 596 914 596 914 613 1039 c 0,38,39
 628 1153 628 1153 560 1227 c 128,-1,40
 492 1301 492 1301 371 1304 c 0,41,42
 293 1306 293 1306 236 1264.5 c 128,-1,43
 179 1223 179 1223 132 1172 c 0,44,45
 108 1147 108 1147 92 1157 c 128,-1,46
 76 1167 76 1167 91 1196 c 0,0,1
EndSplineSet
EndChar

StartChar: four
Encoding: 52 52 25
Width: 937
Flags: W
HStem: 1 53<310.036 409.949 766.559 869.44> 420 143<106.126 478.938 689.004 909>
VStem: 480 209<116.755 419.996 563 1113>
LayerCount: 2
Fore
SplineSet
689 1378 m 2,0,-1
 689 578 l 2,1,2
 689 563 689 563 704 563 c 2,3,-1
 893 563 l 2,4,5
 909 563 909 563 909 546 c 2,6,-1
 909 437 l 2,7,8
 909 420 909 420 893 420 c 2,9,-1
 704 420 l 2,10,11
 689 420 689 420 689 403 c 2,12,-1
 689 328 l 1,13,14
 688 52 688 52 854 52 c 1,15,16
 874 50 874 50 873 25 c 0,17,18
 873 1 873 1 853 1 c 2,19,-1
 332 1 l 2,20,21
 310 1 310 1 310 27 c 0,22,23
 311 54 311 54 332 54 c 0,24,25
 480 52 480 52 479 334 c 1,26,-1
 479 403 l 2,27,28
 479 410 479 410 474 415 c 0,29,30
 470 420 470 420 463 420 c 2,31,-1
 36 420 l 2,32,33
 20 420 20 420 20 437 c 2,34,-1
 20 558 l 2,35,36
 20 560 20 560 22 566 c 1,37,-1
 549 1387 l 1,38,39
 556 1394 556 1394 563 1394 c 2,40,-1
 673 1394 l 2,41,42
 689 1394 689 1394 689 1378 c 2,0,-1
120 563 m 2,43,-1
 463 563 l 2,44,45
 480 563 480 563 480 578 c 2,46,-1
 480 1113 l 2,47,48
 480 1126 480 1126 468 1128 c 1,49,50
 457 1133 457 1133 450 1122 c 2,51,-1
 106 587 l 2,52,53
 101 579 101 579 106 571 c 0,54,55
 110 563 110 563 120 563 c 2,43,-1
EndSplineSet
EndChar

StartChar: five
Encoding: 53 53 26
Width: 954
Flags: W
HStem: -13 51<348.448 563.483> 758 212<258.59 585.094>
VStem: 174 69<938.626 1173.78>
LayerCount: 2
Fore
SplineSet
709 471 m 1,0,1
 688 755 688 755 417 758 c 1,2,3
 279 761 279 761 151 628 c 1,4,5
 110 596 110 596 110 644 c 1,6,7
 140 815 140 815 165.5 1006.5 c 128,-1,8
 191 1198 191 1198 174 1388 c 1,9,10
 148 1437 148 1437 219 1417 c 1,11,12
 402 1360 402 1360 541 1370.5 c 128,-1,13
 680 1381 680 1381 786 1431 c 0,14,15
 799 1437 799 1437 806 1428.5 c 128,-1,16
 813 1420 813 1420 808 1411 c 1,17,18
 745 1260 745 1260 615.5 1202 c 128,-1,19
 486 1144 486 1144 263 1186 c 0,20,21
 243 1189 243 1189 243 1170 c 1,22,23
 236 1051 236 1051 216 935 c 1,24,25
 216 914 216 914 233 918 c 1,26,27
 349 975 349 975 483 970 c 0,28,29
 696 962 696 962 810 816.5 c 128,-1,30
 924 671 924 671 921 483 c 1,31,32
 924 281 924 281 781.5 135 c 128,-1,33
 639 -11 639 -11 471 -13 c 0,34,35
 303 -14 303 -14 192 42.5 c 128,-1,36
 81 99 81 99 46 234 c 0,37,38
 33 287 33 287 61 332 c 128,-1,39
 89 377 89 377 152 379 c 1,40,41
 214 379 214 379 248 324.5 c 128,-1,42
 282 270 282 270 284 184 c 1,43,44
 289 120 289 120 330 76 c 128,-1,45
 371 32 371 32 469 38 c 1,46,47
 596 44 596 44 662 164 c 128,-1,48
 728 284 728 284 709 471 c 1,0,1
EndSplineSet
EndChar

StartChar: six
Encoding: 54 54 27
Width: 930
Flags: W
HStem: -15 55<400.683 573.539> 1391 47<413.605 560.75>
VStem: 614 238<1106.41 1302.23> 660 231<295.072 723.219>
LayerCount: 2
Fore
SplineSet
614 1254 m 1,0,1
 610 1301 610 1301 583 1344.5 c 128,-1,2
 556 1388 556 1388 502 1391 c 0,3,4
 376 1397 376 1397 345 1246 c 128,-1,5
 314 1095 314 1095 308 1012 c 1,6,7
 298 845 298 845 300 692 c 1,8,9
 399 932 399 932 573 925 c 0,10,11
 692 920 692 920 794 813.5 c 128,-1,12
 896 707 896 707 891 503 c 1,13,14
 885 301 885 301 757 142.5 c 128,-1,15
 629 -16 629 -16 494 -15 c 0,16,17
 269 -12 269 -12 151 169 c 128,-1,18
 33 350 33 350 52 716 c 1,19,20
 67 981 67 981 141 1135 c 128,-1,21
 215 1289 215 1289 303 1363 c 0,22,23
 391 1438 391 1438 527 1438 c 0,24,25
 665 1438 665 1438 755 1362 c 0,26,27
 825 1302 825 1302 852 1204 c 1,28,29
 865 1150 865 1150 836.5 1105 c 128,-1,30
 808 1060 808 1060 746 1060 c 1,31,32
 683 1058 683 1058 646 1123 c 128,-1,33
 609 1188 609 1188 614 1254 c 1,0,1
496 40 m 1,34,35
 584 38 584 38 623 145.5 c 128,-1,36
 662 253 662 253 660 395 c 0,37,38
 657 567 657 567 623.5 696.5 c 128,-1,39
 590 826 590 826 494 821 c 0,40,41
 350 813 350 813 308 489 c 1,42,43
 316 358 316 358 328 262 c 1,44,45
 339 153 339 153 372.5 96.5 c 128,-1,46
 406 40 406 40 496 40 c 1,34,35
EndSplineSet
EndChar

StartChar: seven
Encoding: 55 55 28
Width: 880
Flags: W
HStem: 1195 203<150.544 722.843>
LayerCount: 2
Fore
SplineSet
32 1049 m 1,0,-1
 120 1387 l 1,1,2
 121 1398 121 1398 136 1398 c 2,3,-1
 841 1398 l 2,4,5
 850 1398 850 1398 853 1392 c 0,6,7
 857 1385 857 1385 856 1378 c 1,8,-1
 417 12 l 2,9,10
 414 0 414 0 402 0 c 2,11,-1
 160 0 l 2,12,13
 150 0 150 0 146 7 c 0,14,15
 141 14 141 14 146 24 c 2,16,-1
 724 1171 l 2,17,18
 727 1179 727 1179 723 1187 c 0,19,20
 718 1195 718 1195 710 1195 c 0,21,22
 612 1195 612 1195 514.5 1195 c 128,-1,23
 417 1195 417 1195 319 1195 c 2,24,25
 319 1195 319 1195 318 1195 c 128,-1,26
 317 1195 317 1195 232.5 1194 c 128,-1,27
 148 1193 148 1193 83 1036 c 0,28,29
 78 1022 78 1022 64 1026 c 1,30,-1
 45 1028 l 2,31,32
 37 1029 37 1029 34 1036 c 0,33,34
 32 1040 32 1040 32 1049 c 1,0,-1
EndSplineSet
EndChar

StartChar: eight
Encoding: 56 56 29
Width: 957
Flags: W
HStem: 0 43<345.108 566.947> 1398 38<392.469 594.875>
VStem: 34 152<187.697 539.704> 80 166<1059.22 1255.03> 723 178<213.382 476.004> 725 124<990.957 1286>
LayerCount: 2
Fore
SplineSet
281 745 m 0,0,1
 75 884 75 884 80 1107 c 1,2,3
 81 1240 81 1240 199.5 1340.5 c 128,-1,4
 318 1441 318 1441 495 1436 c 1,5,6
 652 1436 652 1436 750.5 1349 c 128,-1,7
 849 1262 849 1262 849 1130 c 0,8,9
 849 1034 849 1034 786 964 c 0,10,11
 732 904 732 904 655 859 c 0,12,13
 646 854 646 854 646 844 c 0,14,15
 646 838 646 838 648 835.5 c 128,-1,16
 650 833 650 833 655 830 c 0,17,18
 795 741 795 741 852 615 c 0,19,20
 912 483 912 483 901 360 c 1,21,22
 872 165 872 165 743 82.5 c 128,-1,23
 614 0 614 0 446 0 c 0,24,25
 277 0 277 0 155.5 96.5 c 128,-1,26
 34 193 34 193 34 367 c 0,27,28
 34 493 34 493 107 582 c 0,29,30
 176 667 176 667 282 730 c 0,31,32
 286 732 286 732 286 737 c 256,33,34
 286 742 286 742 281 745 c 0,0,1
335 698 m 0,35,36
 168 570 168 570 186 363 c 1,37,38
 182 198 182 198 261.5 120.5 c 128,-1,39
 341 43 341 43 449 43 c 256,40,41
 557 43 557 43 637 103 c 128,-1,42
 717 163 717 163 723 334 c 0,43,44
 727 445 727 445 632.5 527.5 c 128,-1,45
 538 610 538 610 446 655 c 0,46,47
 381 687 381 687 357 699 c 0,48,49
 352 702 352 702 346 702 c 0,50,51
 339 702 339 702 335 698 c 0,35,36
725 1127 m 1,52,53
 723 1394 723 1394 495 1398 c 1,54,55
 390 1398 390 1398 317 1334 c 128,-1,56
 244 1270 244 1270 246 1176 c 1,57,58
 247 1074 247 1074 349 1009 c 1,59,60
 444 950 444 950 558 886 c 1,61,62
 563 882 563 882 576 882.5 c 128,-1,63
 589 883 589 883 593 888 c 1,64,65
 702 974 702 974 725 1127 c 1,52,53
EndSplineSet
EndChar

StartChar: nine
Encoding: 57 57 30
Width: 930
Flags: W
HStem: 513 111<345.188 496.638> 1398 56<355.417 527.976>
VStem: 38 231<731.545 1147.99> 77 238<134.789 321.759>
LayerCount: 2
Fore
SplineSet
315 184 m 1,0,1
 318 136 318 136 345 93 c 128,-1,2
 372 50 372 50 427 47 c 0,3,4
 553 40 553 40 583.5 191.5 c 128,-1,5
 614 343 614 343 620 427 c 0,6,7
 630 584 630 584 629 746 c 1,8,9
 529 505 529 505 356 513 c 1,10,11
 236 517 236 517 135 624 c 128,-1,12
 34 731 34 731 38 935 c 1,13,14
 43 1136 43 1136 171.5 1295.5 c 128,-1,15
 300 1455 300 1455 435 1454 c 0,16,17
 659 1451 659 1451 778 1269 c 128,-1,18
 897 1087 897 1087 876 722 c 0,19,20
 861 456 861 456 787 302 c 128,-1,21
 713 148 713 148 626 75 c 0,22,23
 537 0 537 0 402 0 c 0,24,25
 263 0 263 0 174 76 c 1,26,27
 103 134 103 134 77 234 c 0,28,29
 63 287 63 287 91.5 332 c 128,-1,30
 120 377 120 377 183 379 c 1,31,32
 245 379 245 379 281 323.5 c 128,-1,33
 317 268 317 268 315 184 c 1,0,1
433 1398 m 0,34,35
 344 1399 344 1399 305 1291.5 c 128,-1,36
 266 1184 266 1184 269 1043 c 0,37,38
 272 871 272 871 309 744.5 c 128,-1,39
 346 618 346 618 443 624 c 1,40,41
 586 631 586 631 621 949 c 1,42,43
 612 1079 612 1079 601 1176 c 0,44,45
 589 1284 589 1284 555.5 1341 c 128,-1,46
 522 1398 522 1398 433 1398 c 0,34,35
EndSplineSet
EndChar

StartChar: colon
Encoding: 58 58 31
Width: 411
Flags: W
LayerCount: 2
Fore
SplineSet
53 817 m 0,0,1
 131 867 131 867 184 949 c 0,2,3
 200 973 200 973 213 949 c 0,4,5
 260 860 260 860 344 817 c 0,6,7
 372 803 372 803 344 789 c 0,8,9
 256 746 256 746 213 658 c 0,10,11
 198 629 198 629 184 658 c 1,12,13
 141 738 141 738 53 789 c 1,14,15
 29 801 29 801 53 817 c 0,0,1
53 159 m 0,16,17
 131 209 131 209 184 291 c 0,18,19
 200 315 200 315 213 291 c 0,20,21
 260 202 260 202 344 159 c 0,22,23
 372 145 372 145 344 131 c 0,24,25
 256 88 256 88 213 0 c 0,26,27
 198 -29 198 -29 184 0 c 1,28,29
 141 80 141 80 53 131 c 1,30,31
 29 143 29 143 53 159 c 0,16,17
EndSplineSet
EndChar

StartChar: semicolon
Encoding: 59 59 32
Width: 351
Flags: W
LayerCount: 2
Fore
SplineSet
36 159 m 0,0,1
 114 209 114 209 167 291 c 0,2,3
 183 315 183 315 196 291 c 0,4,5
 243 202 243 202 327 159 c 0,6,7
 335 155 335 155 335 145 c 0,8,9
 335 61 335 61 276 -52 c 128,-1,10
 217 -165 217 -165 162 -238 c 1,11,12
 153 -248 153 -248 142 -243 c 1,13,14
 127 -234 127 -234 133 -224 c 0,15,16
 194 -130 194 -130 182.5 -32.5 c 128,-1,17
 171 65 171 65 36 131 c 1,18,19
 9 141 9 141 36 159 c 0,0,1
53 817 m 0,20,21
 131 867 131 867 184 949 c 0,22,23
 200 973 200 973 213 949 c 0,24,25
 260 860 260 860 344 817 c 0,26,27
 372 803 372 803 344 789 c 0,28,29
 256 746 256 746 213 658 c 0,30,31
 198 629 198 629 184 658 c 1,32,33
 141 738 141 738 53 789 c 1,34,35
 29 801 29 801 53 817 c 0,20,21
EndSplineSet
EndChar

StartChar: less
Encoding: 60 60 33
Width: 591
Flags: W
VStem: 15 544
LayerCount: 2
Fore
SplineSet
505 956 m 2,0,-1
 544 956 l 2,1,2
 556 956 556 956 559 947 c 0,3,4
 563 938 563 938 557 930 c 2,5,-1
 269 588 l 1,6,7
 258 577 258 577 269 568 c 1,8,-1
 557 226 l 1,9,10
 563 217 563 217 559 209 c 1,11,12
 556 200 556 200 544 200 c 2,13,-1
 505 200 l 2,14,15
 497 200 497 200 495 203 c 1,16,-1
 15 565 l 2,17,18
 8 570 8 570 8 578 c 0,19,20
 8 584 8 584 15 591 c 1,21,-1
 495 953 l 2,22,23
 498 956 498 956 505 956 c 2,0,-1
EndSplineSet
EndChar

StartChar: equal
Encoding: 61 61 34
Width: 793
Flags: W
HStem: 389 148<47 752> 686 148<47 752>
LayerCount: 2
Fore
SplineSet
63 537 m 2,0,-1
 736 537 l 2,1,2
 752 537 752 537 752 520 c 2,3,-1
 752 406 l 2,4,5
 752 389 752 389 736 389 c 2,6,-1
 63 389 l 2,7,8
 47 389 47 389 47 406 c 2,9,-1
 47 520 l 2,10,11
 47 537 47 537 63 537 c 2,0,-1
63 834 m 2,12,-1
 736 834 l 2,13,14
 752 834 752 834 752 817 c 2,15,-1
 752 703 l 2,16,17
 752 686 752 686 736 686 c 2,18,-1
 63 686 l 2,19,20
 47 686 47 686 47 703 c 2,21,-1
 47 817 l 2,22,23
 47 834 47 834 63 834 c 2,12,-1
EndSplineSet
EndChar

StartChar: greater
Encoding: 62 62 35
Width: 591
Flags: W
VStem: 12 544
LayerCount: 2
Fore
SplineSet
66 200 m 2,0,-1
 27 200 l 2,1,2
 15 200 15 200 12 209 c 0,3,4
 8 218 8 218 14 226 c 2,5,-1
 302 568 l 1,6,7
 313 579 313 579 302 588 c 1,8,-1
 14 930 l 1,9,10
 8 939 8 939 12 947 c 1,11,12
 15 956 15 956 27 956 c 2,13,-1
 66 956 l 2,14,15
 74 956 74 956 76 953 c 1,16,-1
 556 591 l 2,17,18
 563 586 563 586 563 578 c 0,19,20
 563 572 563 572 556 565 c 1,21,-1
 76 203 l 2,22,23
 73 200 73 200 66 200 c 2,0,-1
EndSplineSet
EndChar

StartChar: question
Encoding: 63 63 36
Width: 933
Flags: W
HStem: 408 41<421.098 581.013> 1025 177<203.985 294.245> 1413 44<332.18 532.365>
VStem: 67 133<1101 1324.1> 637 204<1050.72 1308.03> 677 43<542.991 625.228>
LayerCount: 2
Fore
SplineSet
240 1202 m 1,0,1
 320 1202 320 1202 319 1104 c 0,2,3
 319 1077 319 1077 295 1051 c 128,-1,4
 271 1025 271 1025 227 1025 c 0,5,6
 74 1022 74 1022 67 1180 c 1,7,8
 75 1448 75 1448 465 1457 c 1,9,10
 842 1459 842 1459 841 1109 c 1,11,12
 837 956 837 956 757 888 c 128,-1,13
 677 820 677 820 581.5 788.5 c 128,-1,14
 486 757 486 757 408 719.5 c 128,-1,15
 330 682 330 682 332 613 c 1,16,17
 332 547 332 547 384 496.5 c 128,-1,18
 436 446 436 446 500 449 c 1,19,20
 566 450 566 450 615 492 c 128,-1,21
 664 534 664 534 677 604 c 1,22,23
 687 628 687 628 709 626 c 1,24,25
 730 621 730 621 720 596 c 1,26,27
 713 526 713 526 656 467 c 128,-1,28
 599 408 599 408 500 408 c 0,29,30
 386 407 386 407 295.5 457.5 c 128,-1,31
 205 508 205 508 187 609 c 1,32,33
 163 734 163 734 215.5 813 c 128,-1,34
 268 892 268 892 367.5 936 c 128,-1,35
 467 980 467 980 551 1021 c 128,-1,36
 635 1062 635 1062 637 1164 c 1,37,38
 630 1409 630 1409 444 1413 c 1,39,40
 352 1412 352 1412 276.5 1365 c 128,-1,41
 201 1318 201 1318 200 1266 c 1,42,43
 200 1201 200 1201 240 1202 c 1,0,1
342 159 m 0,44,45
 420 209 420 209 473 291 c 0,46,47
 489 315 489 315 502 291 c 0,48,49
 549 202 549 202 633 159 c 0,50,51
 661 145 661 145 633 131 c 0,52,53
 545 88 545 88 502 0 c 0,54,55
 487 -29 487 -29 473 0 c 1,56,57
 430 80 430 80 342 131 c 1,58,59
 318 143 318 143 342 159 c 0,44,45
EndSplineSet
EndChar

StartChar: at
Encoding: 64 64 37
Width: 1245
Flags: W
HStem: -283 78<439.683 830.853> 19 116<417.732 570.756> 19 86<712.5 912.479> 586 69<625.085 722.55> 877 71<502.76 847.187>
VStem: 33 138<69.7074 523.479> 287 179<135.314 367.598> 1056 116<283.49 687.475>
LayerCount: 2
Fore
SplineSet
1184 148 m 2,0,1
 1205 148 1205 148 1216.5 141 c 128,-1,2
 1228 134 1228 134 1221 123 c 1,3,4
 1192 36 1192 36 1135 -38 c 128,-1,5
 1078 -112 1078 -112 995 -171 c 0,6,7
 917 -226 917 -226 825 -254.5 c 128,-1,8
 733 -283 733 -283 629 -283 c 0,9,10
 498 -283 498 -283 391 -242 c 128,-1,11
 284 -201 284 -201 202 -116 c 1,12,13
 33 54 33 54 33 303 c 0,14,15
 33 391 33 391 54.5 472 c 128,-1,16
 76 553 76 553 118 631 c 1,17,18
 158 702 158 702 219 760.5 c 128,-1,19
 280 819 280 819 356 863 c 1,20,21
 428 903 428 903 510 925.5 c 128,-1,22
 592 948 592 948 676 948 c 0,23,24
 929 948 929 948 1049 809 c 0,25,26
 1172 665 1172 665 1172 490 c 0,27,28
 1172 326 1172 326 1073 172 c 1,29,30
 973 19 973 19 780 19 c 0,31,32
 645 19 645 19 644 122 c 1,33,34
 534 19 534 19 442 19 c 0,35,36
 367 19 367 19 328 71 c 0,37,38
 287 124 287 124 287 187 c 0,39,40
 287 264 287 264 320.5 343 c 128,-1,41
 354 422 354 422 419 500 c 0,42,43
 482 575 482 575 548 615 c 128,-1,44
 614 655 614 655 678 655 c 0,45,46
 740 655 740 655 777 629 c 1,47,48
 782 632 782 632 789.5 634.5 c 128,-1,49
 797 637 797 637 804 637 c 2,50,-1
 905 651 l 1,51,52
 927 653 927 653 940 645 c 128,-1,53
 953 637 953 637 947 626 c 1,54,-1
 872 371 l 1,55,56
 814 178 814 178 814 134 c 0,57,58
 814 105 814 105 824 105 c 0,59,60
 898 105 898 105 976 222 c 1,61,62
 1056 338 1056 338 1056 502 c 0,63,64
 1056 686 1056 686 948 778 c 0,65,66
 831 877 831 877 680 877 c 0,67,68
 527 877 527 877 400 783 c 1,69,70
 287 696 287 696 226 551 c 0,71,72
 171 419 171 419 171 287 c 0,73,74
 171 58 171 58 300 -70 c 0,75,76
 435 -205 435 -205 633 -205 c 0,77,78
 807 -205 807 -205 931 -107 c 0,79,80
 1046 -15 1046 -15 1111 137 c 1,81,82
 1114 141 1114 141 1125 144.5 c 128,-1,83
 1136 148 1136 148 1146 148 c 2,84,-1
 1184 148 l 2,0,1
727 513 m 0,85,86
 727 586 727 586 685 586 c 0,87,88
 667 586 667 586 646 570.5 c 128,-1,89
 625 555 625 555 602 526.5 c 128,-1,90
 579 498 579 498 555.5 458 c 128,-1,91
 532 418 532 418 510 369 c 1,92,93
 490 322 490 322 478 279 c 128,-1,94
 466 236 466 236 466 206 c 0,95,96
 466 177 466 177 476.5 156 c 128,-1,97
 487 135 487 135 501 135 c 0,98,99
 540 135 540 135 606 206 c 1,100,101
 635 241 635 241 659.5 283 c 128,-1,102
 684 325 684 325 699 371 c 0,103,104
 713 415 713 415 720 450.5 c 128,-1,105
 727 486 727 486 727 513 c 0,85,86
EndSplineSet
EndChar

StartChar: A
Encoding: 65 65 38
Width: 1667
Flags: W
HStem: 1201 43<1078.01 1093>
VStem: 46 79<943.246 1167.62> 1169 252<251.324 1159.75>
LayerCount: 2
Fore
SplineSet
1101 1201 m 0,0,1
 1078 1201 1078 1201 1078 1223 c 0,2,3
 1078 1236 1078 1236 1093 1244 c 2,4,-1
 1511 1445 l 1,5,6
 1537 1455 1537 1455 1544.5 1437 c 128,-1,7
 1552 1419 1552 1419 1530 1404 c 1,8,9
 1461 1350 1461 1350 1441 1258 c 128,-1,10
 1421 1166 1421 1166 1421 1041 c 2,11,-1
 1421 349 l 2,12,13
 1421 138 1421 138 1580 214 c 1,14,15
 1607 229 1607 229 1616 210.5 c 128,-1,16
 1625 192 1625 192 1608 179 c 1,17,-1
 1399 -11 l 1,18,19
 1379 -25 1379 -25 1353 -18 c 0,20,21
 1203 25 1203 25 1177 205 c 0,22,23
 1175 214 1175 214 1166 218 c 0,24,25
 1157 221 1157 221 1150 214 c 0,26,27
 1126 190 1126 190 1099.5 160 c 128,-1,28
 1073 130 1073 130 967.5 43 c 128,-1,29
 862 -44 862 -44 777.5 -24.5 c 128,-1,30
 693 -5 693 -5 642 37 c 0,31,32
 562 102 562 102 495 164 c 128,-1,33
 428 226 428 226 329 201 c 0,34,35
 319 198 319 198 297 190 c 128,-1,36
 275 182 275 182 266 201 c 128,-1,37
 257 220 257 220 296 243 c 1,38,39
 374 295 374 295 449 351.5 c 128,-1,40
 524 408 524 408 589 477 c 0,41,42
 677 570 677 570 729.5 698 c 128,-1,43
 782 826 782 826 756 975 c 0,44,45
 731 1118 731 1118 614 1221 c 128,-1,46
 497 1324 497 1324 335 1300 c 0,47,48
 230 1284 230 1284 181 1213.5 c 128,-1,49
 132 1143 132 1143 125 1079 c 0,50,51
 114 989 114 989 166 938.5 c 128,-1,52
 218 888 218 888 287 878 c 1,53,54
 448 849 448 849 503 740.5 c 128,-1,55
 558 632 558 632 422 510 c 0,56,57
 404 495 404 495 390 505.5 c 128,-1,58
 376 516 376 516 387 536 c 1,59,60
 430 625 430 625 321 656 c 0,61,62
 204 689 204 689 125 770 c 128,-1,63
 46 851 46 851 46 989 c 0,64,65
 46 1181 46 1181 197 1319.5 c 128,-1,66
 348 1458 348 1458 542 1459 c 1,67,68
 768 1459 768 1459 886.5 1324 c 128,-1,69
 1005 1189 1005 1189 1007 1018 c 0,70,71
 1009 819 1009 819 871.5 668 c 128,-1,72
 734 517 734 517 605 415 c 1,73,74
 597 410 597 410 599 400 c 0,75,76
 600 391 600 391 609 388 c 0,77,78
 678 359 678 359 733 318.5 c 128,-1,79
 788 278 788 278 826 239 c 0,80,81
 888 174 888 174 943.5 164.5 c 128,-1,82
 999 155 999 155 1086 218 c 0,83,84
 1108 234 1108 234 1127 254.5 c 128,-1,85
 1146 275 1146 275 1165 299 c 0,86,87
 1169 304 1169 304 1169 310 c 0,88,89
 1165 502 1165 502 1166 695.5 c 128,-1,90
 1167 889 1167 889 1167 1083 c 0,91,92
 1167 1121 1167 1121 1158 1161 c 128,-1,93
 1149 1201 1149 1201 1101 1201 c 0,0,1
EndSplineSet
EndChar

StartChar: B
Encoding: 66 66 39
Width: 1830
Flags: W
HStem: -20 118.314<1122.78 1330.92> 652 45<304.284 526.153> 715 43<1032.61 1049> 1016 43<1699 1715.39> 1275 207<309.778 623.592>
VStem: 1571.5 205.5<337.264 519.201>
LayerCount: 2
Fore
SplineSet
387 286 m 1,0,1
 378 281 378 281 368.5 276.5 c 128,-1,2
 359 272 359 272 352 269 c 0,3,4
 346 266 346 266 342 266 c 0,5,6
 320 266 320 266 320 289 c 0,7,8
 320 301 320 301 331 308 c 0,9,10
 489 395 489 395 651.5 519 c 128,-1,11
 814 643 814 643 813 857 c 0,12,13
 812 991 812 991 723 1133 c 128,-1,14
 634 1275 634 1275 453 1275 c 0,15,16
 330 1275 330 1275 225 1188.5 c 128,-1,17
 120 1102 120 1102 120 995 c 0,18,19
 120 884 120 884 184 801 c 128,-1,20
 248 718 248 718 389 697 c 1,21,22
 502 694 502 694 571 744 c 0,23,24
 580 751 580 751 592.5 765.5 c 128,-1,25
 605 780 605 780 617 780 c 0,26,27
 632 780 632 780 636 767 c 128,-1,28
 640 754 640 754 631 745 c 0,29,30
 608 720 608 720 566 694 c 0,31,32
 500 652 500 652 415 652 c 1,33,34
 188 649 188 649 101 763.5 c 128,-1,35
 14 878 14 878 31 1058 c 128,-1,36
 48 1238 48 1238 195.5 1364 c 128,-1,37
 343 1490 343 1490 536 1482 c 0,38,39
 701 1475 701 1475 800 1411 c 128,-1,40
 899 1347 899 1347 951 1250 c 0,41,42
 956 1239 956 1239 967 1241 c 1,43,44
 979 1241 979 1241 981 1253 c 1,45,46
 1009 1354 1009 1354 1086.5 1416 c 128,-1,47
 1164 1478 1164 1478 1284 1478 c 0,48,49
 1399 1478 1399 1478 1485 1404.5 c 128,-1,50
 1571 1331 1571 1331 1610 1166 c 1,51,52
 1639 1057 1639 1057 1691 1059 c 0,53,54
 1712 1059 1712 1059 1715.5 1042.5 c 128,-1,55
 1719 1026 1719 1026 1699 1016 c 2,56,-1
 1473 911 l 2,57,58
 1462 905 1462 905 1464 894 c 0,59,60
 1465 883 1465 883 1477 880 c 0,61,62
 1596 853 1596 853 1686.5 750.5 c 128,-1,63
 1777 648 1777 648 1777 501 c 1,64,65
 1773 270 1773 270 1473 93 c 1,66,67
 1308 -3 1308 -3 1155 -20 c 128,-1,68
 1002 -37 1002 -37 867 10 c 0,69,70
 713 64 713 64 603.5 191.5 c 128,-1,71
 494 319 494 319 387 286 c 1,0,1
1049 758 m 2,72,-1
 1439 942 l 1,73,74
 1448 949 1448 949 1448 956 c 0,75,76
 1448 966 1448 966 1440 971 c 0,77,78
 1372 1011 1372 1011 1338 1144 c 1,79,80
 1311 1242 1311 1242 1270 1303 c 128,-1,81
 1229 1364 1229 1364 1150 1356 c 1,82,83
 1044 1332 1044 1332 1025.5 1242 c 128,-1,84
 1007 1152 1007 1152 1020 1037 c 0,85,86
 1042 852 1042 852 916 702.5 c 128,-1,87
 790 553 790 553 649 449 c 1,88,89
 739 450 739 450 836 357 c 1,90,91
 904 290 904 290 977.5 233 c 128,-1,92
 1051 176 1051 176 1133 138 c 0,93,94
 1236 89 1236 89 1339 100.5 c 128,-1,95
 1442 112 1442 112 1516 208 c 0,96,97
 1570 278 1570 278 1571.5 371.5 c 128,-1,98
 1573 465 1573 465 1501.5 560 c 128,-1,99
 1430 655 1430 655 1323.5 690 c 128,-1,100
 1217 725 1217 725 1058 715 c 0,101,102
 1036 714 1036 714 1032.5 731.5 c 128,-1,103
 1029 749 1029 749 1049 758 c 2,72,-1
EndSplineSet
EndChar

StartChar: C
Encoding: 67 67 40
Width: 1407
Flags: W
HStem: -26 153<783.418 1075.86> 1169 21G<1146 1153> 1425 61<484.551 696.732>
VStem: 471 224<997.426 1093.25>
LayerCount: 2
Fore
SplineSet
764 241 m 1,0,1
 739 230 739 230 728 245 c 128,-1,2
 717 260 717 260 737 276 c 0,3,4
 853 362 853 362 856 423 c 0,5,6
 859 464 859 464 818.5 520 c 128,-1,7
 778 576 778 576 676 669 c 0,8,9
 469 857 469 857 471 981 c 1,10,11
 471 1095 471 1095 643 1202 c 0,12,13
 649 1205 649 1205 692 1230.5 c 128,-1,14
 735 1256 735 1256 754 1270 c 1,15,16
 763 1278 763 1278 761 1288 c 0,17,18
 730 1425 730 1425 589 1425 c 0,19,20
 446 1425 446 1425 375 1247.5 c 128,-1,21
 304 1070 304 1070 325 860 c 0,22,23
 361 494 361 494 561 310.5 c 128,-1,24
 761 127 761 127 1018 127 c 0,25,26
 1160 127 1160 127 1316 203 c 0,27,28
 1339 214 1339 214 1350 197.5 c 128,-1,29
 1361 181 1361 181 1340 163 c 1,30,31
 1101 -26 1101 -26 794 -26 c 256,32,33
 487 -26 487 -26 287 215.5 c 128,-1,34
 87 457 87 457 72 688 c 0,35,36
 51 1022 51 1022 199 1254 c 128,-1,37
 347 1486 347 1486 573 1486 c 0,38,39
 665 1486 665 1486 720.5 1439.5 c 128,-1,40
 776 1393 776 1393 797 1328 c 0,41,42
 804 1308 804 1308 822 1319 c 1,43,44
 910 1384 910 1384 985 1462 c 1,45,46
 1018 1487 1018 1487 1060.5 1464.5 c 128,-1,47
 1103 1442 1103 1442 1139 1424 c 1,48,49
 1172 1405 1172 1405 1220 1379 c 128,-1,50
 1268 1353 1268 1353 1322 1376 c 1,51,52
 1344 1387 1344 1387 1355.5 1375.5 c 128,-1,53
 1367 1364 1367 1364 1354 1349 c 1,54,55
 1303 1299 1303 1299 1259 1259.5 c 128,-1,56
 1215 1220 1215 1220 1173 1182 c 0,57,58
 1163 1172 1163 1172 1160 1171 c 0,59,60
 1156 1169 1156 1169 1150 1169 c 0,61,62
 1142 1169 1142 1169 1131.5 1176 c 128,-1,63
 1121 1183 1121 1183 1114 1187 c 0,64,65
 941 1271 941 1271 875 1271 c 1,66,67
 827 1269 827 1269 778 1230 c 0,68,69
 696 1166 696 1166 695 1104 c 1,70,71
 692 1026 692 1026 818 917 c 0,72,73
 1080 690 1080 690 1094 555 c 1,74,75
 1104 427 1104 427 764 241 c 1,0,1
EndSplineSet
EndChar

StartChar: D
Encoding: 68 68 41
Width: 1660
Flags: W
LayerCount: 2
Fore
SplineSet
214 105 m 1,0,1
 188 88 188 88 174 106 c 128,-1,2
 160 124 160 124 183 144 c 0,3,4
 355 303 355 303 491 347 c 128,-1,5
 627 391 627 391 849 250 c 0,6,7
 1046 124 1046 124 1198 141.5 c 128,-1,8
 1350 159 1350 159 1420 322 c 0,9,10
 1540 605 1540 605 1349.5 883 c 128,-1,11
 1159 1161 1159 1161 842 1236 c 0,12,13
 622 1288 622 1288 402 1198 c 128,-1,14
 182 1108 182 1108 143 930 c 0,15,16
 95 716 95 716 234.5 619 c 128,-1,17
 374 522 374 522 522 559 c 0,18,19
 541 564 541 564 560 573 c 0,20,21
 587 585 587 585 598.5 565 c 128,-1,22
 610 545 610 545 582 530 c 1,23,24
 544 514 544 514 533 511 c 0,25,26
 391 466 391 466 219 560 c 128,-1,27
 47 654 47 654 47 927 c 0,28,29
 47 1078 47 1078 142 1201.5 c 128,-1,30
 237 1325 237 1325 385 1399.5 c 128,-1,31
 533 1474 533 1474 710.5 1485.5 c 128,-1,32
 888 1497 888 1497 1059 1444 c 1,33,34
 1244 1374 1244 1374 1369.5 1242 c 128,-1,35
 1495 1110 1495 1110 1552 949 c 128,-1,36
 1609 788 1609 788 1592.5 616 c 128,-1,37
 1576 444 1576 444 1478 296 c 0,38,39
 1328 71 1328 71 1113 -3.5 c 128,-1,40
 898 -78 898 -78 566 100 c 0,41,42
 482 145 482 145 394.5 163 c 128,-1,43
 307 181 307 181 214 105 c 1,0,1
788 339 m 1,44,45
 760 325 760 325 749 343.5 c 128,-1,46
 738 362 738 362 760 378 c 0,47,48
 875 456 875 456 801.5 540 c 128,-1,49
 728 624 728 624 666 678 c 0,50,51
 461 853 461 853 532 982 c 128,-1,52
 603 1111 603 1111 760 1198 c 1,53,54
 788 1212 788 1212 799.5 1192.5 c 128,-1,55
 811 1173 811 1173 786 1157 c 0,56,57
 637 1064 637 1064 846 889 c 0,58,59
 1035 731 1035 731 1013 591 c 128,-1,60
 991 451 991 451 788 339 c 1,44,45
EndSplineSet
EndChar

StartChar: E
Encoding: 69 69 42
Width: 1439
Flags: W
HStem: -25 153<784.418 1076.86> 1426 61<484.973 698.23>
VStem: 472 224<998.426 1094.25>
LayerCount: 2
Fore
SplineSet
817 1256 m 0,0,1
 798 1246 798 1246 779 1231 c 0,2,3
 697 1167 697 1167 696 1105 c 1,4,5
 693 1027 693 1027 819 918 c 0,6,7
 871 872 871 872 903 842 c 0,8,9
 910 836 910 836 916 837 c 128,-1,10
 922 838 922 838 927 844 c 0,11,12
 951 874 951 874 991 921 c 0,13,14
 1047 987 1047 987 1100 980 c 128,-1,15
 1153 973 1153 973 1205 934 c 1,16,17
 1295 863 1295 863 1344 894 c 0,18,19
 1370 911 1370 911 1385.5 896.5 c 128,-1,20
 1401 882 1401 882 1383 855 c 1,21,22
 1358 821 1358 821 1332.5 787 c 128,-1,23
 1307 753 1307 753 1273 724 c 0,24,25
 1203 663 1203 663 1120 735 c 1,26,27
 1030 808 1030 808 982 798 c 0,28,29
 973 796 973 796 970 787 c 256,30,31
 967 778 967 778 974 771 c 0,32,33
 1086 648 1086 648 1095 556 c 1,34,35
 1105 428 1105 428 765 242 c 0,36,37
 741 229 741 229 729.5 244 c 128,-1,38
 718 259 718 259 738 277 c 1,39,40
 854 363 854 363 857 424 c 0,41,42
 860 465 860 465 819.5 521 c 128,-1,43
 779 577 779 577 677 670 c 0,44,45
 470 858 470 858 472 982 c 1,46,47
 472 1096 472 1096 644 1203 c 0,48,49
 650 1206 650 1206 693 1231.5 c 128,-1,50
 736 1257 736 1257 755 1271 c 1,51,52
 764 1279 764 1279 762 1289 c 0,53,54
 733 1426 733 1426 590 1426 c 256,55,56
 447 1426 447 1426 369 1248 c 128,-1,57
 291 1070 291 1070 326.5 782.5 c 128,-1,58
 362 495 362 495 562 311.5 c 128,-1,59
 762 128 762 128 1019 128 c 0,60,61
 1161 128 1161 128 1317 204 c 1,62,63
 1342 215 1342 215 1352.5 199 c 128,-1,64
 1363 183 1363 183 1341 164 c 1,65,66
 1102 -25 1102 -25 795 -25 c 256,67,68
 488 -25 488 -25 288 216.5 c 128,-1,69
 88 458 88 458 73 689 c 0,70,71
 52 1023 52 1023 200 1255 c 128,-1,72
 348 1487 348 1487 574 1487 c 0,73,74
 666 1487 666 1487 721.5 1440.5 c 128,-1,75
 777 1394 777 1394 798 1329 c 0,76,77
 801 1320 801 1320 808 1319 c 1,78,79
 813 1317 813 1317 819 1318 c 1,80,-1
 823 1320 l 1,81,82
 911 1385 911 1385 986 1463 c 1,83,84
 1019 1488 1019 1488 1061.5 1465.5 c 128,-1,85
 1104 1443 1104 1443 1140 1425 c 1,86,87
 1173 1406 1173 1406 1223 1380 c 128,-1,88
 1273 1354 1273 1354 1323 1377 c 1,89,90
 1346 1392 1346 1392 1358 1379.5 c 128,-1,91
 1370 1367 1370 1367 1355 1350 c 1,92,93
 1304 1300 1304 1300 1260 1260.5 c 128,-1,94
 1216 1221 1216 1221 1174 1183 c 0,95,96
 1164 1175 1164 1175 1150.5 1175.5 c 128,-1,97
 1137 1176 1137 1176 1115 1188 c 1,98,99
 942 1272 942 1272 876 1272 c 1,100,101
 847 1271 847 1271 817 1256 c 0,0,1
EndSplineSet
EndChar

StartChar: F
Encoding: 70 70 43
Width: 1547
Flags: W
HStem: -246 58<593.789 863.507> 399 49<219.007 310.041> 1156 20G<875.5 893.5> 1278 225<418.576 820.979>
VStem: 865 41<1153.46 1169.62>
LayerCount: 2
Fore
SplineSet
1358 572 m 1,0,1
 1349 563 1349 563 1339 563 c 0,2,3
 1324 563 1324 563 1311.5 581.5 c 128,-1,4
 1299 600 1299 600 1290 610 c 0,5,6
 1206 694 1206 694 1145 644 c 1,7,8
 1133 636 1133 636 1141 622 c 0,9,10
 1183 557 1183 557 1211 498 c 0,11,12
 1271 367 1271 367 1253.5 234 c 128,-1,13
 1236 101 1236 101 1163 -5 c 128,-1,14
 1090 -111 1090 -111 973.5 -178.5 c 128,-1,15
 857 -246 857 -246 719 -246 c 0,16,17
 542 -246 542 -246 414 -162.5 c 128,-1,18
 286 -79 286 -79 275 77 c 1,19,-1
 293 159 l 2,20,21
 302 200 302 200 315 240 c 0,22,23
 351 343 351 343 306 379 c 0,24,25
 281 399 281 399 249 399 c 1,26,27
 219 400 219 400 219 423.5 c 128,-1,28
 219 447 219 447 249 448 c 0,29,30
 274 448 274 448 303 442 c 128,-1,31
 332 436 332 436 357 432 c 1,32,33
 464 409 464 409 523 345.5 c 128,-1,34
 582 282 582 282 541 138 c 1,35,36
 502 5 502 5 530.5 -87 c 128,-1,37
 559 -179 559 -179 715 -188 c 1,38,39
 852 -194 852 -194 928 -111 c 128,-1,40
 1004 -28 1004 -28 1024 107 c 0,41,42
 1038 201 1038 201 983 317 c 128,-1,43
 928 433 928 433 836 550 c 0,44,45
 627 814 627 814 671 925.5 c 128,-1,46
 715 1037 715 1037 865 1170 c 1,47,-1
 865 1171 l 1,48,49
 870 1176 870 1176 881 1176 c 0,50,51
 906 1176 906 1176 906 1152 c 0,52,53
 906 1142 906 1142 897 1133 c 0,54,55
 812 1043 812 1043 888 952 c 0,56,57
 942 886 942 886 994.5 821.5 c 128,-1,58
 1047 757 1047 757 1092 694 c 1,59,60
 1105 678 1105 678 1119 693 c 1,61,62
 1161 746 1161 746 1204 798.5 c 128,-1,63
 1247 851 1247 851 1291 905 c 0,64,65
 1309 927 1309 927 1330 910 c 0,66,67
 1366 880 1366 880 1400.5 849.5 c 128,-1,68
 1435 819 1435 819 1471 789 c 0,69,70
 1480 782 1480 782 1491 772 c 128,-1,71
 1502 762 1502 762 1502 751 c 0,72,73
 1502 742 1502 742 1488.5 727.5 c 128,-1,74
 1475 713 1475 713 1464 701 c 2,75,-1
 1358 572 l 1,0,1
678 583 m 0,76,77
 479 494 479 494 290 573 c 0,78,79
 99 653 99 653 67 883 c 128,-1,80
 35 1113 35 1113 204 1308 c 128,-1,81
 373 1503 373 1503 675 1503 c 0,82,83
 817 1503 817 1503 961 1456 c 128,-1,84
 1105 1409 1105 1409 1252 1331 c 0,85,86
 1349 1280 1349 1280 1442 1312 c 1,87,88
 1462 1320 1462 1320 1472 1323 c 1,89,90
 1494 1327 1494 1327 1499.5 1311 c 128,-1,91
 1505 1295 1505 1295 1481 1276 c 1,92,93
 1409 1224 1409 1224 1336 1173.5 c 128,-1,94
 1263 1123 1263 1123 1193 1069 c 0,95,96
 1168 1049 1168 1049 1138 1068 c 1,97,98
 1048 1134 1048 1134 889.5 1206 c 128,-1,99
 731 1278 731 1278 569 1278 c 0,100,101
 379 1278 379 1278 258.5 1170 c 128,-1,102
 138 1062 138 1062 143.5 894.5 c 128,-1,103
 149 727 149 727 290 634 c 128,-1,104
 431 541 431 541 651 627 c 0,105,106
 669 634 669 634 681 630.5 c 128,-1,107
 693 627 693 627 697.5 618.5 c 128,-1,108
 702 610 702 610 697.5 599.5 c 128,-1,109
 693 589 693 589 678 583 c 0,76,77
EndSplineSet
EndChar

StartChar: G
Encoding: 71 71 44
Width: 1577
Flags: W
HStem: 792 39<904.192 918> 800 137<992 1216> 1417 48<547.893 745.3>
VStem: 61 259<551.74 1011.98>
LayerCount: 2
Fore
SplineSet
1145 1457 m 0,0,1
 1205 1373 1205 1373 1281 1303.5 c 128,-1,2
 1357 1234 1357 1234 1441 1171 c 1,3,4
 1449 1167 1449 1167 1453 1163 c 1,5,6
 1463 1144 1463 1144 1447 1133 c 2,7,-1
 1207 966 l 1,8,9
 1176 941 1176 941 1216 937 c 1,10,11
 1357 932 1357 932 1441 779 c 128,-1,12
 1525 626 1525 626 1517 505 c 0,13,14
 1501 289 1501 289 1311.5 132 c 128,-1,15
 1122 -25 1122 -25 870 -38 c 0,16,17
 546 -56 546 -56 308 160.5 c 128,-1,18
 70 377 70 377 61 689 c 1,19,20
 53 1023 53 1023 225.5 1244 c 128,-1,21
 398 1465 398 1465 624 1465 c 0,22,23
 803 1465 803 1465 875 1311 c 0,24,25
 883 1294 883 1294 900 1305 c 1,26,-1
 1115 1463 l 1,27,28
 1132 1474 1132 1474 1145 1457 c 0,0,1
992 800 m 1,29,30
 965 799 965 799 933 792 c 1,31,32
 910 788 910 788 904 803.5 c 128,-1,33
 898 819 898 819 918 831 c 1,34,-1
 1206 1031 l 2,35,36
 1223 1043 1223 1043 1207 1057 c 1,37,38
 1055 1174 1055 1174 962 1290 c 0,39,40
 953 1302 953 1302 940 1293 c 2,41,-1
 826 1210 l 1,42,43
 718 1130 718 1130 725.5 1032 c 128,-1,44
 733 934 733 934 862 794 c 1,45,46
 1078 556 1078 556 995.5 433 c 128,-1,47
 913 310 913 310 727 211 c 1,48,49
 704 200 704 200 693.5 214.5 c 128,-1,50
 683 229 683 229 702 246 c 0,51,52
 746 288 746 288 796 346 c 128,-1,53
 846 404 846 404 667 623 c 0,54,55
 540 778 540 778 514 871.5 c 128,-1,56
 488 965 488 965 523.5 1027.5 c 128,-1,57
 559 1090 559 1090 637 1136 c 128,-1,58
 715 1182 715 1182 797 1242 c 2,59,-1
 836 1271 l 2,60,61
 846 1278 846 1278 842 1290 c 0,62,63
 798 1420 798 1420 638 1417 c 1,64,65
 495 1413 495 1413 404.5 1248.5 c 128,-1,66
 314 1084 314 1084 320 874 c 0,67,68
 332 480 332 480 502 255.5 c 128,-1,69
 672 31 672 31 928 31 c 0,70,71
 1102 31 1102 31 1195.5 161.5 c 128,-1,72
 1289 292 1289 292 1287 443 c 0,73,74
 1285 568 1285 568 1207.5 684 c 128,-1,75
 1130 800 1130 800 992 800 c 1,29,30
EndSplineSet
EndChar

StartChar: H
Encoding: 72 72 45
Width: 1503
Flags: W
HStem: -274 42<694.101 784.631>
LayerCount: 2
Fore
SplineSet
37 160 m 1,0,1
 24 174 24 174 39 191 c 1,2,3
 147 300 147 300 230.5 337 c 128,-1,4
 314 374 314 374 427 247 c 1,5,6
 496 172 496 172 547.5 149 c 128,-1,7
 599 126 599 126 649 175 c 0,8,9
 708 234 708 234 649.5 323 c 128,-1,10
 591 412 591 412 432 611 c 0,11,12
 251 838 251 838 250.5 978.5 c 128,-1,13
 250 1119 250 1119 476 1307 c 0,14,15
 813 1586 813 1586 954 1382 c 0,16,17
 987 1334 987 1334 1033.5 1306 c 128,-1,18
 1080 1278 1080 1278 1100 1291 c 1,19,20
 1122 1307 1122 1307 1135.5 1292.5 c 128,-1,21
 1149 1278 1149 1278 1128 1257 c 1,22,23
 1029 1167 1029 1167 945.5 1142.5 c 128,-1,24
 862 1118 862 1118 766 1234 c 0,25,26
 699 1315 699 1315 639 1327.5 c 128,-1,27
 579 1340 579 1340 504 1272 c 0,28,29
 415 1192 415 1192 452.5 1077 c 128,-1,30
 490 962 490 962 646 779 c 0,31,32
 656 768 656 768 668 776 c 2,33,-1
 1091 1053 l 2,34,35
 1104 1061 1104 1061 1110.5 1058 c 128,-1,36
 1117 1055 1117 1055 1119 1046 c 1,37,38
 1122 1017 1122 1017 1188 962 c 0,39,40
 1296 870 1296 870 1378.5 737 c 128,-1,41
 1461 604 1461 604 1452 430 c 1,42,43
 1437 172 1437 172 1218 -28.5 c 128,-1,44
 999 -229 999 -229 728 -274 c 0,45,46
 697 -280 697 -280 694 -259 c 128,-1,47
 691 -238 691 -238 718 -232 c 0,48,49
 1086 -142 1086 -142 1184.5 156.5 c 128,-1,50
 1283 455 1283 455 1054 715 c 1,51,52
 986 790 986 790 916 806.5 c 128,-1,53
 846 823 846 823 738 754 c 1,54,-1
 706 735 l 2,55,56
 691 725 691 725 702 711 c 0,57,58
 823 555 823 555 839 430.5 c 128,-1,59
 855 306 855 306 695 155 c 0,60,61
 533 2 533 2 451 -20 c 128,-1,62
 369 -42 369 -42 247 85 c 0,63,64
 216 116 216 116 168 156 c 128,-1,65
 120 196 120 196 69 159 c 0,66,67
 51 147 51 147 37 160 c 1,0,1
EndSplineSet
EndChar

StartChar: I
Encoding: 73 73 46
Width: 1403
Flags: W
HStem: 1299 204<410.815 695.924>
LayerCount: 2
Fore
SplineSet
775 682 m 1,0,1
 784 662 784 662 762 650 c 0,2,3
 540 533 540 533 338 641.5 c 128,-1,4
 136 750 136 750 121.5 960 c 128,-1,5
 107 1170 107 1170 242.5 1333.5 c 128,-1,6
 378 1497 378 1497 621 1503 c 0,7,8
 717 1505 717 1505 812.5 1464.5 c 128,-1,9
 908 1424 908 1424 950 1388 c 1,10,11
 1052 1297 1052 1297 1124.5 1243.5 c 128,-1,12
 1197 1190 1197 1190 1274 1228 c 1,13,14
 1299 1242 1299 1242 1311 1223.5 c 128,-1,15
 1323 1205 1323 1205 1286 1181 c 0,16,17
 1067 1041 1067 1041 1052 934 c 128,-1,18
 1037 827 1037 827 1202 578 c 0,19,20
 1356 345 1356 345 1310.5 177.5 c 128,-1,21
 1265 10 1265 10 1102 -108 c 0,22,23
 945 -221 945 -221 757.5 -239.5 c 128,-1,24
 570 -258 570 -258 405 -111 c 0,25,26
 325 -39 325 -39 257 20.5 c 128,-1,27
 189 80 189 80 90 17 c 1,28,29
 64 -2 64 -2 49 13 c 128,-1,30
 34 28 34 28 52 47 c 0,31,32
 353 353 353 353 640 36 c 1,33,34
 772 -108 772 -108 878 -125 c 128,-1,35
 984 -142 984 -142 1062 -72 c 1,36,37
 1137 -1 1137 -1 1123 105 c 128,-1,38
 1109 211 1109 211 992 391 c 1,39,40
 828 639 828 639 833.5 769 c 128,-1,41
 839 899 839 899 1028 1052 c 0,42,43
 1040 1062 1040 1062 1037 1072 c 128,-1,44
 1034 1082 1034 1082 1018 1081 c 1,45,46
 895 1082 895 1082 785.5 1189 c 128,-1,47
 676 1296 676 1296 517 1299 c 1,48,49
 370 1290 370 1290 292 1198.5 c 128,-1,50
 214 1107 214 1107 230 933 c 128,-1,51
 246 759 246 759 409.5 686.5 c 128,-1,52
 573 614 573 614 741 688 c 0,53,54
 765 699 765 699 775 682 c 1,0,1
EndSplineSet
EndChar

StartChar: J
Encoding: 74 74 47
Width: 1454
Flags: W
HStem: 1299 204<401 685.935>
LayerCount: 2
Fore
SplineSet
775 683 m 1,0,1
 783 663 783 663 758 650 c 0,2,3
 536 533 536 533 332 645 c 128,-1,4
 128 757 128 757 116 974 c 128,-1,5
 104 1191 104 1191 239 1344 c 128,-1,6
 374 1497 374 1497 617 1503 c 0,7,8
 713 1505 713 1505 808.5 1464.5 c 128,-1,9
 904 1424 904 1424 946 1388 c 1,10,11
 1047 1297 1047 1297 1119.5 1245.5 c 128,-1,12
 1192 1194 1192 1194 1271 1228 c 1,13,14
 1298 1242 1298 1242 1309 1224 c 128,-1,15
 1320 1206 1320 1206 1295 1191 c 0,16,17
 1063 1041 1063 1041 1073.5 906.5 c 128,-1,18
 1084 772 1084 772 1235 515 c 1,19,20
 1408 217 1408 217 1337 -13.5 c 128,-1,21
 1266 -244 1266 -244 1103 -364 c 1,22,23
 946 -477 946 -477 758.5 -495.5 c 128,-1,24
 571 -514 571 -514 406 -368 c 0,25,26
 326 -296 326 -296 258 -235.5 c 128,-1,27
 190 -175 190 -175 91 -238 c 1,28,29
 61 -255 61 -255 48.5 -240.5 c 128,-1,30
 36 -226 36 -226 53 -209 c 0,31,32
 353 97 353 97 641 -219 c 0,33,34
 773 -365 773 -365 879 -382 c 128,-1,35
 985 -399 985 -399 1063 -328 c 1,36,37
 1138 -256 1138 -256 1173 -120 c 128,-1,38
 1208 16 1208 16 1022.5 341 c 128,-1,39
 837 666 837 666 849 790 c 128,-1,40
 861 914 861 914 1026 1052 c 0,41,42
 1036 1060 1036 1060 1033 1071 c 128,-1,43
 1030 1082 1030 1082 1016 1081 c 1,44,45
 892 1081 892 1081 767 1196 c 0,46,47
 714 1244 714 1244 649.5 1273.5 c 128,-1,48
 585 1303 585 1303 513 1299 c 0,49,50
 366 1290 366 1290 277.5 1195.5 c 128,-1,51
 189 1101 189 1101 209.5 927 c 128,-1,52
 230 753 230 753 392 680 c 128,-1,53
 554 607 554 607 737 688 c 0,54,55
 765 700 765 700 775 683 c 1,0,1
EndSplineSet
EndChar

StartChar: K
Encoding: 75 75 48
Width: 1662
Flags: W
HStem: 530 39<862.255 878> 1412 43<837.783 1129.67>
VStem: 635 37<834.6 967.844> 1490 112<753.154 1113.11>
LayerCount: 2
Fore
SplineSet
1163 725 m 2,0,1
 1172 730 1172 730 1172.5 739.5 c 128,-1,2
 1173 749 1173 749 1162 754 c 0,3,4
 1097 787 1097 787 1046 923 c 0,5,6
 1005 1030 1005 1030 920 1064.5 c 128,-1,7
 835 1099 835 1099 755 1045 c 0,8,9
 674 991 674 991 672 876.5 c 128,-1,10
 670 762 670 762 734 677 c 1,11,12
 869 489 869 489 845 369.5 c 128,-1,13
 821 250 821 250 695 136 c 1,14,15
 543 -4 543 -4 438.5 -25.5 c 128,-1,16
 334 -47 334 -47 232 88 c 0,17,18
 145 204 145 204 79 153 c 1,19,20
 54 135 54 135 40.5 149 c 128,-1,21
 27 163 27 163 47 184 c 0,22,23
 56 193 56 193 138 262 c 128,-1,24
 220 331 220 331 288 331 c 128,-1,25
 356 331 356 331 442 226 c 0,26,27
 495 160 495 160 544 136 c 128,-1,28
 593 112 593 112 653 163 c 0,29,30
 710 212 710 212 650.5 314.5 c 128,-1,31
 591 417 591 417 483 537 c 0,32,33
 386 644 386 644 339.5 778.5 c 128,-1,34
 293 913 293 913 320 1009 c 0,35,36
 377 1217 377 1217 573.5 1337.5 c 128,-1,37
 770 1458 770 1458 997 1455 c 1,38,39
 1260 1457 1260 1457 1427 1299.5 c 128,-1,40
 1594 1142 1594 1142 1602 917 c 0,41,42
 1605 805 1605 805 1535 720.5 c 128,-1,43
 1465 636 1465 636 1364 582 c 0,44,45
 1333 566 1333 566 1322 585 c 128,-1,46
 1311 604 1311 604 1338 619 c 1,47,48
 1440 682 1440 682 1466.5 751 c 128,-1,49
 1493 820 1493 820 1490 928 c 0,50,51
 1484 1113 1484 1113 1349 1258.5 c 128,-1,52
 1214 1404 1214 1404 995 1412 c 1,53,54
 726 1409 726 1409 601 1226 c 128,-1,55
 476 1043 476 1043 605 842 c 0,56,57
 612 830 612 830 624 833 c 1,58,59
 636 838 636 838 635 852 c 0,60,61
 626 942 626 942 662.5 1042 c 128,-1,62
 699 1142 699 1142 822.5 1201 c 128,-1,63
 946 1260 946 1260 1079 1211 c 128,-1,64
 1212 1162 1212 1162 1269 1050 c 0,65,66
 1313 962 1313 962 1336.5 908.5 c 128,-1,67
 1360 855 1360 855 1390 859 c 0,68,69
 1413 863 1413 863 1418.5 846 c 128,-1,70
 1424 829 1424 829 1401 817 c 1,71,-1
 1165 682 l 2,72,73
 1155 676 1155 676 1155 667 c 128,-1,74
 1155 658 1155 658 1166 653 c 0,75,76
 1222 623 1222 623 1273 531 c 128,-1,77
 1324 439 1324 439 1378 301 c 0,78,79
 1449 117 1449 117 1567 160 c 1,80,81
 1599 174 1599 174 1609.5 156 c 128,-1,82
 1620 138 1620 138 1589 119 c 2,83,-1
 1351 -34 l 2,84,85
 1342 -39 1342 -39 1333 -34 c 0,86,87
 1238 29 1238 29 1178 130 c 128,-1,88
 1118 231 1118 231 1078 363 c 0,89,90
 1050 455 1050 455 1003 504.5 c 128,-1,91
 956 554 956 554 898 530 c 1,92,93
 870 520 870 520 862 538 c 128,-1,94
 854 556 854 556 878 569 c 2,95,-1
 1163 725 l 2,0,1
EndSplineSet
EndChar

StartChar: L
Encoding: 76 76 49
Width: 1171
Flags: W
HStem: 191 47<40.7076 115.492> 1397 44<524.453 740.65>
LayerCount: 2
Fore
SplineSet
72 191 m 1,0,1
 47 184 47 184 40.5 205 c 128,-1,2
 34 226 34 226 66 238 c 0,3,4
 123 261 123 261 178 300.5 c 128,-1,5
 233 340 233 340 303 428.5 c 128,-1,6
 373 517 373 517 318.5 604.5 c 128,-1,7
 264 692 264 692 204 782 c 1,8,9
 151 857 151 857 128.5 942 c 128,-1,10
 106 1027 106 1027 128 1102 c 0,11,12
 172 1255 172 1255 308.5 1348 c 128,-1,13
 445 1441 445 1441 655 1441 c 0,14,15
 1117 1440 1117 1440 1113 1032 c 0,16,17
 1112 841 1112 841 952.5 754.5 c 128,-1,18
 793 668 793 668 616 757 c 1,19,20
 583 772 583 772 591.5 790.5 c 128,-1,21
 600 809 600 809 626 799 c 0,22,23
 728 757 728 757 821 810 c 128,-1,24
 914 863 914 863 923 1014 c 0,25,26
 933 1191 933 1191 856.5 1289.5 c 128,-1,27
 780 1388 780 1388 651 1397 c 1,28,29
 525 1397 525 1397 445 1327.5 c 128,-1,30
 365 1258 365 1258 365 1165 c 0,31,32
 365 1102 365 1102 391 1046 c 128,-1,33
 417 990 417 990 450 938 c 0,34,35
 510 841 510 841 538.5 717 c 128,-1,36
 567 593 567 593 359 431 c 0,37,38
 349 423 349 423 350.5 414 c 128,-1,39
 352 405 352 405 364 402 c 1,40,41
 506 352 506 352 628 250 c 0,42,43
 745 152 745 152 875.5 154 c 128,-1,44
 1006 156 1006 156 1075 257 c 0,45,46
 1091 280 1091 280 1110.5 269.5 c 128,-1,47
 1130 259 1130 259 1115 235 c 1,48,49
 1066 165 1066 165 996.5 95 c 128,-1,50
 927 25 927 25 834.5 -8 c 128,-1,51
 742 -41 742 -41 627 -20.5 c 128,-1,52
 512 0 512 0 373 112 c 0,53,54
 298 172 298 172 224 198 c 128,-1,55
 150 224 150 224 72 191 c 1,0,1
EndSplineSet
EndChar

StartChar: M
Encoding: 77 77 50
Width: 2265
Flags: W
HStem: 942 41<2135.01 2200.45> 1310 119<1616.23 1759.54>
VStem: 51 49<856.688 1081.3> 564 51<530.613 619.463> 875 192<537.516 849.589>
LayerCount: 2
Fore
SplineSet
564 553 m 0,0,1
 566 609 566 609 537.5 622.5 c 128,-1,2
 509 636 509 636 417 615 c 0,3,4
 275 581 275 581 163 678 c 128,-1,5
 51 775 51 775 51 967 c 1,6,7
 52 1158 52 1158 190 1297 c 128,-1,8
 328 1436 328 1436 520 1436 c 0,9,10
 607 1436 607 1436 709 1393 c 128,-1,11
 811 1350 811 1350 883 1265 c 0,12,13
 889 1257 889 1257 896 1258 c 128,-1,14
 903 1259 903 1259 908 1267 c 0,15,16
 952 1339 952 1339 1021.5 1388 c 128,-1,17
 1091 1437 1091 1437 1206 1434 c 1,18,19
 1355 1427 1355 1427 1473 1250 c 0,20,21
 1479 1241 1479 1241 1488 1241 c 128,-1,22
 1497 1241 1497 1241 1502 1251 c 0,23,24
 1544 1329 1544 1329 1608 1379 c 128,-1,25
 1672 1429 1672 1429 1768 1429 c 1,26,27
 1891 1427 1891 1427 1971 1354 c 128,-1,28
 2051 1281 2051 1281 2087 1109 c 1,29,30
 2109 990 2109 990 2179 983 c 0,31,32
 2199 982 2199 982 2200.5 966 c 128,-1,33
 2202 950 2202 950 2176 942 c 0,34,35
 1982 876 1982 876 1909 730.5 c 128,-1,36
 1836 585 1836 585 1915 360 c 0,37,38
 1950 258 1950 258 2015.5 216.5 c 128,-1,39
 2081 175 2081 175 2159 223 c 0,40,41
 2188 240 2188 240 2202.5 222.5 c 128,-1,42
 2217 205 2217 205 2197 188 c 0,43,44
 2129 134 2129 134 2062.5 80.5 c 128,-1,45
 1996 27 1996 27 1929 -26 c 0,46,47
 1918 -34 1918 -34 1908 -26 c 0,48,49
 1695 145 1695 145 1651.5 354 c 128,-1,50
 1608 563 1608 563 1927 849 c 0,51,52
 1934 856 1934 856 1933.5 863 c 128,-1,53
 1933 870 1933 870 1924 875 c 0,54,55
 1854 922 1854 922 1821 1116 c 1,56,57
 1786 1308 1786 1308 1665 1310 c 0,58,59
 1579 1312 1579 1312 1519 1184 c 0,60,61
 1515 1177 1515 1177 1519 1170 c 0,62,63
 1558 1087 1558 1087 1575.5 985 c 128,-1,64
 1593 883 1593 883 1577 769 c 0,65,66
 1537 493 1537 493 1458.5 352.5 c 128,-1,67
 1380 212 1380 212 1272 72 c 1,68,69
 1129 -107 1129 -107 1002 33 c 0,70,71
 966 73 966 73 926.5 85 c 128,-1,72
 887 97 887 97 836 57 c 0,73,74
 817 41 817 41 803.5 53.5 c 128,-1,75
 790 66 790 66 805 85 c 1,76,77
 933 263 933 263 1008.5 288 c 128,-1,78
 1084 313 1084 313 1156 246 c 0,79,80
 1215 191 1215 191 1264.5 187 c 128,-1,81
 1314 183 1314 183 1342 261 c 0,82,83
 1396 411 1396 411 1380.5 680.5 c 128,-1,84
 1365 950 1365 950 1271.5 1094 c 128,-1,85
 1178 1238 1178 1238 1093.5 1263.5 c 128,-1,86
 1009 1289 1009 1289 940 1219 c 0,87,88
 930 1209 930 1209 939 1198 c 0,89,90
 1058 1033 1058 1033 1067 816 c 1,91,92
 1073 638 1073 638 998 474.5 c 128,-1,93
 923 311 923 311 805 161 c 0,94,95
 676 -3 676 -3 560.5 -27 c 128,-1,96
 445 -51 445 -51 349 90 c 1,97,98
 265 216 265 216 178 121 c 1,99,100
 157 103 157 103 140.5 120 c 128,-1,101
 124 137 124 137 145 159 c 0,102,103
 418 437 418 437 574 232 c 0,104,105
 599 198 599 198 621.5 169 c 128,-1,106
 644 140 644 140 689 142 c 0,107,108
 747 144 747 144 811 269 c 128,-1,109
 875 394 875 394 875 584 c 1,110,111
 873 833 873 833 745 1020.5 c 128,-1,112
 617 1208 617 1208 452 1226 c 0,113,114
 287 1243 287 1243 192 1164 c 128,-1,115
 97 1085 97 1085 100 977 c 0,116,117
 103 867 103 867 158.5 801 c 128,-1,118
 214 735 214 735 364 774 c 0,119,120
 653 848 653 848 615 561 c 0,121,122
 611 531 611 531 587.5 530.5 c 128,-1,123
 564 530 564 530 564 553 c 0,0,1
EndSplineSet
EndChar

StartChar: N
Encoding: 78 78 51
Width: 1808
Flags: W
HStem: 951 42<1670.24 1734.39> 1292 145<1141.61 1296.46>
VStem: 53 49<865.688 1090.32> 566 51<535.068 628.463> 877 192<529.608 860.351>
LayerCount: 2
Fore
SplineSet
566 562 m 0,0,1
 568 618 568 618 539.5 631.5 c 128,-1,2
 511 645 511 645 419 624 c 1,3,4
 277 589 277 589 165 686.5 c 128,-1,5
 53 784 53 784 53 976 c 0,6,7
 54 1179 54 1179 179.5 1311.5 c 128,-1,8
 305 1444 305 1444 522 1445 c 0,9,10
 629 1445 629 1445 749.5 1379 c 128,-1,11
 870 1313 870 1313 954 1187 c 0,12,13
 959 1180 959 1180 969 1180 c 0,14,15
 980 1181 980 1181 983 1190 c 0,16,17
 1022 1282 1022 1282 1101 1359.5 c 128,-1,18
 1180 1437 1180 1437 1281 1437 c 0,19,20
 1441 1437 1441 1437 1508.5 1362 c 128,-1,21
 1576 1287 1576 1287 1619 1118 c 1,22,23
 1643 1001 1643 1001 1712 993 c 1,24,25
 1733 992 1733 992 1734.5 976 c 128,-1,26
 1736 960 1736 960 1711 951 c 0,27,28
 1518 885 1518 885 1447 740 c 128,-1,29
 1376 595 1376 595 1457 370 c 0,30,31
 1494 268 1494 268 1560.5 226.5 c 128,-1,32
 1627 185 1627 185 1705 233 c 0,33,34
 1734 251 1734 251 1748 234 c 128,-1,35
 1762 217 1762 217 1742 199 c 1,36,37
 1676 145 1676 145 1609.5 91 c 128,-1,38
 1543 37 1543 37 1477 -17 c 0,39,40
 1467 -25 1467 -25 1456 -17 c 0,41,42
 1227 152 1227 152 1192.5 362 c 128,-1,43
 1158 572 1158 572 1462 859 c 0,44,45
 1471 867 1471 867 1470 873.5 c 128,-1,46
 1469 880 1469 880 1461 885 c 0,47,48
 1390 929 1390 929 1352 1127 c 1,49,50
 1332 1225 1332 1225 1293.5 1258.5 c 128,-1,51
 1255 1292 1255 1292 1181 1292 c 0,52,53
 1121 1292 1121 1292 1074.5 1240 c 128,-1,54
 1028 1188 1028 1188 1003 1113 c 0,55,56
 1001 1105 1001 1105 1004 1100 c 0,57,58
 1063 973 1063 973 1069 825 c 1,59,60
 1075 647 1075 647 1004 475.5 c 128,-1,61
 933 304 933 304 811 163 c 1,62,63
 678 6 678 6 562.5 -18 c 128,-1,64
 447 -42 447 -42 351 99 c 1,65,66
 267 225 267 225 180 130 c 1,67,68
 158 109 158 109 142 127.5 c 128,-1,69
 126 146 126 146 147 168 c 0,70,71
 420 446 420 446 576 241 c 0,72,73
 601 207 601 207 623.5 178 c 128,-1,74
 646 149 646 149 691 152 c 1,75,76
 749 153 749 153 813 278 c 128,-1,77
 877 403 877 403 877 593 c 1,78,79
 875 842 875 842 747 1029.5 c 128,-1,80
 619 1217 619 1217 454 1234 c 0,81,82
 289 1252 289 1252 194 1173.5 c 128,-1,83
 99 1095 99 1095 102 986 c 0,84,85
 105 876 105 876 160.5 810 c 128,-1,86
 216 744 216 744 366 783 c 0,87,88
 655 857 655 857 617 570 c 1,89,90
 611 533 611 533 588 535 c 128,-1,91
 565 537 565 537 566 562 c 0,0,1
EndSplineSet
EndChar

StartChar: O
Encoding: 79 79 52
Width: 1544
Flags: W
LayerCount: 2
Fore
SplineSet
61 239 m 1,0,1
 280 413 280 413 364 407 c 128,-1,2
 448 401 448 401 655 249 c 0,3,4
 859 99 859 99 1007 119 c 128,-1,5
 1155 139 1155 139 1254 278 c 1,6,7
 1346 409 1346 409 1302.5 646.5 c 128,-1,8
 1259 884 1259 884 1019 1056 c 0,9,10
 850 1176 850 1176 674 1208 c 128,-1,11
 498 1240 498 1240 351 1150 c 0,12,13
 258 1093 258 1093 271 990.5 c 128,-1,14
 284 888 284 888 430 834 c 0,15,16
 703 734 703 734 716 623.5 c 128,-1,17
 729 513 729 513 565 378 c 0,18,19
 546 362 546 362 534 372.5 c 128,-1,20
 522 383 522 383 536 399 c 0,21,22
 586 456 586 456 536 493.5 c 128,-1,23
 486 531 486 531 315 597 c 1,24,25
 62 693 62 693 68 878.5 c 128,-1,26
 74 1064 74 1064 305 1185 c 1,27,28
 450 1253 450 1253 544 1311 c 128,-1,29
 638 1369 638 1369 687 1459 c 0,30,31
 692 1468 692 1468 704 1467 c 0,32,33
 944 1436 944 1436 1140.5 1302 c 128,-1,34
 1337 1168 1337 1168 1416 964 c 1,35,36
 1495 757 1495 757 1453.5 565 c 128,-1,37
 1412 373 1412 373 1290 242 c 0,38,39
 1086 21 1086 21 862 -13 c 128,-1,40
 638 -47 638 -47 416 94 c 0,41,42
 317 156 317 156 234.5 204.5 c 128,-1,43
 152 253 152 253 80 208 c 0,44,45
 65 199 65 199 54.5 211.5 c 128,-1,46
 44 224 44 224 61 239 c 1,0,1
EndSplineSet
EndChar

StartChar: P
Encoding: 80 80 53
Width: 1826
Flags: W
HStem: 651 47<273.336 528.468> 1250 185<287.741 557.234>
VStem: 31 68<847.629 1115.5> 774 182<361.126 524.674>
LayerCount: 2
Fore
SplineSet
575 751 m 0,0,1
 596 768 596 768 611 753 c 128,-1,2
 626 738 626 738 600 711 c 1,3,4
 560 675 560 675 508 663.5 c 128,-1,5
 456 652 456 652 403 651 c 0,6,7
 243 647 243 647 137 746.5 c 128,-1,8
 31 846 31 846 31 1017.5 c 128,-1,9
 31 1189 31 1189 164 1312 c 128,-1,10
 297 1435 297 1435 525 1435 c 1,11,12
 663 1432 663 1432 757 1366 c 128,-1,13
 851 1300 851 1300 904 1210 c 1,14,15
 911 1196 911 1196 925 1204 c 2,16,-1
 1358 1429 l 1,17,18
 1387 1442 1387 1442 1400 1425.5 c 128,-1,19
 1413 1409 1413 1409 1393 1393 c 1,20,21
 1322 1342 1322 1342 1374.5 1251.5 c 128,-1,22
 1427 1161 1427 1161 1546 1065 c 1,23,24
 1783 869 1783 869 1770.5 666 c 128,-1,25
 1758 463 1758 463 1623 277 c 1,26,27
 1469 68 1469 68 1319 -0.5 c 128,-1,28
 1169 -69 1169 -69 962 46 c 0,29,30
 954 51 954 51 946.5 47 c 128,-1,31
 939 43 939 43 938 35 c 0,32,33
 923 -91 923 -91 886.5 -176 c 128,-1,34
 850 -261 850 -261 775 -332 c 0,35,36
 761 -345 761 -345 749 -336 c 128,-1,37
 737 -327 737 -327 747 -310 c 1,38,39
 824 -149 824 -149 798 121 c 0,40,41
 798 130 798 130 788 134 c 0,42,43
 588 212 588 212 489 116 c 0,44,45
 472 99 472 99 456.5 110.5 c 128,-1,46
 441 122 441 122 455 141 c 0,47,48
 611 344 611 344 759 356 c 0,49,50
 767 357 767 357 770.5 361 c 128,-1,51
 774 365 774 365 774 374 c 0,52,53
 762 503 762 503 749.5 631.5 c 128,-1,54
 737 760 737 760 725 889 c 1,55,56
 710 1035 710 1035 626 1141.5 c 128,-1,57
 542 1248 542 1248 417 1250 c 1,58,59
 283 1257 283 1257 191 1184.5 c 128,-1,60
 99 1112 99 1112 99 981 c 128,-1,61
 99 850 99 850 183.5 774 c 128,-1,62
 268 698 268 698 409 698 c 1,63,64
 510 696 510 696 575 751 c 0,0,1
938 1137 m 1,65,66
 955 1091 955 1091 961.5 1045 c 128,-1,67
 968 999 968 999 970 958 c 0,68,69
 976 745 976 745 967.5 597 c 128,-1,70
 959 449 959 449 956 326 c 0,71,72
 956 314 956 314 965 311 c 0,73,74
 1014 289 1014 289 1072 255 c 0,75,76
 1275 138 1275 138 1394.5 162 c 128,-1,77
 1514 186 1514 186 1586 300 c 0,78,79
 1744 550 1744 550 1389 837 c 1,80,81
 1268 933 1268 933 1185.5 1022 c 128,-1,82
 1103 1111 1103 1111 1097 1209 c 0,83,84
 1097 1221 1097 1221 1089 1224 c 128,-1,85
 1081 1227 1081 1227 1073 1223 c 2,86,-1
 946 1157 l 2,87,88
 932 1150 932 1150 938 1137 c 1,65,66
EndSplineSet
EndChar

StartChar: Q
Encoding: 81 81 54
Width: 1633
Flags: W
LayerCount: 2
Fore
SplineSet
59 239 m 1,0,1
 278 413 278 413 362 407.5 c 128,-1,2
 446 402 446 402 653 251 c 0,3,4
 913 60 913 60 1100 145 c 0,5,6
 1110 149 1110 149 1109.5 158 c 128,-1,7
 1109 167 1109 167 1104 171 c 1,8,9
 1056 225 1056 225 1003.5 242.5 c 128,-1,10
 951 260 951 260 885 217 c 1,11,12
 861 203 861 203 848 216 c 128,-1,13
 835 229 835 229 854 246 c 0,14,15
 1008 392 1008 392 1091 404.5 c 128,-1,16
 1174 417 1174 417 1255 328 c 0,17,18
 1261 321 1261 321 1269.5 322.5 c 128,-1,19
 1278 324 1278 324 1283 333 c 0,20,21
 1345 474 1345 474 1290 687.5 c 128,-1,22
 1235 901 1235 901 1017 1058 c 1,23,24
 848 1178 848 1178 672 1210 c 128,-1,25
 496 1242 496 1242 349 1152 c 0,26,27
 256 1094 256 1094 269 991 c 128,-1,28
 282 888 282 888 428 835 c 0,29,30
 701 735 701 735 714 624.5 c 128,-1,31
 727 514 727 514 563 379 c 1,32,33
 546 363 546 363 533.5 373.5 c 128,-1,34
 521 384 521 384 534 401 c 1,35,36
 584 457 584 457 534 494.5 c 128,-1,37
 484 532 484 532 313 598 c 1,38,39
 60 694 60 694 66 879.5 c 128,-1,40
 72 1065 72 1065 303 1186 c 0,41,42
 451 1263 451 1263 543.5 1317 c 128,-1,43
 636 1371 636 1371 685 1461 c 1,44,45
 692 1470 692 1470 702 1469 c 0,46,47
 942 1437 942 1437 1138.5 1303 c 128,-1,48
 1335 1169 1335 1169 1414 966 c 0,49,50
 1489 772 1489 772 1456 590 c 128,-1,51
 1423 408 1423 408 1317 277 c 1,52,53
 1308 264 1308 264 1318 255 c 0,54,55
 1390 180 1390 180 1440 187 c 128,-1,56
 1490 194 1490 194 1535 251 c 1,57,58
 1550 272 1550 272 1570.5 260 c 128,-1,59
 1591 248 1591 248 1573 220 c 0,60,61
 1475 76 1475 76 1385 12 c 128,-1,62
 1295 -52 1295 -52 1159 105 c 1,63,64
 1148 115 1148 115 1137 108 c 0,65,66
 787 -142 787 -142 414 94 c 0,67,68
 315 157 315 157 232.5 205.5 c 128,-1,69
 150 254 150 254 78 210 c 0,70,71
 63 200 63 200 53 212.5 c 128,-1,72
 43 225 43 225 59 239 c 1,0,1
EndSplineSet
EndChar

StartChar: R
Encoding: 82 82 55
Width: 1905
Flags: W
HStem: 624 35<1125.41 1144>
VStem: 48 83<766.902 1086.32> 892 192<455.508 930.168>
LayerCount: 2
Fore
SplineSet
226 142 m 0,0,1
 209 128 209 128 198 140.5 c 128,-1,2
 187 153 187 153 204 171 c 0,3,4
 361 337 361 337 448.5 331.5 c 128,-1,5
 536 326 536 326 591 254 c 1,6,7
 660 161 660 161 709.5 148.5 c 128,-1,8
 759 136 759 136 800 185 c 0,9,10
 873 273 873 273 892 396 c 128,-1,11
 911 519 911 519 905 659 c 0,12,13
 898 827 898 827 831.5 967 c 128,-1,14
 765 1107 765 1107 605 1181 c 1,15,16
 414 1268 414 1268 271.5 1183.5 c 128,-1,17
 129 1099 129 1099 131 926 c 1,18,19
 131 807 131 807 203 722 c 128,-1,20
 275 637 275 637 405 621 c 0,21,22
 540 604 540 604 653 684 c 0,23,24
 667 693 667 693 675 681.5 c 128,-1,25
 683 670 683 670 664 652 c 1,26,27
 551 563 551 563 393 573 c 0,28,29
 241 583 241 583 146.5 679 c 128,-1,30
 52 775 52 775 48 931 c 1,31,32
 52 1215 52 1215 260.5 1348 c 128,-1,33
 469 1481 469 1481 707 1413 c 1,34,35
 882 1361 882 1361 990 1176 c 0,36,37
 996 1165 996 1165 1005.5 1165 c 128,-1,38
 1015 1165 1015 1165 1020 1180 c 0,39,40
 1061 1316 1061 1316 1189 1395 c 128,-1,41
 1317 1474 1317 1474 1467 1398 c 128,-1,42
 1617 1322 1617 1322 1670 1144 c 1,43,44
 1716 1006 1716 1006 1759 1024 c 0,45,46
 1780 1032 1780 1032 1790.5 1016.5 c 128,-1,47
 1801 1001 1801 1001 1774 985 c 2,48,-1
 1425 780 l 2,49,50
 1417 776 1417 776 1417 768 c 1,51,52
 1415 760 1415 760 1421 754 c 0,53,54
 1554 636 1554 636 1582 457 c 1,55,56
 1626 281 1626 281 1683 208 c 128,-1,57
 1740 135 1740 135 1812 195 c 0,58,59
 1832 211 1832 211 1846 194 c 128,-1,60
 1860 177 1860 177 1835 158 c 0,61,62
 1771 112 1771 112 1708 64.5 c 128,-1,63
 1645 17 1645 17 1582 -28 c 0,64,65
 1576 -33 1576 -33 1566 -30 c 0,66,67
 1395 31 1395 31 1323 350 c 1,68,69
 1294 492 1294 492 1257 566 c 128,-1,70
 1220 640 1220 640 1153 624 c 1,71,72
 1128 617 1128 617 1124.5 631.5 c 128,-1,73
 1121 646 1121 646 1144 659 c 1,74,-1
 1519 893 l 2,75,76
 1525 897 1525 897 1527 906 c 1,77,78
 1527 911 1527 911 1522 920 c 1,79,80
 1475 962 1475 962 1436 1008 c 128,-1,81
 1397 1054 1397 1054 1384 1114 c 0,82,83
 1360 1222 1360 1222 1289 1269 c 128,-1,84
 1218 1316 1218 1316 1144 1277 c 0,85,86
 1072 1239 1072 1239 1058.5 1154 c 128,-1,87
 1045 1069 1045 1069 1063 997 c 0,88,89
 1107 820 1107 820 1084 630 c 1,90,91
 1065 484 1065 484 991.5 358.5 c 128,-1,92
 918 233 918 233 795 102 c 128,-1,93
 672 -29 672 -29 568 -21 c 128,-1,94
 464 -13 464 -13 397 75 c 0,95,96
 341 149 341 149 298.5 157.5 c 128,-1,97
 256 166 256 166 226 142 c 0,0,1
EndSplineSet
EndChar

StartChar: S
Encoding: 83 83 56
Width: 1553
Flags: W
HStem: -23 251<630.921 1075.47>
VStem: 56 156<594.252 908.882>
LayerCount: 2
Fore
SplineSet
1382 1348 m 1,0,1
 1405 1376 1405 1376 1428.5 1357.5 c 128,-1,2
 1452 1339 1452 1339 1425 1313 c 0,3,4
 1349 1241 1349 1241 1298.5 1194.5 c 128,-1,5
 1248 1148 1248 1148 1205 1124 c 0,6,7
 1127 1079 1127 1079 1052.5 1097.5 c 128,-1,8
 978 1116 978 1116 842 1185 c 0,9,10
 700 1257 700 1257 584 1262.5 c 128,-1,11
 468 1268 468 1268 367 1171 c 0,12,13
 268 1076 268 1076 238.5 980.5 c 128,-1,14
 209 885 209 885 212 783 c 0,15,16
 219 543 219 543 425.5 381.5 c 128,-1,17
 632 220 632 220 936 228 c 1,18,19
 1149 232 1149 232 1303 324 c 128,-1,20
 1457 416 1457 416 1432 599 c 1,21,22
 1411 744 1411 744 1282 753.5 c 128,-1,23
 1153 763 1153 763 996 663 c 0,24,25
 790 532 790 532 697 547 c 128,-1,26
 604 562 604 562 439 789 c 0,27,28
 419 815 419 815 438 826 c 128,-1,29
 457 837 457 837 475 810 c 0,30,31
 535 721 535 721 629.5 756.5 c 128,-1,32
 724 792 724 792 838 858 c 1,33,34
 915 901 915 901 983 936.5 c 128,-1,35
 1051 972 1051 972 1156 947 c 1,36,37
 1256 922 1256 922 1351.5 840 c 128,-1,38
 1447 758 1447 758 1477 632 c 1,39,40
 1502 522 1502 522 1473 432 c 128,-1,41
 1444 342 1444 342 1396 270 c 0,42,43
 1307 135 1307 135 1156.5 56 c 128,-1,44
 1006 -23 1006 -23 813 -23 c 0,45,46
 528 -23 528 -23 289 168 c 128,-1,47
 50 359 50 359 56 696 c 0,48,49
 64 1173 64 1173 770 1455 c 0,50,51
 804 1469 804 1469 841 1451 c 0,52,53
 1151 1298 1151 1298 1249.5 1301 c 128,-1,54
 1348 1304 1348 1304 1382 1348 c 1,0,1
EndSplineSet
EndChar

StartChar: T
Encoding: 84 84 57
Width: 1533
Flags: W
HStem: 674 39<285.418 488.016> 1288 174<351.51 652.002>
VStem: 49 63<855.855 1119.64>
LayerCount: 2
Fore
SplineSet
539 711 m 0,0,1
 486 674 486 674 385 674 c 1,2,3
 243 677 243 677 146 768 c 128,-1,4
 49 859 49 859 49 993 c 0,5,6
 49 1187 49 1187 202 1324 c 128,-1,7
 355 1461 355 1461 588 1462 c 0,8,9
 786 1463 786 1463 961.5 1369 c 128,-1,10
 1137 1275 1137 1275 1269 1180 c 1,11,12
 1361 1111 1361 1111 1439 1180 c 0,13,14
 1461 1200 1461 1200 1477 1184.5 c 128,-1,15
 1493 1169 1493 1169 1474 1151 c 1,16,-1
 1302 1007 l 1,17,18
 1187 923 1187 923 1039 1021 c 1,19,20
 896 1120 896 1120 738.5 1204 c 128,-1,21
 581 1288 581 1288 450 1288 c 0,22,23
 296 1288 296 1288 204.5 1201 c 128,-1,24
 113 1114 113 1114 112 1003 c 1,25,26
 107 740 107 740 377 713 c 1,27,28
 454 704 454 704 515 748 c 1,29,30
 538 762 538 762 549 744 c 128,-1,31
 560 726 560 726 539 711 c 0,0,1
103 392 m 1,32,33
 223 489 223 489 308 524 c 1,34,35
 430 576 430 576 497 506 c 0,36,37
 683 314 683 314 808 226.5 c 128,-1,38
 933 139 933 139 1024.5 120 c 128,-1,39
 1116 101 1116 101 1186 133 c 128,-1,40
 1256 165 1256 165 1333 212 c 1,41,42
 1363 232 1363 232 1376 214.5 c 128,-1,43
 1389 197 1389 197 1366 178 c 0,44,45
 1270 99 1270 99 1164 41.5 c 128,-1,46
 1058 -16 1058 -16 931.5 -17.5 c 128,-1,47
 805 -19 805 -19 652 52 c 128,-1,48
 499 123 499 123 309 303 c 0,49,50
 246 364 246 364 185 363 c 0,51,52
 152 363 152 363 115 345 c 0,53,54
 91 334 91 334 82.5 352 c 128,-1,55
 74 370 74 370 103 392 c 1,32,33
784 1113 m 0,56,57
 711 1056 711 1056 745 992.5 c 128,-1,58
 779 929 779 929 891 843 c 0,59,60
 1085 693 1085 693 1069.5 558 c 128,-1,61
 1054 423 1054 423 796 327 c 1,62,63
 775 318 775 318 765.5 333 c 128,-1,64
 756 348 756 348 775 360 c 0,65,66
 873 423 873 423 846.5 496 c 128,-1,67
 820 569 820 569 696 664 c 1,68,69
 550 773 550 773 536.5 895.5 c 128,-1,70
 523 1018 523 1018 758 1144 c 0,71,72
 782 1157 782 1157 794 1143.5 c 128,-1,73
 806 1130 806 1130 784 1113 c 0,56,57
EndSplineSet
EndChar

StartChar: U
Encoding: 85 85 58
Width: 1460
Flags: W
HStem: 1381 48<448.65 613.344>
VStem: 976 242<193.932 263.904 295.848 1156.9>
LayerCount: 2
Fore
SplineSet
1153 -14 m 1,0,1
 1052 35 1052 35 1018 78 c 0,2,3
 982 125 982 125 978 247 c 0,4,5
 978 261 978 261 968.5 264 c 128,-1,6
 959 267 959 267 950 257 c 0,7,8
 908 212 908 212 865.5 167.5 c 128,-1,9
 823 123 823 123 781 78 c 0,10,11
 585 -126 585 -126 370 103 c 0,12,13
 295 182 295 182 222 207.5 c 128,-1,14
 149 233 149 233 80 172 c 1,15,16
 62 158 62 158 49.5 172 c 128,-1,17
 37 186 37 186 56 203 c 2,18,-1
 309 416 l 1,19,-1
 310 417 l 1,20,21
 437 539 437 539 403.5 629.5 c 128,-1,22
 370 720 370 720 283 810 c 1,23,24
 209 885 209 885 158 992.5 c 128,-1,25
 107 1100 107 1100 187 1234 c 0,26,27
 250 1339 250 1339 354 1385.5 c 128,-1,28
 458 1432 458 1432 536 1429 c 0,29,30
 676 1423 676 1423 712 1314.5 c 128,-1,31
 748 1206 748 1206 652 1133 c 1,32,33
 630 1115 630 1115 614.5 1133.5 c 128,-1,34
 599 1152 599 1152 623 1172 c 1,35,36
 704 1235 704 1235 662.5 1305.5 c 128,-1,37
 621 1376 621 1376 537 1381 c 0,38,39
 476 1384 476 1384 424.5 1340 c 128,-1,40
 373 1296 373 1296 371 1234 c 0,41,42
 367 1118 367 1118 414.5 1074 c 128,-1,43
 462 1030 462 1030 494 999 c 1,44,45
 658 830 658 830 636.5 705 c 128,-1,46
 615 580 615 580 378 418 c 0,47,48
 367 411 367 411 368 401.5 c 128,-1,49
 369 392 369 392 384 389 c 0,50,51
 446 375 446 375 479.5 337.5 c 128,-1,52
 513 300 513 300 551 265 c 0,53,54
 680 145 680 145 779 187 c 128,-1,55
 878 229 878 229 972 337 c 0,56,57
 976 342 976 342 976 348 c 2,58,-1
 970 1070 l 2,59,60
 970 1144 970 1144 914 1166 c 1,61,62
 868 1187 868 1187 916 1214 c 1,63,64
 1016 1262 1016 1262 1116 1312 c 128,-1,65
 1216 1362 1216 1362 1317 1412 c 0,66,67
 1335 1422 1335 1422 1348.5 1408.5 c 128,-1,68
 1362 1395 1362 1395 1341 1376 c 1,69,70
 1263 1320 1263 1320 1236.5 1225.5 c 128,-1,71
 1210 1131 1210 1131 1211 1005 c 2,72,-1
 1218 301 l 2,73,74
 1219 141 1219 141 1371 196 c 0,75,76
 1391 204 1391 204 1402 190.5 c 128,-1,77
 1413 177 1413 177 1398 163 c 2,78,-1
 1207 -9 l 2,79,80
 1195 -19 1195 -19 1180 -20 c 128,-1,81
 1165 -21 1165 -21 1153 -14 c 1,0,1
EndSplineSet
EndChar

StartChar: V
Encoding: 86 86 59
Width: 1817
Flags: W
HStem: 652 52<270.328 523.227> 1269 192<310.707 608.017>
VStem: 45 75<851.756 1120.65>
LayerCount: 2
Fore
SplineSet
380 704 m 0,0,1
 437 702 437 702 497.5 719 c 128,-1,2
 558 736 558 736 603 775 c 0,3,4
 621 791 621 791 635 780 c 128,-1,5
 649 769 649 769 633 754 c 0,6,7
 524 649 524 649 400 652 c 0,8,9
 244 655 244 655 145 757.5 c 128,-1,10
 46 860 46 860 45 1029 c 0,11,12
 45 1197 45 1197 182.5 1329 c 128,-1,13
 320 1461 320 1461 526 1461 c 0,14,15
 799 1461 799 1461 937 1258 c 0,16,17
 946 1246 946 1246 954 1247.5 c 128,-1,18
 962 1249 962 1249 966 1262 c 0,19,20
 999 1363 999 1363 1102 1428.5 c 128,-1,21
 1205 1494 1205 1494 1335 1455.5 c 128,-1,22
 1465 1417 1465 1417 1537 1280 c 1,23,24
 1564 1226 1564 1226 1585 1181.5 c 128,-1,25
 1606 1137 1606 1137 1644 1131 c 1,26,27
 1707 1118 1707 1118 1656 1093 c 0,28,29
 1452 990 1452 990 1457 899 c 128,-1,30
 1462 808 1462 808 1562 724 c 1,31,32
 1768 548 1768 548 1703.5 403.5 c 128,-1,33
 1639 259 1639 259 1477 127 c 0,34,35
 1267 -44 1267 -44 1047 -22.5 c 128,-1,36
 827 -1 827 -1 626 176 c 0,37,38
 527 263 527 263 449 290.5 c 128,-1,39
 371 318 371 318 304 249 c 0,40,41
 283 228 283 228 267 243.5 c 128,-1,42
 251 259 251 259 272 279 c 0,43,44
 401 408 401 408 488 452.5 c 128,-1,45
 575 497 575 497 661 471 c 1,46,47
 673 469 673 469 679 477 c 0,48,49
 746 561 746 561 785 664 c 128,-1,50
 824 767 824 767 819 881 c 1,51,52
 812 1010 812 1010 704 1143 c 128,-1,53
 596 1276 596 1276 415 1269 c 1,54,55
 296 1260 296 1260 208 1183.5 c 128,-1,56
 120 1107 120 1107 120 990 c 0,57,58
 119 873 119 873 188 791 c 128,-1,59
 257 709 257 709 380 704 c 0,0,1
1010 1067 m 1,60,61
 1022 977 1022 977 1002 872.5 c 128,-1,62
 982 768 982 768 899 661.5 c 128,-1,63
 816 555 816 555 724 469 c 0,64,65
 717 462 717 462 718 454.5 c 128,-1,66
 719 447 719 447 728 442 c 0,67,68
 775 415 775 415 828.5 373 c 128,-1,69
 882 331 882 331 948 275 c 0,70,71
 1087 155 1087 155 1215 113.5 c 128,-1,72
 1343 72 1343 72 1437 151 c 0,73,74
 1539 236 1539 236 1512.5 328 c 128,-1,75
 1486 420 1486 420 1384 518 c 1,76,77
 1242 651 1242 651 1269 763 c 128,-1,78
 1296 875 1296 875 1433 986 c 0,79,80
 1441 992 1441 992 1440 1000.5 c 128,-1,81
 1439 1009 1439 1009 1429 1013 c 0,82,83
 1373 1040 1373 1040 1338.5 1098.5 c 128,-1,84
 1304 1157 1304 1157 1280 1223 c 1,85,86
 1256 1286 1256 1286 1204.5 1330.5 c 128,-1,87
 1153 1375 1153 1375 1087 1342 c 0,88,89
 1033 1315 1033 1315 1011.5 1254.5 c 128,-1,90
 990 1194 990 1194 1010 1067 c 1,60,61
EndSplineSet
EndChar

StartChar: W
Encoding: 87 87 60
Width: 2208
Flags: W
HStem: 639 52<275.328 528.743> 1351 103.5<1013.84 1173.38>
VStem: 50 75<838.591 1098.81>
LayerCount: 2
Fore
SplineSet
385 691 m 0,0,1
 520 685 520 685 608 761 c 1,2,3
 626 778 626 778 639.5 767.5 c 128,-1,4
 653 757 653 757 640 743 c 0,5,6
 528 634 528 634 405 639 c 1,7,8
 249 642 249 642 150 744.5 c 128,-1,9
 51 847 51 847 50 1015 c 1,10,11
 41 1188 41 1188 183 1318 c 128,-1,12
 325 1448 325 1448 531 1448 c 0,13,14
 759 1448 759 1448 902 1296 c 1,15,16
 916 1283 916 1283 927 1298 c 1,17,18
 1025 1452 1025 1452 1088.5 1454.5 c 128,-1,19
 1152 1457 1152 1457 1258 1311 c 0,20,21
 1269 1296 1269 1296 1283 1308 c 1,22,23
 1303 1328 1303 1328 1314 1338 c 0,24,25
 1459 1470 1459 1470 1657.5 1451.5 c 128,-1,26
 1856 1433 1856 1433 1946 1257 c 1,27,28
 1973 1201 1973 1201 1987.5 1149.5 c 128,-1,29
 2002 1098 2002 1098 2052 1068 c 0,30,31
 2080 1052 2080 1052 2080 1038 c 128,-1,32
 2080 1024 2080 1024 2062 1020 c 0,33,34
 1995 1005 1995 1005 1931 963 c 1,35,36
 1863 891 1863 891 1888 827.5 c 128,-1,37
 1913 764 1913 764 2019 689 c 1,38,39
 2154 590 2154 590 2139.5 448 c 128,-1,40
 2125 306 2125 306 1975 162 c 0,41,42
 1785 -22 1785 -22 1620 -23 c 128,-1,43
 1455 -24 1455 -24 1323 114 c 0,44,45
 1257 182 1257 182 1178 128 c 1,46,47
 962 -41 962 -41 819.5 -12.5 c 128,-1,48
 677 16 677 16 582 148 c 0,49,50
 428 360 428 360 252 251 c 1,51,52
 229 235 229 235 217.5 248.5 c 128,-1,53
 206 262 206 262 223 277 c 0,54,55
 363 399 363 399 463.5 429 c 128,-1,56
 564 459 564 459 642 431 c 0,57,58
 654 427 654 427 660 435 c 0,59,60
 737 522 737 522 783.5 633 c 128,-1,61
 830 744 830 744 824 867 c 0,62,63
 817 996 817 996 709 1129.5 c 128,-1,64
 601 1263 601 1263 420 1248 c 1,65,66
 312 1238 312 1238 221.5 1166 c 128,-1,67
 131 1094 131 1094 125 977 c 1,68,69
 124 860 124 860 193 778 c 128,-1,70
 262 696 262 696 385 691 c 0,0,1
1836 961 m 0,71,72
 1772 1008 1772 1008 1740.5 1068 c 128,-1,73
 1709 1128 1709 1128 1679 1190 c 1,74,75
 1615 1317 1615 1317 1515 1352 c 128,-1,76
 1415 1387 1415 1387 1349 1315 c 0,77,78
 1282 1242 1282 1242 1284.5 1148.5 c 128,-1,79
 1287 1055 1287 1055 1386 920 c 1,80,81
 1497 764 1497 764 1508 637.5 c 128,-1,82
 1519 511 1519 511 1426 379 c 0,83,84
 1419 370 1419 370 1421 363 c 128,-1,85
 1423 356 1423 356 1436 354 c 1,86,87
 1479 343 1479 343 1537 293 c 1,88,89
 1691 124 1691 124 1787.5 117.5 c 128,-1,90
 1884 111 1884 111 1941 183 c 0,91,92
 1983 236 1983 236 1974.5 307 c 128,-1,93
 1966 378 1966 378 1804 509 c 1,94,95
 1582 685 1582 685 1743 849 c 0,96,97
 1792 898 1792 898 1837 934 c 0,98,99
 1843 940 1843 940 1843 947.5 c 128,-1,100
 1843 955 1843 955 1836 961 c 0,71,72
951 1233 m 0,101,102
 1049 1076 1049 1076 1009 869 c 0,103,104
 985 745 985 745 891 630 c 128,-1,105
 797 515 797 515 698 426 c 1,106,107
 685 411 685 411 700 400 c 0,108,109
 746 369 746 369 806 303 c 1,110,111
 905 189 905 189 1000.5 153 c 128,-1,112
 1096 117 1096 117 1225 228 c 0,113,114
 1348 333 1348 333 1317 460 c 128,-1,115
 1286 587 1286 587 1194 720 c 0,116,117
 1091 869 1091 869 1110 1000 c 128,-1,118
 1129 1131 1129 1131 1226 1248 c 1,119,120
 1235 1257 1235 1257 1226 1269 c 1,121,122
 1148 1354 1148 1354 1085.5 1351 c 128,-1,123
 1023 1348 1023 1348 951 1251 c 0,124,125
 945 1242 945 1242 951 1233 c 0,101,102
EndSplineSet
EndChar

StartChar: X
Encoding: 88 88 61
Width: 1476
Flags: W
HStem: 695 192<942.188 1198> 1255 200<275.304 587.47>
VStem: 141.5 397.5<771.5 987.5> 729 202<458.454 689.812 892.157 1084.81>
LayerCount: 2
Fore
SplineSet
497 780 m 0,0,1
 530 792 530 792 539 771.5 c 128,-1,2
 548 751 548 751 519 742 c 0,3,4
 351 685 351 685 230 748.5 c 128,-1,5
 109 812 109 812 72.5 985 c 128,-1,6
 36 1158 36 1158 153 1306.5 c 128,-1,7
 270 1455 270 1455 463 1455 c 0,8,9
 658 1455 658 1455 757.5 1362.5 c 128,-1,10
 857 1270 857 1270 898 1118 c 0,11,12
 901 1106 901 1106 913 1106 c 256,13,14
 925 1106 925 1106 929 1118 c 1,15,16
 977 1313 977 1313 1045.5 1404 c 128,-1,17
 1114 1495 1114 1495 1224 1416 c 1,18,19
 1326 1341 1326 1341 1383 1409 c 0,20,21
 1395 1424 1395 1424 1412 1416.5 c 128,-1,22
 1429 1409 1429 1409 1420 1382 c 0,23,24
 1363 1211 1363 1211 1290 1171.5 c 128,-1,25
 1217 1132 1217 1132 1143 1190 c 1,26,27
 1081 1236 1081 1236 1040.5 1211.5 c 128,-1,28
 1000 1187 1000 1187 975.5 1131.5 c 128,-1,29
 951 1076 951 1076 941 1009 c 128,-1,30
 931 942 931 942 931 904 c 0,31,32
 931 897 931 897 935 892 c 0,33,34
 940 887 940 887 946 887 c 2,35,-1
 1256 887 l 2,36,37
 1283 887 1283 887 1268 859 c 1,38,-1
 1188 723 l 1,39,40
 1173 695 1173 695 1144 695 c 2,41,-1
 954 695 l 2,42,43
 948 695 948 695 942 690 c 0,44,45
 936 684 936 684 938 678 c 1,46,47
 962 363 962 363 1092 268.5 c 128,-1,48
 1222 174 1222 174 1342 243 c 0,49,50
 1361 255 1361 255 1374 245.5 c 128,-1,51
 1387 236 1387 236 1377 222 c 0,52,53
 1325 153 1325 153 1263 88 c 0,54,55
 1215 38 1215 38 1174 -4 c 0,56,57
 1160 -18 1160 -18 1137.5 -19.5 c 128,-1,58
 1115 -21 1115 -21 1095 -14 c 1,59,60
 823 61 823 61 751 374 c 0,61,62
 748 390 748 390 735.5 390 c 128,-1,63
 723 390 723 390 719 374 c 0,64,65
 632 33 632 33 518 1.5 c 128,-1,66
 404 -30 404 -30 332 24 c 0,67,68
 207 116 207 116 163 46 c 0,69,70
 154 31 154 31 139 39.5 c 128,-1,71
 124 48 124 48 136 75 c 0,72,73
 236 290 236 290 315.5 304.5 c 128,-1,74
 395 319 395 319 464 256 c 1,75,76
 546 179 546 179 596 221.5 c 128,-1,77
 646 264 646 264 674 352.5 c 128,-1,78
 702 441 702 441 712 540 c 128,-1,79
 722 639 722 639 724 678 c 0,80,81
 725 685 725 685 720 690 c 256,82,83
 715 695 715 695 709 695 c 2,84,-1
 588 695 l 2,85,86
 550 695 550 695 576 723 c 2,87,-1
 699 859 l 2,88,89
 707 868 707 868 722 879 c 0,90,91
 729 883 729 883 729 894 c 0,92,93
 717 1058 717 1058 643 1156.5 c 128,-1,94
 569 1255 569 1255 446 1255 c 0,95,96
 300 1254 300 1254 219 1176.5 c 128,-1,97
 138 1099 138 1099 141.5 987.5 c 128,-1,98
 145 876 145 876 246 800 c 128,-1,99
 347 724 347 724 497 780 c 0,0,1
EndSplineSet
EndChar

StartChar: Y
Encoding: 89 89 62
Width: 1755
Flags: W
HStem: -319 64<755.727 1133.21> 658 52<267.513 520.25> 1000 47<1641.49 1700.32> 1267 200<312.073 620.642>
VStem: 45 75<857.591 1129.9>
LayerCount: 2
Fore
SplineSet
380 710 m 1,0,1
 515 704 515 704 603 780 c 1,2,3
 620 797 620 797 635 786.5 c 128,-1,4
 650 776 650 776 635 763 c 1,5,6
 523 655 523 655 400 658 c 0,7,8
 244 661 244 661 145 763.5 c 128,-1,9
 46 866 46 866 45 1034 c 0,10,11
 45 1202 45 1202 182.5 1334.5 c 128,-1,12
 320 1467 320 1467 526 1467 c 0,13,14
 661 1467 661 1467 777.5 1406 c 128,-1,15
 894 1345 894 1345 959 1236 c 1,16,17
 973 1316 973 1316 1030 1379.5 c 128,-1,18
 1087 1443 1087 1443 1181 1468 c 0,19,20
 1309 1501 1309 1501 1420.5 1430.5 c 128,-1,21
 1532 1360 1532 1360 1574 1225 c 1,22,23
 1630 1040 1630 1040 1671 1047 c 0,24,25
 1695 1052 1695 1052 1700.5 1032.5 c 128,-1,26
 1706 1013 1706 1013 1670 1000 c 1,27,28
 1481 922 1481 922 1459.5 846.5 c 128,-1,29
 1438 771 1438 771 1558 566 c 1,30,31
 1696 326 1696 326 1647 149.5 c 128,-1,32
 1598 -27 1598 -27 1421 -163 c 1,33,34
 1310 -244 1310 -244 1194.5 -283 c 128,-1,35
 1079 -322 1079 -322 963 -319 c 0,36,37
 778 -314 778 -314 642 -243 c 128,-1,38
 506 -172 506 -172 403 -43 c 0,39,40
 390 -26 390 -26 404 -15.5 c 128,-1,41
 418 -5 418 -5 434 -23 c 0,42,43
 538 -137 538 -137 661 -196 c 128,-1,44
 784 -255 784 -255 951 -255 c 1,45,46
 1265 -240 1265 -240 1357.5 -32 c 128,-1,47
 1450 176 1450 176 1282 449 c 1,48,49
 1182 609 1182 609 1222 716 c 128,-1,50
 1262 823 1262 823 1439 917 c 1,51,52
 1448 924 1448 924 1448 932 c 256,53,54
 1448 940 1448 940 1439 946 c 1,55,56
 1403 964 1403 964 1366 1010.5 c 128,-1,57
 1329 1057 1329 1057 1308 1160 c 1,58,59
 1290 1242 1290 1242 1247.5 1301 c 128,-1,60
 1205 1360 1205 1360 1118 1350 c 0,61,62
 1047 1341 1047 1341 1018 1274.5 c 128,-1,63
 989 1208 989 1208 1005 1123 c 1,64,65
 1031 1008 1031 1008 1004 888 c 0,66,67
 959 684 959 684 875.5 570 c 128,-1,68
 792 456 792 456 700 373 c 0,69,70
 695 368 695 368 695 358 c 0,71,72
 696 348 696 348 705 346 c 1,73,74
 739 331 739 331 806 283 c 1,75,76
 901 208 901 208 966 222.5 c 128,-1,77
 1031 237 1031 237 1086 300 c 0,78,79
 1107 323 1107 323 1126.5 309.5 c 128,-1,80
 1146 296 1146 296 1129 272 c 1,81,82
 1076 212 1076 212 1038.5 165 c 128,-1,83
 1001 118 1001 118 975 82 c 0,84,85
 915 -2 915 -2 822.5 4.5 c 128,-1,86
 730 11 730 11 639 95 c 0,87,88
 538 187 538 187 468 131 c 1,89,90
 446 115 446 115 433 130 c 128,-1,91
 420 145 420 145 443 168 c 1,92,93
 501 230 501 230 566.5 287.5 c 128,-1,94
 632 345 632 345 680 417 c 0,95,96
 744 514 744 514 783.5 646.5 c 128,-1,97
 823 779 823 779 819 887 c 1,98,99
 812 1015 812 1015 704 1148.5 c 128,-1,100
 596 1282 596 1282 415 1267 c 1,101,102
 299 1269 299 1269 209.5 1191 c 128,-1,103
 120 1113 120 1113 120 996 c 0,104,105
 119 879 119 879 188 796.5 c 128,-1,106
 257 714 257 714 380 710 c 1,0,1
EndSplineSet
EndChar

StartChar: Z
Encoding: 90 90 63
Width: 1364
Flags: W
HStem: 616 58<506.649 667.908> 799 50<420.591 550.413> 1293 204<490.093 856.577>
VStem: 1123.5 186.5<141.949 330.906>
LayerCount: 2
Fore
SplineSet
521 849 m 0,0,1
 553 848 553 848 550.5 823.5 c 128,-1,2
 548 799 548 799 509 799 c 0,3,4
 389 801 389 801 304 881.5 c 128,-1,5
 219 962 219 962 232 1128.5 c 128,-1,6
 245 1295 245 1295 387 1397.5 c 128,-1,7
 529 1500 529 1500 763 1497 c 1,8,9
 934 1497 934 1497 1072 1389.5 c 128,-1,10
 1210 1282 1210 1282 1214 1133 c 1,11,12
 1214 1000 1214 1000 1145.5 923 c 128,-1,13
 1077 846 1077 846 975 803 c 0,14,15
 963 797 963 797 964 786.5 c 128,-1,16
 965 776 965 776 979 773 c 0,17,18
 1126 731 1126 731 1216.5 629 c 128,-1,19
 1307 527 1307 527 1310 386 c 0,20,21
 1313 232 1313 232 1253 115 c 128,-1,22
 1193 -2 1193 -2 1095 -74 c 1,23,24
 813 -276 813 -276 635 -230 c 128,-1,25
 457 -184 457 -184 328 -51 c 1,26,27
 241 36 241 36 191 61 c 128,-1,28
 141 86 141 86 83 42 c 0,29,30
 62 25 62 25 47 43 c 128,-1,31
 32 61 32 61 60 86 c 0,32,33
 219 234 219 234 338 221.5 c 128,-1,34
 457 209 457 209 565 83 c 0,35,36
 703 -79 703 -79 815 -117 c 128,-1,37
 927 -155 927 -155 1039 -50 c 0,38,39
 1123 28 1123 28 1123.5 149.5 c 128,-1,40
 1124 271 1124 271 1046 391 c 1,41,42
 851 684 851 684 550 616 c 1,43,44
 511 610 511 610 506.5 639 c 128,-1,45
 502 668 502 668 544 674 c 1,46,47
 748 710 748 710 869.5 795.5 c 128,-1,48
 991 881 991 881 1000 1019 c 0,49,50
 1009 1149 1009 1149 905.5 1222 c 128,-1,51
 802 1295 802 1295 623 1293 c 0,52,53
 481 1291 481 1291 405 1232.5 c 128,-1,54
 329 1174 329 1174 320.5 1069 c 128,-1,55
 312 964 312 964 367 909.5 c 128,-1,56
 422 855 422 855 521 849 c 0,0,1
EndSplineSet
EndChar

StartChar: bracketleft
Encoding: 91 91 64
Width: 375
Flags: W
HStem: -97 54<218 318.766> 1460 54<218 318.766>
VStem: 34 184<-43 1460>
LayerCount: 2
Fore
SplineSet
57 1514 m 0,0,1
 102 1514 102 1514 178 1514 c 128,-1,2
 254 1514 254 1514 299 1514 c 0,3,4
 322 1514 322 1514 322 1490 c 2,5,-1
 322 1483 l 2,6,7
 322 1460 322 1460 299 1460 c 2,8,-1
 241 1460 l 2,9,10
 218 1460 218 1460 218 1437 c 2,11,-1
 218 -21 l 2,12,13
 218 -43 218 -43 241 -43 c 2,14,-1
 299 -43 l 2,15,16
 322 -43 322 -43 322 -66 c 2,17,-1
 322 -74 l 2,18,19
 322 -97 322 -97 299 -97 c 0,20,21
 254 -97 254 -97 178 -97 c 128,-1,22
 102 -97 102 -97 57 -97 c 0,23,24
 34 -97 34 -97 34 -74 c 2,25,-1
 34 1490 l 2,26,27
 34 1514 34 1514 57 1514 c 0,0,1
EndSplineSet
EndChar

StartChar: backslash
Encoding: 92 92 65
Width: 219
Flags: W
LayerCount: 2
Fore
SplineSet
827 1326 m 1,0,-1
 857 1300 l 1,1,2
 868 1288 868 1288 858 1277 c 2,3,-1
 -320 -84 l 2,4,5
 -331 -97 -331 -97 -343 -86 c 2,6,-1
 -373 -60 l 1,7,8
 -385 -51 -385 -51 -375 -37 c 1,9,-1
 804 1324 l 1,10,11
 812 1336 812 1336 827 1326 c 1,0,-1
EndSplineSet
EndChar

StartChar: bracketright
Encoding: 93 93 66
Width: 375
Flags: W
HStem: -97 54<37.2344 138> 1460 54<37.2344 138>
VStem: 138 184<-42.9944 1459.99>
LayerCount: 2
Fore
SplineSet
299 -97 m 0,0,1
 254 -97 254 -97 178 -97 c 128,-1,2
 102 -97 102 -97 57 -97 c 0,3,4
 34 -97 34 -97 34 -73 c 2,5,-1
 34 -66 l 2,6,7
 34 -43 34 -43 57 -43 c 2,8,-1
 115 -43 l 2,9,10
 138 -43 138 -43 138 -20 c 2,11,-1
 138 1438 l 2,12,13
 138 1460 138 1460 115 1460 c 2,14,-1
 57 1460 l 2,15,16
 34 1460 34 1460 34 1483 c 2,17,-1
 34 1491 l 2,18,19
 34 1514 34 1514 57 1514 c 0,20,21
 102 1514 102 1514 178 1514 c 128,-1,22
 254 1514 254 1514 299 1514 c 0,23,24
 322 1514 322 1514 322 1491 c 2,25,-1
 322 -73 l 2,26,27
 322 -97 322 -97 299 -97 c 0,0,1
EndSplineSet
EndChar

StartChar: asciicircum
Encoding: 94 94 67
Width: 857
Flags: W
HStem: 892 544
LayerCount: 2
Fore
SplineSet
798 946 m 2,0,-1
 798 907 l 2,1,2
 798 895 798 895 789 892 c 0,3,4
 780 888 780 888 772 894 c 2,5,-1
 430 1182 l 1,6,7
 419 1193 419 1193 410 1182 c 1,8,-1
 68 894 l 1,9,10
 59 888 59 888 51 892 c 1,11,12
 42 895 42 895 42 907 c 2,13,-1
 42 946 l 2,14,15
 42 954 42 954 45 956 c 1,16,-1
 407 1436 l 2,17,18
 412 1443 412 1443 420 1443 c 0,19,20
 426 1443 426 1443 433 1436 c 1,21,-1
 795 956 l 2,22,23
 798 953 798 953 798 946 c 2,0,-1
EndSplineSet
EndChar

StartChar: underscore
Encoding: 95 95 68
Width: 934
Flags: W
HStem: -379 148<-18 950>
LayerCount: 2
Fore
SplineSet
-2 -231 m 2,0,-1
 934 -231 l 2,1,2
 950 -231 950 -231 950 -248 c 2,3,-1
 950 -362 l 2,4,5
 950 -379 950 -379 934 -379 c 2,6,-1
 -2 -379 l 2,7,8
 -18 -379 -18 -379 -18 -362 c 2,9,-1
 -18 -248 l 2,10,11
 -18 -231 -18 -231 -2 -231 c 2,0,-1
EndSplineSet
EndChar

StartChar: grave
Encoding: 96 96 69
Width: 1024
Flags: W
HStem: 1054 380
VStem: 332 224<1292 1391.79>
LayerCount: 2
Fore
SplineSet
408 1238 m 2,0,1
 332 1312 332 1312 332 1362 c 0,2,3
 332 1434 332 1434 427 1434 c 0,4,5
 468 1434 468 1434 498 1408 c 0,6,7
 524 1386 524 1386 556 1292 c 2,8,-1
 636 1054 l 1,9,-1
 599 1054 l 1,10,-1
 408 1238 l 2,0,1
EndSplineSet
EndChar

StartChar: a
Encoding: 97 97 70
Width: 943
Flags: W
VStem: 558 195<197.187 741.359>
LayerCount: 2
Fore
SplineSet
534 141 m 1,0,1
 483 102 483 102 422 55.5 c 128,-1,2
 361 9 361 9 309 -30 c 0,3,4
 291 -44 291 -44 280.5 -42 c 128,-1,5
 270 -40 270 -40 272 -24 c 1,6,7
 272 -3 272 -3 210 56 c 0,8,9
 47 209 47 209 53 454 c 0,10,11
 59 664 59 664 248 809 c 0,12,13
 306 853 306 853 356.5 902 c 128,-1,14
 407 951 407 951 446 1021 c 1,15,16
 462 1052 462 1052 490 1023 c 1,17,18
 642 851 642 851 794 820 c 0,19,20
 842 811 842 811 804 782 c 1,21,22
 757 748 757 748 753 698 c 1,23,-1
 753 696 l 1,24,-1
 756 239 l 2,25,26
 756 193 756 193 789.5 176 c 128,-1,27
 823 159 823 159 862 202 c 0,28,29
 877 219 877 219 890.5 210.5 c 128,-1,30
 904 202 904 202 891 180 c 1,31,32
 855 126 855 126 821.5 74 c 128,-1,33
 788 22 788 22 765 -34 c 1,34,-1
 764 -35 l 1,35,36
 750 -58 750 -58 730 -35 c 0,37,38
 719 -23 719 -23 704 -19 c 0,39,40
 590 6 590 6 560 132 c 0,41,42
 558 138 558 138 550 144 c 1,43,44
 541 145 541 145 534 141 c 1,0,1
545 730 m 0,45,46
 483 747 483 747 400 826 c 1,47,48
 360 874 360 874 336 835 c 1,49,50
 230 677 230 677 253 486 c 0,51,52
 285 213 285 213 445 149 c 0,53,54
 446 149 446 149 447 148 c 0,55,56
 488 135 488 135 546 197 c 1,57,58
 550 203 550 203 550 208 c 0,59,60
 549 223 549 223 549 255 c 2,61,-1
 558 714 l 2,62,63
 558 726 558 726 545 730 c 0,45,46
EndSplineSet
EndChar

StartChar: b
Encoding: 98 98 71
Width: 910
Flags: W
HStem: 1372 39<460.207 572.933>
VStem: 161 207<245.194 825.035 844.611 1199.69> 679 187<373.541 672.587>
LayerCount: 2
Fore
SplineSet
56 1309 m 1,0,1
 44 1329 44 1329 58.5 1339 c 128,-1,2
 73 1349 73 1349 88 1332 c 1,3,4
 135 1271 135 1271 161 1210 c 0,5,6
 165 1199 165 1199 174 1197 c 128,-1,7
 183 1195 183 1195 190 1207 c 0,8,9
 299 1385 299 1385 549 1411 c 1,10,11
 571 1412 571 1412 573 1393 c 128,-1,12
 575 1374 575 1374 550 1372 c 0,13,14
 448 1367 448 1367 406 1317 c 128,-1,15
 364 1267 364 1267 365 1119 c 2,16,-1
 368 860 l 2,17,18
 368 848 368 848 375 844.5 c 128,-1,19
 382 841 382 841 392 846 c 0,20,21
 454 879 454 879 517.5 919 c 128,-1,22
 581 959 581 959 635 1010 c 1,23,24
 671 1048 671 1048 678 997 c 1,25,26
 681 960 681 960 709 931 c 128,-1,27
 737 902 737 902 759 874 c 0,28,29
 874 725 874 725 866 555 c 1,30,31
 856 382 856 382 752 276 c 0,32,33
 709 231 709 231 656.5 189.5 c 128,-1,34
 604 148 604 148 567 103 c 1,35,-1
 566 105 l 1,36,37
 506 27 506 27 476 -35 c 0,38,39
 462 -64 462 -64 440 -35 c 1,40,41
 330 101 330 101 105 171 c 0,42,43
 83 178 83 178 84 188.5 c 128,-1,44
 85 199 85 199 100 203 c 1,45,46
 164 225 164 225 163 336 c 2,47,-1
 161 942 l 2,48,49
 160 1078 160 1078 130.5 1163.5 c 128,-1,50
 101 1249 101 1249 56 1309 c 1,0,1
368 792 m 2,51,-1
 372 283 l 2,52,53
 372 269 372 269 383 262 c 2,54,-1
 537 170 l 1,55,56
 562 157 562 157 579 174 c 1,57,-1
 596 193 l 1,58,59
 598 193 598 193 598 195 c 1,60,61
 679 312 679 312 679 487 c 1,62,63
 678 586 678 586 637.5 667.5 c 128,-1,64
 597 749 597 749 531 824 c 1,65,66
 488 871 488 871 376 806 c 0,67,68
 368 801 368 801 368 792 c 2,51,-1
EndSplineSet
EndChar

StartChar: c
Encoding: 99 99 72
Width: 726
Flags: W
VStem: 59 616
LayerCount: 2
Fore
SplineSet
340 -29 m 0,0,1
 338 -5 338 -5 314.5 7 c 128,-1,2
 291 19 291 19 275 31 c 0,3,4
 160 109 160 109 112.5 221.5 c 128,-1,5
 65 334 65 334 59 460 c 0,6,7
 47 745 47 745 213 894 c 0,8,9
 272 947 272 947 349 980.5 c 128,-1,10
 426 1014 426 1014 507 1035 c 1,11,12
 529 1039 529 1039 544 1010 c 2,13,-1
 661 774 l 2,14,15
 675 745 675 745 654 741 c 0,16,17
 580 730 580 730 519 689 c 0,18,19
 491 671 491 671 473 707 c 2,20,-1
 369 923 l 2,21,22
 359 944 359 944 333 929 c 0,23,24
 267 890 267 890 249 743 c 128,-1,25
 231 596 231 596 257 473 c 0,26,27
 304 242 304 242 420 177 c 128,-1,28
 536 112 536 112 652 157 c 1,29,30
 667 164 667 164 675 155 c 1,31,32
 683 142 683 142 670 136 c 0,33,34
 589 95 589 95 515.5 52 c 128,-1,35
 442 9 442 9 384 -38 c 1,36,37
 375 -44 375 -44 357.5 -42 c 128,-1,38
 340 -40 340 -40 340 -29 c 0,0,1
EndSplineSet
EndChar

StartChar: d
Encoding: 100 100 73
Width: 930
Flags: W
HStem: 1393 28<226.656 270.416>
VStem: 50 131<1222.56 1335.3> 164 209<260.177 798.788>
LayerCount: 2
Fore
SplineSet
258 1393 m 0,0,1
 179 1371 179 1371 181 1300 c 0,2,3
 182 1255 182 1255 232.5 1216.5 c 128,-1,4
 283 1178 283 1178 351 1165 c 0,5,6
 352 1165 352 1165 353 1164 c 0,7,8
 563 1086 563 1086 718.5 960 c 128,-1,9
 874 834 874 834 895 594 c 1,10,-1
 895 591 l 1,11,12
 874 411 874 411 808 291 c 128,-1,13
 742 171 742 171 652 108 c 1,14,-1
 651 106 l 1,15,16
 609 70 609 70 552 42 c 128,-1,17
 495 14 495 14 451 -16 c 0,18,19
 423 -35 423 -35 415 -16 c 0,20,21
 359 117 359 117 106 187 c 1,22,23
 91 190 91 190 90 202 c 128,-1,24
 89 214 89 214 101 219 c 0,25,26
 164 243 164 243 164 352 c 2,27,-1
 162 768 l 2,28,29
 162 803 162 803 194 801 c 1,30,31
 294 788 294 788 394 869 c 0,32,33
 400 873 400 873 400 884 c 1,34,35
 398 892 398 892 390 896 c 0,36,37
 352 912 352 912 314 927.5 c 128,-1,38
 276 943 276 943 240 961 c 1,39,40
 147 1003 147 1003 102.5 1070 c 128,-1,41
 58 1137 58 1137 50 1203 c 1,42,-1
 50 1208 l 1,43,44
 75 1399 75 1399 242 1421 c 0,45,46
 268 1425 268 1425 270.5 1411 c 128,-1,47
 273 1397 273 1397 258 1393 c 0,0,1
453 868 m 0,48,49
 444 872 444 872 436 866 c 2,50,-1
 389 829 l 2,51,52
 369 814 369 814 369 793 c 2,53,-1
 373 299 l 2,54,55
 373 284 373 284 385 278 c 2,56,-1
 601 151 l 2,57,58
 627 135 627 135 649 163 c 1,59,60
 739 290 739 290 718.5 500.5 c 128,-1,61
 698 711 698 711 545 819 c 0,62,63
 517 838 517 838 453 868 c 0,48,49
EndSplineSet
EndChar

StartChar: e
Encoding: 101 101 74
Width: 741
Flags: W
VStem: 59 629
LayerCount: 2
Fore
SplineSet
340 -28 m 0,0,1
 338 -4 338 -4 314.5 8 c 128,-1,2
 291 20 291 20 275 32 c 0,3,4
 160 110 160 110 112.5 222.5 c 128,-1,5
 65 335 65 335 59 461 c 0,6,7
 47 746 47 746 213 895 c 0,8,9
 272 948 272 948 349 981.5 c 128,-1,10
 426 1015 426 1015 507 1036 c 1,11,12
 532 1041 532 1041 544 1011 c 2,13,-1
 688 673 l 1,14,15
 698 646 698 646 681 639 c 1,16,-1
 679 639 l 1,17,-1
 269 480 l 1,18,19
 257 474 257 474 259 461 c 0,20,21
 308 239 308 239 423 176.5 c 128,-1,22
 538 114 538 114 652 158 c 1,23,24
 672 167 672 167 677.5 155 c 128,-1,25
 683 143 683 143 670 137 c 0,26,27
 589 96 589 96 515.5 53 c 128,-1,28
 442 10 442 10 384 -37 c 1,29,30
 375 -43 375 -43 357.5 -41 c 128,-1,31
 340 -39 340 -39 340 -28 c 0,0,1
247 537 m 0,32,33
 248 529 248 529 254 524.5 c 128,-1,34
 260 520 260 520 269 524 c 2,35,-1
 482 604 l 2,36,37
 497 610 497 610 491 625 c 2,38,-1
 369 924 l 2,39,40
 360 946 360 946 333 930 c 0,41,42
 275 896 275 896 254 775 c 128,-1,43
 233 654 233 654 247 537 c 0,32,33
EndSplineSet
EndChar

StartChar: f
Encoding: 102 102 75
Width: 500
Flags: W
HStem: 917 94<366.672 516>
LayerCount: 2
Fore
SplineSet
327 1011 m 2,0,-1
 500 1011 l 2,1,2
 516 1011 516 1011 516 995 c 2,3,-1
 516 933 l 2,4,5
 516 917 516 917 500 917 c 2,6,-1
 379 917 l 2,7,8
 372 917 372 917 366.5 911 c 128,-1,9
 361 905 361 905 363 899 c 1,10,11
 369 843 369 843 360 743 c 2,12,-1
 259 -309 l 2,13,14
 255 -343 255 -343 239 -343.5 c 128,-1,15
 223 -344 223 -344 219 -307 c 0,16,17
 194 -1 194 -1 168 304 c 128,-1,18
 142 609 142 609 113 915 c 1,19,-1
 -3 915 l 2,20,21
 -18 915 -18 915 -18.5 929.5 c 128,-1,22
 -19 944 -19 944 -7 946 c 0,23,24
 58 957 58 957 101 1013 c 128,-1,25
 144 1069 144 1069 138 1159 c 1,26,27
 131 1301 131 1301 175 1397.5 c 128,-1,28
 219 1494 219 1494 351 1451 c 1,29,30
 424 1426 424 1426 484.5 1407.5 c 128,-1,31
 545 1389 545 1389 570 1428 c 1,32,33
 582 1449 582 1449 592 1446 c 128,-1,34
 602 1443 602 1443 589 1407 c 1,35,36
 553 1293 553 1293 495.5 1253.5 c 128,-1,37
 438 1214 438 1214 317 1272 c 1,38,39
 200 1326 200 1326 179.5 1218.5 c 128,-1,40
 159 1111 159 1111 223 1078 c 1,41,42
 285 1044 285 1044 304 1022 c 1,43,44
 315 1011 315 1011 327 1011 c 2,0,-1
EndSplineSet
EndChar

StartChar: g
Encoding: 103 103 76
Width: 952
Flags: W
VStem: 558.5 258.5<235 383.569> 590 227<235 382.241>
LayerCount: 2
Fore
SplineSet
595 123 m 0,0,1
 523 90 523 90 422 49.5 c 128,-1,2
 321 9 321 9 264 -33 c 1,3,4
 243 -47 243 -47 234 -44 c 128,-1,5
 225 -41 225 -41 227 -27 c 1,6,7
 228 -9 228 -9 211.5 34 c 128,-1,8
 195 77 195 77 172 111 c 0,9,10
 108 204 108 204 89 281 c 128,-1,11
 70 358 70 358 58 464 c 0,12,13
 47 566 47 566 103.5 657 c 128,-1,14
 160 748 160 748 252 819 c 0,15,16
 310 863 310 863 361 912 c 128,-1,17
 412 961 412 961 450 1031 c 0,18,19
 467 1062 467 1062 495 1033 c 1,20,21
 645 863 645 863 815 828 c 1,22,23
 859 817 859 817 834 796 c 1,24,25
 742 661 742 661 752 520.5 c 128,-1,26
 762 380 762 380 817 236 c 1,27,-1
 817 235 l 1,28,-1
 818 234 l 1,29,30
 908 -95 908 -95 757.5 -243.5 c 128,-1,31
 607 -392 607 -392 459 -407 c 0,32,33
 203 -432 203 -432 120 -275 c 0,34,35
 101 -239 101 -239 119.5 -207 c 128,-1,36
 138 -175 138 -175 174 -169 c 0,37,38
 245 -157 245 -157 299 -261 c 1,39,40
 373 -410 373 -410 515 -352 c 1,41,42
 637 -301 637 -301 655 -176 c 128,-1,43
 673 -51 673 -51 619 111 c 0,44,45
 619 113 619 113 618 114 c 2,46,-1
 617 115 l 1,47,48
 611 130 611 130 595 123 c 0,0,1
653 681 m 1,49,50
 597 704 597 704 520 752 c 128,-1,51
 443 800 443 800 407 833 c 1,52,-1
 405 834 l 2,53,54
 405 835 405 835 405 836 c 0,55,56
 369 889 369 889 341 845 c 1,57,58
 235 687 235 687 257 496 c 0,59,60
 272 369 272 369 312 262 c 128,-1,61
 352 155 352 155 436 122 c 1,62,-1
 437 121 l 1,63,-1
 438 121 l 1,64,65
 494 106 494 106 583 163 c 1,66,67
 593 168 593 168 590 182 c 1,68,69
 548 297 548 297 558.5 415.5 c 128,-1,70
 569 534 569 534 660 657 c 1,71,72
 669 673 669 673 653 681 c 1,49,50
EndSplineSet
EndChar

StartChar: h
Encoding: 104 104 77
Width: 908
Flags: W
HStem: 1384 39<495.875 648.943>
VStem: 162 209<158.162 860.896 885.642 1200.34> 655 210<264.426 676.978>
LayerCount: 2
Fore
SplineSet
55 1315 m 1,0,1
 42 1334 42 1334 57 1344.5 c 128,-1,2
 72 1355 72 1355 87 1337 c 0,3,4
 131 1282 131 1282 158 1219 c 1,5,6
 161 1209 161 1209 172 1209 c 1,7,8
 181 1207 181 1207 188 1217 c 1,9,10
 246 1321 246 1321 370.5 1377.5 c 128,-1,11
 495 1434 495 1434 623 1423 c 1,12,13
 649 1422 649 1422 649 1402 c 128,-1,14
 649 1382 649 1382 624 1384 c 0,15,16
 519 1391 519 1391 441 1336 c 128,-1,17
 363 1281 363 1281 364 1124 c 2,18,-1
 366 900 l 2,19,20
 366 890 366 890 374 885.5 c 128,-1,21
 382 881 382 881 390 886 c 0,22,23
 445 916 445 916 500.5 952 c 128,-1,24
 556 988 556 988 603 1033 c 1,25,26
 640 1070 640 1070 645 1020 c 0,27,28
 649 983 649 983 676 954 c 128,-1,29
 703 925 703 925 726 897 c 0,30,31
 861 725 861 725 865 525 c 0,32,33
 872 231 872 231 658 5.5 c 128,-1,34
 444 -220 444 -220 269 -339 c 0,35,36
 245 -356 245 -356 233.5 -344.5 c 128,-1,37
 222 -333 222 -333 240 -318 c 0,38,39
 381 -193 381 -193 524.5 -45 c 128,-1,40
 668 103 668 103 655 424 c 0,41,42
 649 550 649 550 616.5 661.5 c 128,-1,43
 584 773 584 773 498 847 c 0,44,45
 454 884 454 884 376 846 c 1,46,47
 367 843 367 843 367 831 c 2,48,-1
 371 227 l 2,49,50
 371 146 371 146 436 160 c 0,51,52
 450 164 450 164 461 175 c 128,-1,53
 472 186 472 186 485.5 194.5 c 128,-1,54
 499 203 499 203 510 193 c 128,-1,55
 521 183 521 183 510 172 c 0,56,57
 461 118 461 118 411 72 c 128,-1,58
 361 26 361 26 334 -29 c 0,59,60
 322 -53 322 -53 298 -29 c 1,61,62
 209 67 209 67 104 115 c 1,63,64
 70 133 70 133 99 148 c 1,65,66
 163 170 163 170 162 280 c 2,67,-1
 160 948 l 2,68,69
 159 1083 159 1083 129.5 1169 c 128,-1,70
 100 1255 100 1255 55 1315 c 1,0,1
EndSplineSet
EndChar

StartChar: i
Encoding: 105 105 78
Width: 559
Flags: W
HStem: 1153 269<204.186 332.193>
VStem: 165 203<176.758 807.726> 176 235<1229.33 1391.49>
LayerCount: 2
Fore
SplineSet
165 235 m 1,0,-1
 158 783 l 2,1,2
 158 802 158 802 152 814 c 1,3,4
 128 853 128 853 111 833 c 1,5,-1
 71 792 l 1,6,7
 55 774 55 774 40.5 788 c 128,-1,8
 26 802 26 802 45 827 c 0,9,10
 89 882 89 882 124 937 c 128,-1,11
 159 992 159 992 196 1046 c 1,12,13
 212 1065 212 1065 233 1045 c 1,14,15
 275 994 275 994 315 955.5 c 128,-1,16
 355 917 355 917 429 874 c 1,17,18
 450 866 450 866 447.5 855 c 128,-1,19
 445 844 445 844 434 843 c 1,20,21
 408 833 408 833 388 808.5 c 128,-1,22
 368 784 368 784 368 727 c 2,23,-1
 368 304 l 2,24,25
 368 202 368 202 406 179 c 0,26,27
 450 153 450 153 478 201 c 0,28,29
 488 220 488 220 502.5 209.5 c 128,-1,30
 517 199 517 199 502 175 c 0,31,32
 472 128 472 128 446 80.5 c 128,-1,33
 420 33 420 33 393 -14 c 1,34,35
 374 -42 374 -42 346 -26 c 1,36,37
 256 17 256 17 210.5 79 c 128,-1,38
 165 141 165 141 165 235 c 1,0,-1
310 1422 m 0,39,40
 421 1422 421 1422 411 1315 c 0,41,42
 405 1261 405 1261 343.5 1206.5 c 128,-1,43
 282 1152 282 1152 246 1153 c 0,44,45
 210 1153 210 1153 191 1210 c 128,-1,46
 172 1267 172 1267 176 1315 c 0,47,48
 179 1361 179 1361 220.5 1391.5 c 128,-1,49
 262 1422 262 1422 310 1422 c 0,39,40
EndSplineSet
EndChar

StartChar: j
Encoding: 106 106 79
Width: 497
Flags: W
HStem: -371 38<-105.994 17.877> 1182 269<180.186 308.193>
VStem: 137 206<-156.423 838.664> 152 235<1258.33 1420.49>
LayerCount: 2
Fore
SplineSet
134 782 m 2,0,1
 133 828 133 828 126 841 c 0,2,3
 104 882 104 882 87 862 c 1,4,-1
 47 821 l 1,5,6
 31 803 31 803 16 819 c 128,-1,7
 1 835 1 835 22 856 c 1,8,9
 66 911 66 911 100.5 966 c 128,-1,10
 135 1021 135 1021 172 1075 c 1,11,12
 190 1095 190 1095 209 1074 c 1,13,14
 250 1021 250 1021 290.5 981.5 c 128,-1,15
 331 942 331 942 405 903 c 1,16,17
 426 895 426 895 423.5 884 c 128,-1,18
 421 873 421 873 410 872 c 1,19,20
 382 866 382 866 363 839.5 c 128,-1,21
 344 813 344 813 344 756 c 2,22,-1
 343 88 l 1,23,24
 341 -36 341 -36 372 -119 c 128,-1,25
 403 -202 403 -202 459 -258 c 1,26,27
 476 -279 476 -279 460 -289.5 c 128,-1,28
 444 -300 444 -300 428 -280 c 0,29,30
 405 -252 405 -252 380.5 -220 c 128,-1,31
 356 -188 356 -188 339 -154 c 0,32,33
 334 -144 334 -144 324.5 -144 c 128,-1,34
 315 -144 315 -144 310 -152 c 0,35,36
 251 -252 251 -252 146 -313.5 c 128,-1,37
 41 -375 41 -375 -81 -371 c 0,38,39
 -106 -370 -106 -370 -106 -351.5 c 128,-1,40
 -106 -333 -106 -333 -81 -333 c 0,41,42
 18 -333 18 -333 77.5 -276 c 128,-1,43
 137 -219 137 -219 137 -68 c 2,44,-1
 134 782 l 2,0,1
286 1451 m 0,45,46
 399 1451 399 1451 387 1344 c 0,47,48
 381 1290 381 1290 319.5 1235.5 c 128,-1,49
 258 1181 258 1181 222 1182 c 0,50,51
 186 1182 186 1182 167.5 1239 c 128,-1,52
 149 1296 149 1296 152 1344 c 0,53,54
 155 1390 155 1390 196.5 1420.5 c 128,-1,55
 238 1451 238 1451 286 1451 c 0,45,46
EndSplineSet
EndChar

StartChar: k
Encoding: 107 107 80
Width: 665
Flags: W
HStem: 837 97<396.068 610> 837 32<41.4688 105.539> 1062 209<505.173 615.979> 1386 38<497.123 618.89>
VStem: 175 202<214.287 836.995> 410 206<1093.39 1176.55>
LayerCount: 2
Fore
SplineSet
41 851 m 0,0,1
 43 865 43 865 62 869 c 0,2,3
 123 884 123 884 147.5 920.5 c 128,-1,4
 172 957 172 957 169 1048 c 1,5,6
 158 1144 158 1144 129.5 1205 c 128,-1,7
 101 1266 101 1266 57 1311 c 0,8,9
 40 1328 40 1328 54 1340 c 128,-1,10
 68 1352 68 1352 87 1333 c 1,11,12
 110 1305 110 1305 134.5 1273 c 128,-1,13
 159 1241 159 1241 176 1207 c 0,14,15
 181 1197 181 1197 190.5 1197 c 128,-1,16
 200 1197 200 1197 205 1205 c 0,17,18
 265 1305 265 1305 369.5 1366.5 c 128,-1,19
 474 1428 474 1428 596 1424 c 0,20,21
 617 1423 617 1423 619 1404.5 c 128,-1,22
 621 1386 621 1386 596 1386 c 0,23,24
 497 1386 497 1386 437.5 1329 c 128,-1,25
 378 1272 378 1272 378 1110 c 0,26,27
 378 1097 378 1097 390.5 1093.5 c 128,-1,28
 403 1090 403 1090 410 1103 c 0,29,30
 471 1236 471 1236 595 1271 c 1,31,32
 616 1272 616 1272 616 1255 c 2,33,-1
 616 1078 l 1,34,35
 617 1057 617 1057 598 1062 c 1,36,37
 489 1076 489 1076 409 999 c 1,38,39
 394 978 394 978 396 956 c 128,-1,40
 398 934 398 934 422 934 c 2,41,-1
 594 934 l 2,42,43
 610 934 610 934 610 918 c 2,44,-1
 610 854 l 2,45,46
 610 837 610 837 594 837 c 2,47,-1
 392 837 l 2,48,49
 378 837 378 837 378 819 c 2,50,-1
 377 255 l 2,51,52
 377 223 377 223 392 214 c 2,53,-1
 464 173 l 1,54,55
 487 162 487 162 533 221 c 0,56,57
 543 233 543 233 557 223 c 128,-1,58
 571 213 571 213 559 201 c 0,59,60
 454 84 454 84 398 -29 c 1,61,62
 386 -50 386 -50 362 -29 c 1,63,64
 311 38 311 38 263.5 72.5 c 128,-1,65
 216 107 216 107 115 126 c 0,66,67
 99 128 99 128 98.5 140.5 c 128,-1,68
 98 153 98 153 109 158 c 0,69,70
 134 167 134 167 154.5 191.5 c 128,-1,71
 175 216 175 216 175 273 c 2,72,-1
 174 817 l 2,73,74
 174 837 174 837 154 837 c 2,75,-1
 63 837 l 2,76,77
 40 837 40 837 41 851 c 0,0,1
EndSplineSet
EndChar

StartChar: l
Encoding: 108 108 81
Width: 559
Flags: W
HStem: 1389 38<493.123 615.959>
VStem: 171 202<217.287 1205.18>
LayerCount: 2
Fore
SplineSet
52 1314 m 0,0,1
 39 1328 39 1328 51.5 1341 c 128,-1,2
 64 1354 64 1354 83 1336 c 1,3,4
 106 1308 106 1308 130.5 1276 c 128,-1,5
 155 1244 155 1244 172 1210 c 0,6,7
 177 1200 177 1200 186.5 1200 c 128,-1,8
 196 1200 196 1200 201 1208 c 0,9,10
 260 1308 260 1308 365 1369.5 c 128,-1,11
 470 1431 470 1431 592 1427 c 0,12,13
 615 1426 615 1426 616 1407.5 c 128,-1,14
 617 1389 617 1389 592 1389 c 0,15,16
 493 1389 493 1389 433.5 1332 c 128,-1,17
 374 1275 374 1275 374 1124 c 2,18,-1
 373 258 l 2,19,20
 373 226 373 226 388 217 c 2,21,-1
 460 176 l 1,22,23
 485 167 485 167 529 224 c 0,24,25
 540 239 540 239 556 230.5 c 128,-1,26
 572 222 572 222 555 204 c 0,27,28
 450 87 450 87 394 -26 c 1,29,30
 382 -47 382 -47 358 -26 c 1,31,32
 309 37 309 37 257 73.5 c 128,-1,33
 205 110 205 110 111 129 c 1,34,35
 95 131 95 131 94.5 143.5 c 128,-1,36
 94 156 94 156 105 161 c 0,37,38
 130 170 130 170 150.5 194.5 c 128,-1,39
 171 219 171 219 171 276 c 2,40,-1
 170 948 l 2,41,42
 170 1092 170 1092 139 1175 c 128,-1,43
 108 1258 108 1258 52 1314 c 0,0,1
EndSplineSet
EndChar

StartChar: m
Encoding: 109 109 82
Width: 1453
Flags: W
VStem: 202 202<188.728 794> 629 201<188.728 833.535> 1049 203<179.767 823.726>
LayerCount: 2
Fore
SplineSet
405 786 m 1,0,-1
 404 362 l 2,1,2
 403 199 403 199 464 177 c 1,3,4
 471 171 471 171 471 163 c 128,-1,5
 471 155 471 155 464 150 c 0,6,7
 376 85 376 85 318 -29 c 1,8,9
 312 -38 312 -38 302.5 -38 c 128,-1,10
 293 -38 293 -38 288 -29 c 0,11,12
 230 84 230 84 136 149 c 1,13,14
 130 155 130 155 130 163 c 128,-1,15
 130 171 130 171 137 177 c 1,16,17
 204 199 204 199 202 362 c 1,18,-1
 202 715 l 2,19,20
 202 817 202 817 164 840 c 1,21,22
 120 869 120 869 92 819 c 0,23,24
 81 798 81 798 66.5 807.5 c 128,-1,25
 52 817 52 817 68 844 c 0,26,27
 97 890 97 890 123.5 938 c 128,-1,28
 150 986 150 986 178 1034 c 0,29,30
 194 1063 194 1063 223 1046 c 1,31,-1
 224 1045 l 1,32,33
 368 974 368 974 398 869 c 0,34,35
 401 859 401 859 409 858 c 1,36,37
 417 855 417 855 425 860 c 1,38,39
 474 902 474 902 528.5 950.5 c 128,-1,40
 583 999 583 999 604 1034 c 0,41,42
 620 1062 620 1062 648 1046 c 1,43,44
 792 975 792 975 823 873 c 0,45,46
 827 859 827 859 835 859 c 128,-1,47
 843 859 843 859 849 865 c 0,48,49
 903 909 903 909 955.5 956.5 c 128,-1,50
 1008 1004 1008 1004 1029 1046 c 1,51,52
 1040 1072 1040 1072 1065 1045 c 0,53,54
 1125 982 1125 982 1168 945 c 128,-1,55
 1211 908 1211 908 1313 890 c 0,56,57
 1328 887 1328 887 1329 877 c 1,58,59
 1329 860 1329 860 1318 859 c 1,60,61
 1292 849 1292 849 1272 824.5 c 128,-1,62
 1252 800 1252 800 1252 743 c 2,63,-1
 1252 308 l 2,64,65
 1252 206 1252 206 1290 183 c 0,66,67
 1334 157 1334 157 1362 205 c 0,68,69
 1372 224 1372 224 1386.5 213.5 c 128,-1,70
 1401 203 1401 203 1387 179 c 1,71,72
 1357 132 1357 132 1330 84.5 c 128,-1,73
 1303 37 1303 37 1276 -10 c 1,74,75
 1258 -38 1258 -38 1231 -23 c 1,76,77
 1140 21 1140 21 1094.5 85 c 128,-1,78
 1049 149 1049 149 1049 238 c 2,79,-1
 1050 762 l 2,80,81
 1050 792 1050 792 1034 803 c 1,82,-1
 950 873 l 1,83,84
 938 881 938 881 926 874 c 1,85,86
 861 824 861 824 846 811.5 c 128,-1,87
 831 799 831 799 831 784 c 2,88,-1
 830 362 l 2,89,90
 830 198 830 198 891 177 c 1,91,92
 898 170 898 170 898 163.5 c 128,-1,93
 898 157 898 157 891 150 c 1,94,95
 803 87 803 87 744 -29 c 1,96,97
 738 -38 738 -38 728 -38 c 128,-1,98
 718 -38 718 -38 715 -29 c 1,99,100
 658 82 658 82 563 149 c 0,101,102
 556 154 556 154 556 162 c 128,-1,103
 556 170 556 170 563 177 c 1,104,105
 634 199 634 199 629 362 c 1,106,-1
 628 715 l 2,107,108
 628 789 628 789 590 840 c 0,109,110
 543 902 543 902 495 864 c 1,111,-1
 411 800 l 1,112,-1
 407 794 l 1,113,-1
 405 786 l 1,0,-1
EndSplineSet
EndChar

StartChar: n
Encoding: 110 110 83
Width: 1032
Flags: W
VStem: 197 202<187.611 800.109> 633 203<171.042 778.714>
LayerCount: 2
Fore
SplineSet
399 361 m 1,0,1
 398 200 398 200 459 175 c 1,2,3
 466 170 466 170 466 161.5 c 128,-1,4
 466 153 466 153 459 149 c 1,5,6
 369 81 369 81 313 -32 c 1,7,8
 307 -40 307 -40 298 -40 c 128,-1,9
 289 -40 289 -40 283 -32 c 1,10,11
 227 81 227 81 131 148 c 0,12,13
 125 152 125 152 125 161 c 128,-1,14
 125 170 125 170 132 175 c 1,15,16
 197 200 197 200 197 361 c 2,17,-1
 197 693 l 2,18,19
 197 795 197 795 159 818 c 1,20,21
 115 847 115 847 87 797 c 0,22,23
 76 776 76 776 62 787 c 128,-1,24
 48 798 48 798 63 822 c 0,25,26
 92 868 92 868 118.5 916 c 128,-1,27
 145 964 145 964 173 1012 c 0,28,29
 189 1041 189 1041 218 1024 c 1,30,-1
 219 1023 l 1,31,32
 366 949 366 949 395 842 c 0,33,34
 397 831 397 831 405 829 c 128,-1,35
 413 827 413 827 421 833 c 0,36,37
 476 879 476 879 534 930 c 128,-1,38
 592 981 592 981 613 1024 c 1,39,40
 624 1050 624 1050 649 1023 c 0,41,42
 709 960 709 960 751.5 923 c 128,-1,43
 794 886 794 886 896 868 c 0,44,45
 914 864 914 864 914.5 852.5 c 128,-1,46
 915 841 915 841 902 837 c 0,47,48
 876 827 876 827 856 802.5 c 128,-1,49
 836 778 836 778 836 721 c 2,50,-1
 836 298 l 2,51,52
 836 196 836 196 874 173 c 0,53,54
 918 146 918 146 945 195 c 0,55,56
 956 214 956 214 970.5 203.5 c 128,-1,57
 985 193 985 193 970 169 c 0,58,59
 940 122 940 122 913.5 74.5 c 128,-1,60
 887 27 887 27 860 -20 c 1,61,62
 842 -48 842 -48 815 -33 c 1,63,64
 633 55 633 55 633 228 c 2,65,-1
 634 740 l 2,66,67
 634 770 634 770 619 779 c 1,68,-1
 618 779 l 1,69,-1
 618 781 l 1,70,-1
 533 851 l 2,71,72
 522 859 522 859 510 852 c 1,73,-1
 406 771 l 2,74,75
 399 766 399 766 399 759 c 2,76,-1
 399 361 l 1,0,1
EndSplineSet
EndChar

StartChar: o
Encoding: 111 111 84
Width: 847
Flags: W
VStem: 74 208<260.181 892.328> 605 190<355.062 604.219>
LayerCount: 2
Fore
SplineSet
387 -18 m 1,0,1
 372 -43 372 -43 350 -18 c 1,2,3
 240 119 240 119 16 188 c 0,4,5
 -2 193 -2 193 -1.5 204 c 128,-1,6
 -1 215 -1 215 10 220 c 1,7,8
 74 242 74 242 74 353 c 2,9,-1
 71 863 l 2,10,11
 71 874 71 874 69 880.5 c 128,-1,12
 67 887 67 887 70.5 892.5 c 128,-1,13
 74 898 74 898 84 899 c 0,14,15
 350 921 350 921 557 1044 c 0,16,17
 566 1049 566 1049 573.5 1047 c 128,-1,18
 581 1045 581 1045 582 1033 c 0,19,20
 599 925 599 925 688 821 c 1,21,22
 737 761 737 761 769.5 657 c 128,-1,23
 802 553 802 553 795 484 c 1,24,25
 785 403 785 403 742 338.5 c 128,-1,26
 699 274 699 274 644 220 c 0,27,28
 579 156 579 156 504 112 c 128,-1,29
 429 68 429 68 387 -18 c 1,0,1
278 876 m 2,30,-1
 282 300 l 2,31,32
 282 285 282 285 294 279 c 1,33,-1
 471 169 l 2,34,35
 497 152 497 152 519 179 c 1,36,37
 614 281 614 281 605 424 c 1,38,39
 603 513 603 513 570.5 583 c 128,-1,40
 538 653 538 653 490 707 c 1,41,42
 412 786 412 786 371 903 c 0,43,44
 369 908 369 908 362 911.5 c 128,-1,45
 355 915 355 915 349 912 c 0,46,47
 319 901 319 901 289 893 c 1,48,49
 278 889 278 889 278 876 c 2,30,-1
EndSplineSet
EndChar

StartChar: p
Encoding: 112 112 85
Width: 923
Flags: W
VStem: 178 194<320.004 793.622> 257 33<-323.632 -311.817>
LayerCount: 2
Fore
SplineSet
174 1184 m 0,0,1
 130 1138 130 1138 135 1094.5 c 128,-1,2
 140 1051 140 1051 207 1031 c 0,3,4
 293 1005 293 1005 321 963.5 c 128,-1,5
 349 922 349 922 355 867 c 0,6,7
 356 857 356 857 363.5 854 c 128,-1,8
 371 851 371 851 379 854 c 1,9,10
 506 928 506 928 640 1031 c 0,11,12
 648 1037 648 1037 656 1033 c 128,-1,13
 664 1029 664 1029 666 1021 c 0,14,15
 676 967 676 967 706.5 929 c 128,-1,16
 737 891 737 891 770 854 c 0,17,18
 893 715 893 715 879 543 c 1,19,20
 865 332 865 332 732 220 c 0,21,22
 585 96 585 96 506 -13 c 0,23,24
 496 -26 496 -26 483 -17 c 1,25,26
 458 -2 458 -2 433 12 c 128,-1,27
 408 26 408 26 383 41 c 0,28,29
 375 45 375 45 367.5 41.5 c 128,-1,30
 360 38 360 38 360 28 c 1,31,32
 348 -80 348 -80 329.5 -184 c 128,-1,33
 311 -288 311 -288 290 -393 c 1,34,35
 286 -407 286 -407 273 -406.5 c 128,-1,36
 260 -406 260 -406 257 -393 c 0,37,38
 236 -272 236 -272 217.5 -134.5 c 128,-1,39
 199 3 199 3 189 130 c 1,40,41
 187 141 187 141 178 144 c 0,42,43
 77 181 77 181 35 135 c 0,44,45
 26 126 26 126 16.5 129.5 c 128,-1,46
 7 133 7 133 7 147 c 0,47,48
 8 310 8 310 163 320 c 0,49,50
 178 320 178 320 178 336 c 2,51,-1
 178 367 l 2,52,53
 178 516 178 516 173.5 581 c 128,-1,54
 169 646 169 646 166 739 c 0,55,56
 164 784 164 784 143 808 c 128,-1,57
 122 832 122 832 101 850 c 0,58,59
 10 925 10 925 25.5 1015.5 c 128,-1,60
 41 1106 41 1106 144 1200 c 1,61,62
 162 1219 162 1219 175 1208.5 c 128,-1,63
 188 1198 188 1198 174 1184 c 0,0,1
372 278 m 0,64,65
 372 266 372 266 381 263 c 1,66,67
 432 237 432 237 480.5 208 c 128,-1,68
 529 179 529 179 579 151 c 1,69,70
 594 144 594 144 602 157 c 0,71,72
 632 204 632 204 658 273 c 128,-1,73
 684 342 684 342 686 445 c 0,74,75
 688 552 688 552 644.5 636.5 c 128,-1,76
 601 721 601 721 550 798 c 1,77,78
 497 872 497 872 367 809 c 0,79,80
 357 804 357 804 357 794 c 0,81,82
 358 782 358 782 358 758 c 2,83,-1
 371 362 l 2,84,85
 372 333 372 333 372 278 c 0,64,65
EndSplineSet
EndChar

StartChar: q
Encoding: 113 113 86
Width: 881
Flags: W
VStem: 554 193<-205.812 159.358 183.5 738.688>
LayerCount: 2
Fore
SplineSet
528 157 m 0,0,1
 477 118 477 118 412.5 69.5 c 128,-1,2
 348 21 348 21 294 -21 c 0,3,4
 276 -35 276 -35 265.5 -33 c 128,-1,5
 255 -31 255 -31 257 -15 c 1,6,7
 257 6 257 6 195 65 c 0,8,9
 32 218 32 218 38 463 c 0,10,11
 44 673 44 673 233 818 c 0,12,13
 291 862 291 862 341.5 911 c 128,-1,14
 392 960 392 960 431 1030 c 1,15,16
 447 1061 447 1061 475 1032 c 1,17,18
 546 951 546 951 634.5 890 c 128,-1,19
 723 829 723 829 802 814 c 1,20,-1
 805 815 l 2,21,22
 816 818 816 818 824 809 c 1,23,24
 834 793 834 793 823 789 c 0,25,26
 760 765 760 765 748 707.5 c 128,-1,27
 736 650 736 650 738 590 c 2,28,-1
 747 183 l 2,29,30
 751 -34 751 -34 727.5 -128 c 128,-1,31
 704 -222 704 -222 665 -402 c 1,32,33
 662 -421 662 -421 649 -420.5 c 128,-1,34
 636 -420 636 -420 634 -402 c 1,35,36
 604 -232 604 -232 581 -110 c 128,-1,37
 558 12 558 12 555 144 c 1,38,39
 553 155 553 155 545 159.5 c 128,-1,40
 537 164 537 164 528 157 c 0,0,1
388 832 m 1,41,-1
 385 835 l 1,42,43
 351 888 351 888 321 844 c 0,44,45
 215 686 215 686 238 495 c 0,46,47
 270 222 270 222 430 158 c 0,48,49
 451 150 451 150 471.5 155 c 128,-1,50
 492 160 492 160 551 229 c 0,51,52
 554 233 554 233 554 239 c 0,53,54
 553 375 553 375 549.5 506.5 c 128,-1,55
 546 638 546 638 543 712 c 0,56,57
 543 722 543 722 536 724 c 1,58,59
 466 760 466 760 388 832 c 1,41,-1
EndSplineSet
EndChar

StartChar: r
Encoding: 114 114 87
Width: 743
Flags: W
HStem: 136 32<111.004 157.264>
VStem: 190 201<207.845 807.401>
LayerCount: 2
Fore
SplineSet
392 750 m 2,0,-1
 391 265 l 2,1,2
 391 233 391 233 407 224 c 2,3,-1
 479 182 l 2,4,5
 502 168 502 168 549 231 c 0,6,7
 559 244 559 244 574 236.5 c 128,-1,8
 589 229 589 229 574 211 c 0,9,10
 469 94 469 94 413 -19 c 1,11,12
 396 -42 396 -42 376 -19 c 0,13,14
 320 46 320 46 271.5 80 c 128,-1,15
 223 114 223 114 129 136 c 0,16,17
 111 141 111 141 111 152 c 128,-1,18
 111 163 111 163 124 168 c 1,19,20
 191 179 191 179 190 283 c 1,21,-1
 190 706 l 2,22,23
 190 808 190 808 152 831 c 1,24,25
 108 860 108 860 80 810 c 0,26,27
 69 789 69 789 55 800 c 128,-1,28
 41 811 41 811 56 835 c 0,29,30
 85 881 85 881 111.5 929 c 128,-1,31
 138 977 138 977 166 1025 c 0,32,33
 183 1055 183 1055 211 1036 c 1,34,35
 358 965 358 965 387 856 c 0,36,37
 390 846 390 846 399 843.5 c 128,-1,38
 408 841 408 841 415 850 c 2,39,-1
 569 1027 l 2,40,41
 575 1033 575 1033 583 1032.5 c 128,-1,42
 591 1032 591 1032 596 1024 c 2,43,-1
 701 823 l 2,44,45
 705 814 705 814 699 806 c 2,46,-1
 579 662 l 2,47,48
 572 655 572 655 563.5 656 c 128,-1,49
 555 657 555 657 552 665 c 1,50,-1
 471 815 l 2,51,52
 467 821 467 821 458.5 822.5 c 128,-1,53
 450 824 450 824 443 817 c 2,54,-1
 396 760 l 2,55,56
 392 756 392 756 392 750 c 2,0,-1
EndSplineSet
EndChar

StartChar: s
Encoding: 115 115 88
Width: 855
Flags: W
HStem: 1201 38<363.161 647.46>
LayerCount: 2
Fore
SplineSet
388 1239 m 1,0,1
 528 1276 528 1276 645 1222 c 1,2,3
 724 1184 724 1184 768 1117 c 128,-1,4
 812 1050 812 1050 803 967 c 128,-1,5
 794 884 794 884 748.5 844 c 128,-1,6
 703 804 703 804 674 782 c 128,-1,7
 645 760 645 760 619 736 c 0,8,9
 568 688 568 688 611 650 c 0,10,11
 746 533 746 533 766.5 453 c 128,-1,12
 787 373 787 373 738 312 c 0,13,14
 670 228 670 228 593.5 152.5 c 128,-1,15
 517 77 517 77 442 0 c 1,16,17
 405 -36 405 -36 397 4 c 1,18,19
 384 59 384 59 279.5 100.5 c 128,-1,20
 175 142 175 142 59 180 c 1,21,22
 38 188 38 188 56 210 c 1,23,24
 83 238 83 238 112 266 c 128,-1,25
 141 294 141 294 170 321 c 0,26,27
 215 363 215 363 200.5 395.5 c 128,-1,28
 186 428 186 428 147 469 c 0,29,30
 49 571 49 571 52.5 660 c 128,-1,31
 56 749 56 749 117 817 c 0,32,33
 174 880 174 880 245.5 932.5 c 128,-1,34
 317 985 317 985 381 1050 c 0,35,36
 389 1057 389 1057 402 1045 c 0,37,38
 536 926 536 926 625.5 925 c 128,-1,39
 715 924 715 924 742 978 c 0,40,41
 769 1033 769 1033 737 1092.5 c 128,-1,42
 705 1152 705 1152 633 1191 c 1,43,44
 524 1245 524 1245 394 1201 c 1,45,46
 368 1191 368 1191 363 1212 c 128,-1,47
 358 1233 358 1233 388 1239 c 1,0,1
228 341 m 1,48,49
 218 324 218 324 234 315 c 1,50,51
 305 282 305 282 376 250 c 128,-1,52
 447 218 447 218 519 188 c 1,53,54
 569 166 569 166 619 245 c 0,55,56
 681 344 681 344 455 505 c 1,57,58
 420 526 420 526 369 485 c 1,59,-1
 228 341 l 1,48,49
366 549 m 0,60,61
 378 540 378 540 388 550 c 2,62,-1
 574 732 l 2,63,64
 583 742 583 742 579.5 750.5 c 128,-1,65
 576 759 576 759 564 760 c 0,66,67
 507 766 507 766 438 804 c 1,68,69
 327 867 327 867 293 889 c 128,-1,70
 259 911 259 911 206 849 c 0,71,72
 139 770 139 770 205.5 698 c 128,-1,73
 272 626 272 626 366 549 c 0,60,61
EndSplineSet
EndChar

StartChar: t
Encoding: 116 116 89
Width: 633
Flags: W
HStem: 832 109<387.188 585.843>
VStem: 181 201<214.318 831.996>
LayerCount: 2
Fore
SplineSet
383 815 m 2,0,-1
 382 255 l 2,1,2
 382 224 382 224 397 214 c 1,3,-1
 469 173 l 1,4,5
 490 155 490 155 539 221 c 0,6,7
 548 234 548 234 563.5 225 c 128,-1,8
 579 216 579 216 565 201 c 0,9,10
 458 84 458 84 404 -29 c 1,11,12
 387 -50 387 -50 367 -29 c 1,13,14
 311 37 311 37 263 70 c 128,-1,15
 215 103 215 103 120 126 c 0,16,17
 104 129 104 129 103 141 c 128,-1,18
 102 153 102 153 115 158 c 1,19,20
 182 174 182 174 181 273 c 2,21,-1
 180 814 l 1,22,23
 181 832 181 832 165 832 c 2,24,-1
 47 832 l 2,25,26
 33 832 33 832 29 843 c 256,27,28
 25 854 25 854 38 862 c 0,29,30
 158 947 158 947 282.5 1067 c 128,-1,31
 407 1187 407 1187 509 1295 c 0,32,33
 522 1309 522 1309 534.5 1300.5 c 128,-1,34
 547 1292 547 1292 535 1276 c 0,35,36
 489 1219 489 1219 442.5 1128 c 128,-1,37
 396 1037 396 1037 386 962 c 0,38,39
 384 952 384 952 387 947 c 1,40,41
 393 941 393 941 401 941 c 2,42,-1
 574 941 l 2,43,44
 581 941 581 941 586 936 c 1,45,46
 591 929 591 929 591 923 c 2,47,-1
 587 848 l 1,48,49
 585 832 585 832 570 832 c 2,50,-1
 397 832 l 2,51,52
 383 832 383 832 383 815 c 2,0,-1
EndSplineSet
EndChar

StartChar: u
Encoding: 117 117 90
Width: 1032
Flags: W
HStem: 1045 20G<728 738>
VStem: 196 201<202.274 830.651> 632 203<204.531 839.381>
LayerCount: 2
Fore
SplineSet
632 247 m 2,0,-1
 633 664 l 2,1,2
 633 832 633 832 572 850 c 1,3,4
 565 855 565 855 565 862.5 c 128,-1,5
 565 870 565 870 572 876 c 0,6,7
 661 940 661 940 719 1056 c 0,8,9
 723 1065 723 1065 733 1065 c 128,-1,10
 743 1065 743 1065 748 1056 c 0,11,12
 801 941 801 941 900 877 c 1,13,14
 907 871 907 871 907 862.5 c 128,-1,15
 907 854 907 854 899 850 c 1,16,17
 833 831 833 831 835 664 c 1,18,-1
 835 312 l 2,19,20
 835 209 835 209 873 186 c 1,21,22
 915 158 915 158 944 208 c 0,23,24
 955 227 955 227 969.5 216.5 c 128,-1,25
 984 206 984 206 969 182 c 0,26,27
 939 136 939 136 912.5 88 c 128,-1,28
 886 40 886 40 859 -6 c 0,29,30
 842 -35 842 -35 812 -17 c 1,31,32
 663 54 663 54 637 163 c 0,33,34
 635 171 635 171 625 174 c 128,-1,35
 615 177 615 177 611 171 c 1,36,37
 554 125 554 125 497 74.5 c 128,-1,38
 440 24 440 24 419 -18 c 1,39,40
 402 -42 402 -42 382 -17 c 1,41,42
 327 47 327 47 274.5 81 c 128,-1,43
 222 115 222 115 135 136 c 1,44,45
 116 143 116 143 117 153 c 128,-1,46
 118 163 118 163 130 168 c 0,47,48
 155 177 155 177 175.5 201.5 c 128,-1,49
 196 226 196 226 196 283 c 2,50,-1
 196 706 l 2,51,52
 196 808 196 808 158 831 c 0,53,54
 113 858 113 858 86 809 c 0,55,56
 75 790 75 790 61 801 c 128,-1,57
 47 812 47 812 62 836 c 0,58,59
 91 881 91 881 117.5 929 c 128,-1,60
 144 977 144 977 172 1025 c 0,61,62
 189 1055 189 1055 217 1036 c 1,63,-1
 218 1036 l 1,64,65
 399 941 399 941 399 776 c 2,66,-1
 397 264 l 2,67,68
 397 235 397 235 412 225 c 1,69,-1
 498 154 l 2,70,71
 508 145 508 145 521 152 c 1,72,73
 602 216 602 216 626 234 c 0,74,75
 632 238 632 238 632 247 c 2,0,-1
EndSplineSet
EndChar

StartChar: v
Encoding: 118 118 91
Width: 925
Flags: W
LayerCount: 2
Fore
SplineSet
124 104 m 0,0,1
 105 97 105 97 103 110.5 c 128,-1,2
 101 124 101 124 118 140 c 1,3,4
 233 293 233 293 233.5 428 c 128,-1,5
 234 563 234 563 138 661 c 0,6,7
 -23 826 -23 826 0 920.5 c 128,-1,8
 23 1015 23 1015 155 1147 c 0,9,10
 168 1161 168 1161 178.5 1152 c 128,-1,11
 189 1143 189 1143 177 1129 c 0,12,13
 107 1045 107 1045 167 984 c 0,14,15
 240 910 240 910 281 852 c 0,16,17
 289 840 289 840 303 847 c 0,18,19
 391 895 391 895 470.5 949.5 c 128,-1,20
 550 1004 550 1004 628 1065 c 0,21,22
 636 1072 636 1072 645 1069 c 128,-1,23
 654 1066 654 1066 655 1055 c 0,24,25
 664 1000 664 1000 695 961 c 128,-1,26
 726 922 726 922 759 885 c 1,27,28
 880 741 880 741 868 565 c 0,29,30
 852 346 852 346 720 234 c 0,31,32
 654 177 654 177 585 106.5 c 128,-1,33
 516 36 516 36 471 -27 c 1,34,35
 460 -39 460 -39 449 -31 c 0,36,37
 393 5 393 5 299 68 c 128,-1,38
 205 131 205 131 124 104 c 0,0,1
305 269 m 0,39,40
 359 249 359 249 422 211 c 0,41,42
 491 170 491 170 545 138 c 0,43,44
 558 130 558 130 567 144 c 0,45,46
 596 193 596 193 634 276 c 128,-1,47
 672 359 672 359 675 465 c 1,48,49
 676 574 676 574 633 661 c 128,-1,50
 590 748 590 748 538 827 c 1,51,52
 480 911 480 911 322 820 c 0,53,54
 308 813 308 813 316 798 c 0,55,56
 401 649 401 649 378 521 c 0,57,58
 357 399 357 399 296 294 c 0,59,60
 293 289 293 289 295 280 c 128,-1,61
 297 271 297 271 305 269 c 0,39,40
EndSplineSet
EndChar

StartChar: w
Encoding: 119 119 92
Width: 1411
Flags: W
VStem: 212 201<182.07 782.495> 652 209<253.194 823.938>
LayerCount: 2
Fore
SplineSet
871 849 m 0,0,1
 932 882 932 882 1005.5 927 c 128,-1,2
 1079 972 1079 972 1127 1018 c 1,3,4
 1162 1055 1162 1055 1169 1005 c 1,5,6
 1173 968 1173 968 1200.5 939 c 128,-1,7
 1228 910 1228 910 1250 882 c 0,8,9
 1368 729 1368 729 1357 563 c 0,10,11
 1346 389 1346 389 1243 284 c 0,12,13
 1200 239 1200 239 1148 197.5 c 128,-1,14
 1096 156 1096 156 1049 98 c 128,-1,15
 1002 40 1002 40 968 -27 c 0,16,17
 955 -54 955 -54 931 -27 c 1,18,19
 823 109 823 109 596 179 c 1,20,21
 581 186 581 186 581 196.5 c 128,-1,22
 581 207 581 207 591 211 c 0,23,24
 655 233 655 233 654 344 c 0,25,26
 654 443 654 443 651.5 542.5 c 128,-1,27
 649 642 649 642 652 741 c 1,28,-1
 652 742 l 1,29,30
 650 773 650 773 620 810 c 1,31,32
 573 872 573 872 525 834 c 1,33,-1
 417 752 l 1,34,35
 411 746 411 746 411 738 c 0,36,37
 411 642 411 642 412 545.5 c 128,-1,38
 413 449 413 449 413 353 c 0,39,40
 413 195 413 195 475 167 c 1,41,42
 481 162 481 162 481 153.5 c 128,-1,43
 481 145 481 145 475 141 c 0,44,45
 377 70 377 70 327 -40 c 1,46,47
 320 -50 320 -50 312 -49 c 128,-1,48
 304 -48 304 -48 298 -40 c 1,49,50
 243 71 243 71 147 140 c 1,51,52
 139 144 139 144 139 153 c 128,-1,53
 139 162 139 162 147 167 c 1,54,55
 212 197 212 197 212 353 c 2,56,-1
 212 539 l 2,57,58
 212 632 212 632 209 725 c 0,59,60
 208 770 208 770 186.5 794 c 128,-1,61
 165 818 165 818 144 836 c 0,62,63
 54 911 54 911 69.5 1001.5 c 128,-1,64
 85 1092 85 1092 187 1186 c 0,65,66
 206 1204 206 1204 219 1194 c 128,-1,67
 232 1184 232 1184 218 1170 c 0,68,69
 174 1124 174 1124 178.5 1080.5 c 128,-1,70
 183 1037 183 1037 251 1017 c 1,71,72
 344 988 344 988 374 939 c 128,-1,73
 404 890 404 890 409 826 c 0,74,75
 409 815 409 815 417 810.5 c 128,-1,76
 425 806 425 806 436 814 c 0,77,78
 487 857 487 857 549 911 c 128,-1,79
 611 965 611 965 634 1004 c 0,80,81
 650 1033 650 1033 679 1016 c 0,82,83
 679 1015 679 1015 681 1015 c 0,84,85
 813 949 813 949 848 858 c 0,86,87
 851 849 851 849 857 847 c 128,-1,88
 863 845 863 845 871 849 c 0,0,1
861 639 m 1,89,90
 862 407 862 407 863 291 c 0,91,92
 863 276 863 276 875 270 c 1,93,-1
 1029 178 l 1,94,95
 1054 165 1054 165 1070 182 c 2,96,-1
 1088 201 l 1,97,98
 1171 322 1171 322 1171 495 c 0,99,100
 1171 594 1171 594 1130 675.5 c 128,-1,101
 1089 757 1089 757 1022 832 c 0,102,103
 986 871 986 871 909 836 c 0,104,105
 894 829 894 829 870 816 c 1,106,107
 860 812 860 812 862 800 c 1,108,109
 862 772 862 772 861 639 c 1,89,90
EndSplineSet
EndChar

StartChar: x
Encoding: 120 120 93
Width: 807
Flags: W
HStem: -363 158.5<501.828 663.401>
VStem: 252 200<230.225 829.203>
LayerCount: 2
Fore
SplineSet
453 772 m 2,0,-1
 452 287 l 2,1,2
 452 255 452 255 468 246 c 2,3,-1
 539 205 l 1,4,5
 561 194 561 194 609 253 c 1,6,7
 623 266 623 266 635 255.5 c 128,-1,8
 647 245 647 245 635 233 c 0,9,10
 584 183 584 183 526 107 c 128,-1,11
 468 31 468 31 441 -24 c 0,12,13
 437 -32 437 -32 426.5 -33.5 c 128,-1,14
 416 -35 416 -35 405 -24 c 0,15,16
 384 -2 384 -2 339.5 33.5 c 128,-1,17
 295 69 295 69 252 68 c 1,18,19
 192 69 192 69 150 27.5 c 128,-1,20
 108 -14 108 -14 111 -56 c 1,21,22
 112 -184 112 -184 217.5 -255.5 c 128,-1,23
 323 -327 323 -327 439 -291 c 0,24,25
 469 -281 469 -281 503.5 -243 c 128,-1,26
 538 -205 538 -205 588.5 -204.5 c 128,-1,27
 639 -204 639 -204 667 -253 c 1,28,29
 683 -289 683 -289 664 -321 c 128,-1,30
 645 -353 645 -353 603 -363 c 0,31,32
 363 -424 363 -424 203 -312.5 c 128,-1,33
 43 -201 43 -201 71 -9 c 0,34,35
 82 64 82 64 115.5 110.5 c 128,-1,36
 149 157 149 157 212 192 c 1,37,38
 251 219 251 219 252 313 c 1,39,-1
 251 728 l 2,40,41
 251 830 251 830 213 853 c 1,42,43
 169 882 169 882 142 832 c 0,44,45
 130 811 130 811 115.5 822 c 128,-1,46
 101 833 101 833 117 857 c 0,47,48
 146 903 146 903 172.5 951 c 128,-1,49
 199 999 199 999 226 1047 c 0,50,51
 244 1077 244 1077 273 1058 c 1,52,53
 419 986 419 986 448 878 c 0,54,55
 451 868 451 868 460 865.5 c 128,-1,56
 469 863 469 863 476 872 c 2,57,-1
 630 1049 l 2,58,59
 636 1055 636 1055 644 1054.5 c 128,-1,60
 652 1054 652 1054 657 1046 c 2,61,-1
 762 845 l 2,62,63
 767 836 767 836 761 828 c 2,64,-1
 640 684 l 2,65,66
 626 667 626 667 613 687 c 1,67,-1
 531 837 l 2,68,69
 528 843 528 843 519 844.5 c 128,-1,70
 510 846 510 846 505 839 c 2,71,-1
 457 782 l 2,72,73
 453 778 453 778 453 772 c 2,0,-1
EndSplineSet
EndChar

StartChar: y
Encoding: 121 121 94
Width: 959
Flags: W
VStem: 198 202<163.322 835.5> 703 211<270.675 682.93>
LayerCount: 2
Fore
SplineSet
416 878 m 0,0,1
 476 911 476 911 537.5 949.5 c 128,-1,2
 599 988 599 988 651 1038 c 1,3,4
 686 1075 686 1075 693 1025 c 1,5,6
 696 988 696 988 724 959 c 128,-1,7
 752 930 752 930 775 902 c 0,8,9
 909 732 909 732 914 530 c 0,10,11
 920 236 920 236 706.5 10.5 c 128,-1,12
 493 -215 493 -215 317 -334 c 0,13,14
 293 -350 293 -350 282.5 -338 c 128,-1,15
 272 -326 272 -326 288 -313 c 0,16,17
 429 -188 429 -188 573 -40 c 128,-1,18
 717 108 717 108 703 429 c 0,19,20
 697 555 697 555 664 666.5 c 128,-1,21
 631 778 631 778 546 852 c 1,22,23
 498 891 498 891 407 839 c 0,24,25
 400 834 400 834 400 824 c 0,26,27
 401 631 401 631 402.5 498.5 c 128,-1,28
 404 366 404 366 405 232 c 1,29,30
 408 140 408 140 471 165 c 1,31,-1
 516 200 l 2,32,33
 533 213 533 213 546 202 c 128,-1,34
 559 191 559 191 544 177 c 0,35,36
 493 126 493 126 445.5 77.5 c 128,-1,37
 398 29 398 29 369 -24 c 1,38,39
 358 -47 358 -47 332 -24 c 1,40,41
 284 31 284 31 259.5 53 c 128,-1,42
 235 75 235 75 139 120 c 1,43,44
 119 127 119 127 119.5 138 c 128,-1,45
 120 149 120 149 133 153 c 0,46,47
 197 175 197 175 196 285 c 1,48,49
 196 399 196 399 198.5 515.5 c 128,-1,50
 201 632 201 632 198 743 c 0,51,52
 196 789 196 789 174.5 813 c 128,-1,53
 153 837 153 837 133 855 c 1,54,55
 43 930 43 930 61.5 1021 c 128,-1,56
 80 1112 80 1112 182 1206 c 1,57,58
 200 1226 200 1226 213.5 1215 c 128,-1,59
 227 1204 227 1204 214 1190 c 0,60,61
 169 1144 169 1144 174 1100.5 c 128,-1,62
 179 1057 179 1057 246 1037 c 0,63,64
 324 1013 324 1013 354 976 c 128,-1,65
 384 939 384 939 392 891 c 0,66,67
 393 883 393 883 400.5 878.5 c 128,-1,68
 408 874 408 874 416 878 c 0,0,1
EndSplineSet
EndChar

StartChar: z
Encoding: 122 122 95
Width: 682
Flags: W
HStem: -376 36<230.007 360.583>
VStem: 56 87<-241.704 138.979> 444 188<-132.98 203.913>
LayerCount: 2
Fore
SplineSet
132 827 m 0,0,1
 112 816 112 816 106.5 829.5 c 128,-1,2
 101 843 101 843 116 857 c 0,3,4
 164 901 164 901 212.5 945.5 c 128,-1,5
 261 990 261 990 306 1039 c 1,6,7
 325 1063 325 1063 340 1060.5 c 128,-1,8
 355 1058 355 1058 361 1041 c 1,9,10
 365 1017 365 1017 380.5 1015.5 c 128,-1,11
 396 1014 396 1014 418 1000 c 1,12,13
 583 873 583 873 514.5 767 c 128,-1,14
 446 661 446 661 307 568 c 0,15,16
 298 562 298 562 299 553 c 128,-1,17
 300 544 300 544 311 539 c 1,18,19
 366 521 366 521 410 496 c 1,20,21
 420 492 420 492 427 498 c 0,22,23
 509 555 509 555 596 597 c 1,24,25
 622 608 622 608 629 594 c 128,-1,26
 636 580 636 580 618 570 c 1,27,28
 524 525 524 525 469 486 c 1,29,30
 449 475 449 475 468 460 c 0,31,32
 544 403 544 403 586.5 324 c 128,-1,33
 629 245 629 245 632 80 c 0,34,35
 635 -93 635 -93 524.5 -234.5 c 128,-1,36
 414 -376 414 -376 300 -376 c 0,37,38
 212 -376 212 -376 134 -290 c 128,-1,39
 56 -204 56 -204 56 -74 c 0,40,41
 56 166 56 166 249 353 c 1,42,43
 265 371 265 371 246 379 c 1,44,45
 180 415 180 415 92 428 c 1,46,47
 47 438 47 438 86 462 c 1,48,49
 196 526 196 526 279.5 610 c 128,-1,50
 363 694 363 694 341 767 c 128,-1,51
 319 840 319 840 263 855 c 128,-1,52
 207 870 207 870 132 827 c 0,0,1
300 -340 m 0,53,54
 371 -340 371 -340 416 -260 c 128,-1,55
 461 -180 461 -180 444 17 c 1,56,57
 424 233 424 233 307 336 c 1,58,59
 295 348 295 348 284 335 c 0,60,61
 144 173 144 173 143 -75 c 0,62,63
 143 -180 143 -180 178 -260 c 128,-1,64
 213 -340 213 -340 300 -340 c 0,53,54
EndSplineSet
EndChar

StartChar: braceleft
Encoding: 123 123 96
Width: 679
Flags: W
HStem: -40.5 48.5<551.499 579.071>
VStem: 197 196<151.245 523.542 1023.97 1400.93> 237 194<250.231 617.31 919.125 1246.01>
LayerCount: 2
Fore
SplineSet
589 -32 m 2,0,1
 589 -37 589 -37 578 -40.5 c 128,-1,2
 567 -44 567 -44 551 -43 c 1,3,4
 395 -20 395 -20 302 74 c 0,5,6
 197 179 197 179 197 301 c 0,7,8
 197 332 197 332 217 441 c 1,9,10
 228 495 228 495 232.5 527.5 c 128,-1,11
 237 560 237 560 237 574 c 0,12,13
 237 645 237 645 190 686 c 1,14,15
 136 737 136 737 69 745 c 0,16,17
 56 746 56 746 48 748.5 c 128,-1,18
 40 751 40 751 40 756 c 2,19,-1
 40 792 l 2,20,21
 40 797 40 797 48 799.5 c 128,-1,22
 56 802 56 802 69 804 c 0,23,24
 136 812 136 812 191 861 c 0,25,26
 214 881 214 881 225.5 909.5 c 128,-1,27
 237 938 237 938 237 973 c 0,28,29
 237 988 237 988 232.5 1020.5 c 128,-1,30
 228 1053 228 1053 217 1107 c 1,31,32
 197 1216 197 1216 197 1247 c 0,33,34
 197 1314 197 1314 226 1373.5 c 128,-1,35
 255 1433 255 1433 309 1481 c 0,36,37
 360 1525 360 1525 421 1553 c 128,-1,38
 482 1581 482 1581 551 1590 c 1,39,40
 567 1591 567 1591 578 1587.5 c 128,-1,41
 589 1584 589 1584 589 1579 c 2,42,-1
 589 1549 l 2,43,44
 589 1546 589 1546 581.5 1542.5 c 128,-1,45
 574 1539 574 1539 563 1538 c 1,46,47
 393 1496 393 1496 393 1350 c 0,48,49
 393 1335 393 1335 398 1300 c 128,-1,50
 403 1265 403 1265 412 1214 c 256,51,52
 421 1163 421 1163 426 1126 c 128,-1,53
 431 1089 431 1089 431 1074 c 0,54,55
 431 971 431 971 372 898 c 128,-1,56
 313 825 313 825 181 776 c 1,57,58
 235 753 235 753 280 723 c 128,-1,59
 325 693 325 693 355 658 c 1,60,-1
 355 659 l 1,61,62
 431 571 431 571 431 474 c 0,63,64
 431 459 431 459 426 422 c 128,-1,65
 421 385 421 385 412 334 c 256,66,67
 403 283 403 283 398 248 c 128,-1,68
 393 213 393 213 393 198 c 0,69,70
 393 52 393 52 563 8 c 1,71,72
 574 7 574 7 581.5 3.5 c 128,-1,73
 589 0 589 0 589 -3 c 2,74,-1
 589 -32 l 2,0,1
EndSplineSet
EndChar

StartChar: bar
Encoding: 124 124 97
Width: 324
Flags: W
VStem: 97 124<-96 1597>
LayerCount: 2
Fore
SplineSet
221 -87 m 2,0,1
 221 -92 221 -92 212.5 -94 c 128,-1,2
 204 -96 204 -96 191 -96 c 2,3,-1
 126 -96 l 2,4,5
 114 -96 114 -96 105.5 -94 c 128,-1,6
 97 -92 97 -92 97 -87 c 2,7,-1
 97 1587 l 2,8,9
 97 1592 97 1592 105.5 1594.5 c 128,-1,10
 114 1597 114 1597 126 1597 c 2,11,-1
 191 1597 l 2,12,13
 204 1597 204 1597 212.5 1594.5 c 128,-1,14
 221 1592 221 1592 221 1587 c 2,15,-1
 221 -87 l 2,0,1
EndSplineSet
EndChar

StartChar: braceright
Encoding: 125 125 98
Width: 679
Flags: W
HStem: 1539 48.5<49.9292 77.5012>
VStem: 198 194<300.988 627.875 929.69 1296.77> 236 196<146.074 523.026 1023.46 1395.76>
LayerCount: 2
Fore
SplineSet
40 1579 m 2,0,1
 40 1584 40 1584 51 1587.5 c 128,-1,2
 62 1591 62 1591 78 1590 c 1,3,4
 234 1567 234 1567 327 1473 c 0,5,6
 432 1368 432 1368 432 1246 c 0,7,8
 432 1215 432 1215 412 1106 c 1,9,10
 401 1052 401 1052 396.5 1019.5 c 128,-1,11
 392 987 392 987 392 973 c 0,12,13
 392 902 392 902 439 861 c 1,14,15
 493 810 493 810 560 802 c 0,16,17
 573 801 573 801 581 798.5 c 128,-1,18
 589 796 589 796 589 791 c 2,19,-1
 589 755 l 2,20,21
 589 750 589 750 581 747.5 c 128,-1,22
 573 745 573 745 560 743 c 0,23,24
 493 735 493 735 438 686 c 0,25,26
 415 666 415 666 403.5 637.5 c 128,-1,27
 392 609 392 609 392 574 c 0,28,29
 392 559 392 559 396.5 526.5 c 128,-1,30
 401 494 401 494 412 440 c 1,31,32
 432 331 432 331 432 300 c 0,33,34
 432 233 432 233 403 173.5 c 128,-1,35
 374 114 374 114 320 66 c 0,36,37
 269 22 269 22 208 -6 c 128,-1,38
 147 -34 147 -34 78 -43 c 1,39,40
 62 -44 62 -44 51 -40.5 c 128,-1,41
 40 -37 40 -37 40 -32 c 2,42,-1
 40 -2 l 2,43,44
 40 1 40 1 47.5 4.5 c 128,-1,45
 55 8 55 8 66 9 c 1,46,47
 236 51 236 51 236 197 c 0,48,49
 236 212 236 212 231 247 c 128,-1,50
 226 282 226 282 217 333 c 256,51,52
 208 384 208 384 203 421 c 128,-1,53
 198 458 198 458 198 473 c 0,54,55
 198 576 198 576 257 649 c 128,-1,56
 316 722 316 722 448 771 c 1,57,58
 394 794 394 794 349 824 c 128,-1,59
 304 854 304 854 274 889 c 1,60,-1
 274 888 l 1,61,62
 198 976 198 976 198 1073 c 0,63,64
 198 1088 198 1088 203 1125 c 128,-1,65
 208 1162 208 1162 217 1213 c 256,66,67
 226 1264 226 1264 231 1299 c 128,-1,68
 236 1334 236 1334 236 1349 c 0,69,70
 236 1495 236 1495 66 1539 c 1,71,72
 55 1540 55 1540 47.5 1543.5 c 128,-1,73
 40 1547 40 1547 40 1550 c 2,74,-1
 40 1579 l 2,0,1
EndSplineSet
EndChar

StartChar: asciitilde
Encoding: 126 126 99
Width: 750
Flags: W
HStem: 537 148<47 704>
VStem: 47 657<537 685>
LayerCount: 2
Fore
SplineSet
63 685 m 2,0,-1
 688 685 l 2,1,2
 704 685 704 685 704 668 c 2,3,-1
 704 554 l 2,4,5
 704 537 704 537 688 537 c 2,6,-1
 63 537 l 2,7,8
 47 537 47 537 47 554 c 2,9,-1
 47 668 l 2,10,11
 47 685 47 685 63 685 c 2,0,-1
EndSplineSet
EndChar

StartChar: exclamdown
Encoding: 161 161 100
Width: 411
Flags: W
VStem: 186 32<397.789 565.609>
LayerCount: 2
Fore
SplineSet
347 898 m 0,0,1
 269 848 269 848 216 766 c 0,2,3
 200 742 200 742 187 766 c 0,4,5
 140 855 140 855 56 898 c 0,6,7
 28 912 28 912 56 926 c 0,8,9
 144 969 144 969 187 1057 c 0,10,11
 202 1086 202 1086 216 1057 c 1,12,13
 259 977 259 977 347 926 c 1,14,15
 371 914 371 914 347 898 c 0,0,1
364 -249 m 0,16,17
 277 -304 277 -304 218 -396 c 0,18,19
 201 -422 201 -422 186 -396 c 1,20,21
 134 -296 134 -296 40 -249 c 0,22,23
 9 -233 9 -233 40 -217 c 1,24,25
 138 -26 138 -26 186 550 c 1,26,27
 203 582 203 582 218 550 c 1,28,29
 266 -17 266 -17 364 -217 c 1,30,31
 391 -231 391 -231 364 -249 c 0,16,17
EndSplineSet
EndChar

StartChar: cent
Encoding: 162 162 101
Width: 852
Flags: W
HStem: 1081 20G<433 497>
VStem: 433 64<-96 -3 197 846 1032 1101>
LayerCount: 2
Fore
SplineSet
497 -96 m 1,0,-1
 433 -96 l 1,1,-1
 433 -3 l 1,2,3
 405 -21 405 -21 384 -38 c 0,4,5
 375 -44 375 -44 357.5 -42 c 128,-1,6
 340 -40 340 -40 340 -29 c 0,7,8
 338 -5 338 -5 314.5 7 c 128,-1,9
 291 19 291 19 275 31 c 0,10,11
 160 109 160 109 112.5 221.5 c 128,-1,12
 65 334 65 334 59 460 c 0,13,14
 47 745 47 745 213 894 c 0,15,16
 272 947 272 947 349 980 c 0,17,18
 390 998 390 998 433 1013 c 1,19,-1
 433 1101 l 1,20,-1
 497 1101 l 1,21,-1
 497 1032 l 1,22,23
 502 1033 502 1033 507 1035 c 1,24,25
 529 1039 529 1039 546 1013 c 1,26,-1
 748 881 l 1,27,28
 847 870 847 870 792 850 c 1,29,30
 718 839 718 839 657 798 c 0,31,32
 629 780 629 780 580 793 c 1,33,-1
 497 846 l 1,34,-1
 497 172 l 1,35,36
 634 131 634 131 738 171 c 1,37,38
 753 178 753 178 761 169 c 1,39,40
 769 156 769 156 756 150 c 0,41,42
 675 109 675 109 558 59 c 0,43,44
 525 45 525 45 497 31 c 1,45,-1
 497 -96 l 1,0,-1
333 929 m 0,46,47
 267 890 267 890 249 743 c 128,-1,48
 231 596 231 596 257 473 c 1,49,50
 299 264 299 264 433 197 c 1,51,-1
 433 886 l 1,52,-1
 373 925 l 1,53,54
 359 944 359 944 333 929 c 0,46,47
EndSplineSet
EndChar

StartChar: sterling
Encoding: 163 163 102
Width: 1171
Flags: W
HStem: 202 47<40.7076 115.492> 538 79<77.0112 296.295 541.828 740.988> 1408 44<524.453 740.65>
LayerCount: 2
Fore
SplineSet
564 617 m 2,0,-1
 565 617 l 1,1,-1
 692 617 l 2,2,3
 741 617 741 617 741 577.5 c 128,-1,4
 741 538 741 538 692 538 c 2,5,-1
 501 538 l 2,6,7
 487 538 487 538 471.5 535 c 128,-1,8
 456 532 456 532 446 519 c 1,9,10
 410 482 410 482 359 442 c 0,11,12
 349 434 349 434 350.5 425 c 128,-1,13
 352 416 352 416 364 413 c 1,14,15
 506 363 506 363 628 261 c 0,16,17
 745 163 745 163 875.5 165 c 128,-1,18
 1006 167 1006 167 1075 268 c 0,19,20
 1091 291 1091 291 1110.5 280.5 c 128,-1,21
 1130 270 1130 270 1115 246 c 1,22,23
 1066 176 1066 176 996.5 106 c 128,-1,24
 927 36 927 36 834.5 3 c 128,-1,25
 742 -30 742 -30 627 -9.5 c 128,-1,26
 512 11 512 11 373 123 c 0,27,28
 298 183 298 183 224 209 c 128,-1,29
 150 235 150 235 72 202 c 1,30,31
 47 195 47 195 40.5 216 c 128,-1,32
 34 237 34 237 66 249 c 0,33,34
 123 272 123 272 178 311.5 c 128,-1,35
 233 351 233 351 303 439 c 0,36,37
 332 476 332 476 339 512 c 1,38,39
 341 517 341 517 339 521.5 c 128,-1,40
 337 526 337 526 331.5 530 c 128,-1,41
 326 534 326 534 319.5 536 c 128,-1,42
 313 538 313 538 306 538 c 2,43,-1
 123 538 l 2,44,45
 77 538 77 538 77 577.5 c 128,-1,46
 77 617 77 617 123 617 c 2,47,-1
 274 617 l 1,48,49
 290 615 290 615 296.5 629.5 c 128,-1,50
 303 644 303 644 291 658 c 1,51,52
 249 725 249 725 204 793 c 1,53,54
 151 868 151 868 128.5 953 c 128,-1,55
 106 1038 106 1038 128 1113 c 0,56,57
 172 1266 172 1266 308.5 1359 c 128,-1,58
 445 1452 445 1452 655 1452 c 0,59,60
 1117 1451 1117 1451 1113 1043 c 0,61,62
 1112 852 1112 852 952.5 765.5 c 128,-1,63
 793 679 793 679 616 768 c 1,64,65
 583 783 583 783 591.5 801.5 c 128,-1,66
 600 820 600 820 626 810 c 0,67,68
 728 768 728 768 821 821 c 128,-1,69
 914 874 914 874 923 1025 c 0,70,71
 933 1202 933 1202 856.5 1300.5 c 128,-1,72
 780 1399 780 1399 651 1408 c 1,73,74
 525 1408 525 1408 445 1338.5 c 128,-1,75
 365 1269 365 1269 365 1176 c 0,76,77
 365 1113 365 1113 391 1057 c 128,-1,78
 417 1001 417 1001 450 949 c 0,79,80
 510 852 510 852 538 728 c 0,81,82
 546 694 546 694 536 657 c 0,83,84
 531 642 531 642 541.5 629.5 c 128,-1,85
 552 617 552 617 564 617 c 2,0,-1
EndSplineSet
EndChar

StartChar: currency
Encoding: 164 164 103
Width: 1365
Flags: W
HStem: 259 99<506.573 858.049> 1094 98<506.111 856.186>
VStem: 214 102<548.434 901.852> 1049 102<547.677 902.924>
LayerCount: 2
Fore
SplineSet
138 242 m 1,0,-1
 325 429 l 1,1,2
 214 565 214 565 214 725 c 0,3,4
 214 879 214 879 321 1016 c 1,5,-1
 132 1205 l 1,6,-1
 196 1269 l 1,7,-1
 384 1081 l 1,8,9
 527 1192 527 1192 683 1192 c 0,10,11
 840 1192 840 1192 980 1082 c 1,12,-1
 1168 1268 l 1,13,-1
 1232 1205 l 1,14,-1
 1045 1018 l 1,15,16
 1151 880 1151 880 1151 724 c 0,17,18
 1151 570 1151 570 1044 432 c 1,19,-1
 1234 242 l 1,20,-1
 1171 178 l 1,21,-1
 981 368 l 1,22,23
 845 259 845 259 685 259 c 0,24,25
 533 259 533 259 388 365 c 1,26,-1
 201 178 l 1,27,-1
 138 242 l 1,0,-1
678 1094 m 0,28,29
 531 1094 531 1094 422 985 c 1,30,31
 316 877 316 877 316 726 c 0,32,33
 316 573 316 573 423 466 c 0,34,35
 531 358 531 358 682 358 c 0,36,37
 834 358 834 358 942 466 c 0,38,39
 1049 573 1049 573 1049 724 c 0,40,41
 1049 880 1049 880 943 985 c 0,42,43
 833 1094 833 1094 678 1094 c 0,28,29
EndSplineSet
EndChar

StartChar: yen
Encoding: 165 165 104
Width: 1174
Flags: W
HStem: 0 68<312 434 756 877> 431 86<107 434 756 1075> 741 86<107 339 831 1075> 1297 68<48 141 496 583 806 880.49 1063.36 1134>
VStem: 434 322<68 431 517 602>
LayerCount: 2
Fore
SplineSet
107 827 m 1,0,-1
 339 827 l 1,1,-1
 141 1297 l 1,2,-1
 48 1297 l 1,3,-1
 48 1365 l 1,4,-1
 583 1365 l 1,5,-1
 583 1297 l 1,6,-1
 496 1297 l 1,7,-1
 725 746 l 1,8,-1
 877 1114 l 2,9,10
 916 1208 916 1208 916 1229 c 0,11,12
 916 1283 916 1283 881 1293 c 0,13,14
 865 1297 865 1297 806 1297 c 1,15,-1
 806 1365 l 1,16,-1
 1134 1365 l 1,17,-1
 1134 1297 l 1,18,19
 1074 1294 1074 1294 1063 1291 c 0,20,21
 1036 1284 1036 1284 1009 1235 c 0,22,23
 963 1152 963 1152 957 1133 c 1,24,-1
 831 827 l 1,25,-1
 1075 827 l 1,26,-1
 1075 741 l 1,27,-1
 795 741 l 1,28,-1
 756 646 l 1,29,-1
 756 517 l 1,30,-1
 1075 517 l 1,31,-1
 1075 431 l 1,32,-1
 756 431 l 1,33,-1
 756 68 l 1,34,-1
 877 68 l 1,35,-1
 877 0 l 1,36,-1
 312 0 l 1,37,-1
 312 68 l 1,38,-1
 434 68 l 1,39,-1
 434 431 l 1,40,-1
 107 431 l 1,41,-1
 107 517 l 1,42,-1
 434 517 l 1,43,-1
 434 602 l 1,44,-1
 375 741 l 1,45,-1
 107 741 l 1,46,-1
 107 827 l 1,0,-1
EndSplineSet
EndChar

StartChar: brokenbar
Encoding: 166 166 105
Width: 1024
Flags: W
VStem: 457 109<-341 314 693 1365>
LayerCount: 2
Fore
SplineSet
457 1365 m 1,0,-1
 566 1365 l 1,1,-1
 566 693 l 1,2,-1
 457 693 l 1,3,-1
 457 1365 l 1,0,-1
457 314 m 1,4,-1
 566 314 l 1,5,-1
 566 -341 l 1,6,-1
 457 -341 l 1,7,-1
 457 314 l 1,4,-1
EndSplineSet
EndChar

StartChar: section
Encoding: 167 167 106
Width: 966
Flags: W
HStem: -6 51<330 632.734> 1421 52<358.898 622.682>
VStem: 108.5 220.5<111.806 320.227> 617 219<1142.2 1354.73>
LayerCount: 2
Fore
SplineSet
804 1339 m 1,0,1
 838 1291 838 1291 836 1213 c 128,-1,2
 834 1135 834 1135 744 1128 c 0,3,4
 701 1124 701 1124 663.5 1141 c 128,-1,5
 626 1158 626 1158 617 1179 c 1,6,7
 602 1209 602 1209 609 1250 c 128,-1,8
 616 1291 616 1291 634 1322 c 0,9,10
 687 1418 687 1418 490 1421 c 1,11,12
 379 1421 379 1421 326 1374 c 128,-1,13
 273 1327 273 1327 282 1259 c 1,14,15
 288 1206 288 1206 344 1163 c 128,-1,16
 400 1120 400 1120 490.5 1080.5 c 128,-1,17
 581 1041 581 1041 671.5 1007 c 128,-1,18
 762 973 762 973 811 944 c 0,19,20
 895 893 895 893 907.5 833.5 c 128,-1,21
 920 774 920 774 894.5 715.5 c 128,-1,22
 869 657 869 657 823 606 c 128,-1,23
 777 555 777 555 745 522 c 1,24,25
 738 517 738 517 740 509 c 0,26,27
 741 501 741 501 747 497 c 0,28,29
 826 447 826 447 870 382.5 c 128,-1,30
 914 318 914 318 898 225 c 1,31,32
 878 116 878 116 768 55 c 128,-1,33
 658 -6 658 -6 498 -6 c 0,34,35
 336 -6 336 -6 260.5 30 c 128,-1,36
 185 66 185 66 142 126 c 1,37,38
 106 173 106 173 108.5 250.5 c 128,-1,39
 111 328 111 328 200 336 c 0,40,41
 243 339 243 339 281 322 c 128,-1,42
 319 305 319 305 329 286 c 0,43,44
 344 254 344 254 336 213.5 c 128,-1,45
 328 173 328 173 312 142 c 1,46,47
 258 46 258 46 492 45 c 0,48,49
 602 44 602 44 668 87.5 c 128,-1,50
 734 131 734 131 727 200 c 1,51,52
 720 252 720 252 650.5 298 c 128,-1,53
 581 344 581 344 490 383.5 c 128,-1,54
 399 423 399 423 308.5 457 c 128,-1,55
 218 491 218 491 170 520 c 0,56,57
 85 570 85 570 73 630.5 c 128,-1,58
 61 691 61 691 86.5 749.5 c 128,-1,59
 112 808 112 808 158 859.5 c 128,-1,60
 204 911 204 911 237 944 c 1,61,62
 242 947 242 947 242 957 c 1,63,64
 240 965 240 965 234 968 c 0,65,66
 154 1018 154 1018 124 1080 c 128,-1,67
 94 1142 94 1142 111 1235 c 1,68,69
 129 1344 129 1344 226 1408.5 c 128,-1,70
 323 1473 323 1473 484 1473 c 1,71,72
 608 1472 608 1472 684 1435 c 128,-1,73
 760 1398 760 1398 804 1339 c 1,0,1
321 920 m 0,74,75
 309 926 309 926 302 917 c 1,76,77
 268 881 268 881 235.5 818 c 128,-1,78
 203 755 203 755 260 725 c 0,79,80
 355 674 355 674 461.5 632 c 128,-1,81
 568 590 568 590 661 544 c 0,82,83
 671 539 671 539 680 548 c 0,84,85
 713 584 713 584 745.5 647 c 128,-1,86
 778 710 778 710 722 740 c 0,87,88
 626 791 626 791 519.5 833 c 128,-1,89
 413 875 413 875 321 920 c 0,74,75
EndSplineSet
EndChar

StartChar: dieresis
Encoding: 168 168 107
Width: 943
Flags: W
HStem: 1182 269<205.186 333.193 635.186 763.193>
VStem: 177 235<1258.33 1420.49> 607 235<1258.33 1420.49>
LayerCount: 2
Fore
SplineSet
311 1451 m 0,0,1
 422 1451 422 1451 412 1344 c 0,2,3
 406 1290 406 1290 344.5 1235.5 c 128,-1,4
 283 1181 283 1181 247 1182 c 0,5,6
 211 1182 211 1182 192 1239 c 128,-1,7
 173 1296 173 1296 177 1344 c 0,8,9
 180 1390 180 1390 221.5 1420.5 c 128,-1,10
 263 1451 263 1451 311 1451 c 0,0,1
741 1451 m 0,11,12
 852 1451 852 1451 842 1344 c 0,13,14
 836 1290 836 1290 774.5 1235.5 c 128,-1,15
 713 1181 713 1181 677 1182 c 0,16,17
 641 1182 641 1182 622 1239 c 128,-1,18
 603 1296 603 1296 607 1344 c 0,19,20
 610 1390 610 1390 651.5 1420.5 c 128,-1,21
 693 1451 693 1451 741 1451 c 0,11,12
EndSplineSet
EndChar

StartChar: copyright
Encoding: 169 169 108
Width: 1678
Flags: W
HStem: 0 154<597.003 1055.22> 319 168<682.402 976.407> 1010 153<683.627 976.407> 1331 154<599.383 1054.48>
VStem: 85 151<514.946 968.659> 1091 157<601.278 895.105> 1416 151<514.946 968.659>
LayerCount: 2
Fore
SplineSet
826 1331 m 256,0,1
 705 1331 705 1331 601 1287.5 c 128,-1,2
 497 1244 497 1244 410 1157 c 256,3,4
 323 1070 323 1070 279.5 966.5 c 128,-1,5
 236 863 236 863 236 741 c 0,6,7
 236 620 236 620 279.5 516.5 c 128,-1,8
 323 413 323 413 410 326 c 0,9,10
 496 240 496 240 600.5 197 c 128,-1,11
 705 154 705 154 826 154 c 0,12,13
 949 154 949 154 1052 196.5 c 128,-1,14
 1155 239 1155 239 1242 326 c 256,15,16
 1329 413 1329 413 1372.5 516.5 c 128,-1,17
 1416 620 1416 620 1416 741 c 0,18,19
 1416 863 1416 863 1372.5 966.5 c 128,-1,20
 1329 1070 1329 1070 1242 1157 c 0,21,22
 1154 1245 1154 1245 1050.5 1288 c 128,-1,23
 947 1331 947 1331 826 1331 c 256,0,1
826 1485 m 256,24,25
 978 1485 978 1485 1109.5 1430 c 128,-1,26
 1241 1375 1241 1375 1350 1266 c 256,27,28
 1459 1157 1459 1157 1513 1026 c 128,-1,29
 1567 895 1567 895 1567 741 c 0,30,31
 1567 589 1567 589 1513 458.5 c 128,-1,32
 1459 328 1459 328 1350 219 c 256,33,34
 1241 110 1241 110 1109.5 55 c 128,-1,35
 978 0 978 0 826 0 c 256,36,37
 674 0 674 0 542.5 55 c 128,-1,38
 411 110 411 110 302 219 c 256,39,40
 193 328 193 328 139 458.5 c 128,-1,41
 85 589 85 589 85 741 c 0,42,43
 85 895 85 895 139 1026 c 128,-1,44
 193 1157 193 1157 302 1266 c 256,45,46
 411 1375 411 1375 542.5 1430 c 128,-1,47
 674 1485 674 1485 826 1485 c 256,24,25
465 525 m 1,48,49
 492 479 492 479 530.5 441 c 128,-1,50
 569 403 569 403 615.5 376 c 128,-1,51
 662 349 662 349 715.5 334 c 128,-1,52
 769 319 769 319 827 319 c 0,53,54
 914 319 914 319 990.5 352 c 128,-1,55
 1067 385 1067 385 1124.5 442.5 c 128,-1,56
 1182 500 1182 500 1215 577 c 128,-1,57
 1248 654 1248 654 1248 741 c 256,58,59
 1248 828 1248 828 1215 905 c 128,-1,60
 1182 982 1182 982 1124.5 1039.5 c 128,-1,61
 1067 1097 1067 1097 990.5 1130 c 128,-1,62
 914 1163 914 1163 827 1163 c 0,63,64
 767 1163 767 1163 712 1147 c 128,-1,65
 657 1131 657 1131 609 1102 c 128,-1,66
 561 1073 561 1073 522.5 1032.5 c 128,-1,67
 484 992 484 992 457 943 c 1,68,-1
 601 876 l 1,69,70
 635 936 635 936 695 973 c 128,-1,71
 755 1010 755 1010 830 1010 c 0,72,73
 884 1010 884 1010 932 989.5 c 128,-1,74
 980 969 980 969 1015 933.5 c 128,-1,75
 1050 898 1050 898 1070.5 850 c 128,-1,76
 1091 802 1091 802 1091 748 c 256,77,78
 1091 694 1091 694 1070.5 646 c 128,-1,79
 1050 598 1050 598 1015 563 c 128,-1,80
 980 528 980 528 932 507.5 c 128,-1,81
 884 487 884 487 830 487 c 0,82,83
 761 487 761 487 703 519 c 128,-1,84
 645 551 645 551 610 605 c 1,85,-1
 465 525 l 1,48,49
EndSplineSet
EndChar

StartChar: ordfeminine
Encoding: 170 170 109
Width: 737
Flags: W
HStem: 155 148<47 704>
VStem: 446 156<583.125 1023.16>
LayerCount: 2
Fore
SplineSet
427 538 m 1,0,1
 386 507 386 507 337.5 469.5 c 128,-1,2
 289 432 289 432 247 401 c 0,3,4
 233 390 233 390 224.5 391.5 c 128,-1,5
 216 393 216 393 218 406 c 1,6,7
 218 423 218 423 168 470 c 0,8,9
 38 592 38 592 42 788 c 1,10,11
 47 956 47 956 198 1072 c 0,12,13
 245 1107 245 1107 285.5 1146.5 c 128,-1,14
 326 1186 326 1186 357 1242 c 0,15,16
 370 1267 370 1267 392 1243 c 0,17,18
 514 1106 514 1106 635 1081 c 1,19,20
 674 1074 674 1074 643 1051 c 0,21,22
 606 1023 606 1023 602 983 c 1,23,-1
 602 982 l 1,24,-1
 605 616 l 2,25,26
 605 579 605 579 631.5 565.5 c 128,-1,27
 658 552 658 552 690 587 c 0,28,29
 702 600 702 600 712.5 593.5 c 128,-1,30
 723 587 723 587 713 569 c 1,31,32
 684 526 684 526 657 484.5 c 128,-1,33
 630 443 630 443 612 398 c 1,34,-1
 611 397 l 1,35,36
 600 379 600 379 584 397 c 0,37,38
 575 407 575 407 563 410 c 0,39,40
 472 430 472 430 448 531 c 1,41,42
 446 535 446 535 440 540 c 1,43,44
 433 541 433 541 427 538 c 1,0,1
436 1009 m 0,45,46
 386 1023 386 1023 320 1086 c 1,47,48
 288 1124 288 1124 269 1093 c 1,49,50
 184 967 184 967 202 814 c 0,51,52
 228 595 228 595 356 544 c 0,53,54
 357 544 357 544 358 543 c 0,55,56
 390 533 390 533 437 583 c 0,57,58
 440 587 440 587 440 591 c 0,59,60
 439 603 439 603 439 629 c 2,61,-1
 446 996 l 2,62,63
 446 1006 446 1006 436 1009 c 0,45,46
63 303 m 2,64,-1
 688 303 l 2,65,66
 704 303 704 303 704 286 c 2,67,-1
 704 172 l 2,68,69
 704 155 704 155 688 155 c 2,70,-1
 63 155 l 2,71,72
 47 155 47 155 47 172 c 2,73,-1
 47 286 l 2,74,75
 47 303 47 303 63 303 c 2,64,-1
EndSplineSet
EndChar

